{
.appVersion = "3187";
.formatVersion = 3;
DisplayStrings = (
" ",
"  ",
"",
" 
 
 
 ",
"  ",
" /raMedial-chak   
 /raMedial-chak  /raMedial-chak",
"/kha-chak/ga-chak/gha-chak/nga-chak/ca-chak/cha-chak/ja-chak/jha-chak/nnya-chak/a-chak 
/tta-chak/ttha-chak/ddha-chak/nna-chak/ta-chak/tha-chak/da-chak/dha-chak/na-chak/pa-chak/pha-chak 
/bha-chak/ma-chak/ya-chak/ra-chak/la-chak/sa-chak/sha-chak/ha-chak/bba-chak/ddda-chak 
/sa-chak/ma-chak/la-chak/bha-chak/ya-chak 
/kha-chak/a-chak",
"/yaMedial-chak/waMedial-chak",
"/wa-chak/wa-chak/wa-chak/wa-chak/wa-chak/dda-chak/wa-chak/wa-chak/wa-chak/wa-chak/dda-chak/wa-chak/wa-chak 
/wa-chak/wa-chak/dda-chak/wa-chak/wa-chak/wa-chak/dda-chak/wa-chak/wa-chak/wa-chak/dda-chak/wa-chak/wa-chak",
"/aaSign-chak  /iMark-chak  /iiMark-chak  /uMark-chak   /eSign-chak/aaSign-chak  /eSign-chak/aaSign-chak/asat-chak  /oeMark-chak   /vVocalic-chak",
"/rr-chak/anusvara-chak/anusvara-chak.small",
"/ba-chak",
"/ka-chak/uuMark-chak/dotbelow-chak",
"/ka-chak/stacker-chak/ka-chak  /ka-chak/stacker-chak/kha-chak  "
);
classes = (
{
code = "ka-chak
kha-chak
ga-chak
gha-chak
nga-chak
ca-chak
cha-chak
ja-chak
jha-chak
nnya-chak
tta-chak
ttha-chak
dda-chak
ddha-chak
nna-chak
ta-chak
tha-chak
da-chak
dha-chak
na-chak
pa-chak
pha-chak
ba-chak
bha-chak
ma-chak
ya-chak
ra-chak
la-chak
wa-chak
sa-chak
sha-chak
ha-chak
a-chak
bba-chak
ddda-chak
eSign-chak
";
name = consonants;
},
{
code = "iMark-chak
iiMark-chak
oeMark-chak
rr-chak
asat-chak.rclt
anusvara-chak
";
name = abovemarks;
}
);
customParameters = (
{
name = MarkPreviewColor;
value = "1,0.8,0,0.7";
},
{
name = MarkPreviewColorInactive;
value = "0.3,0.8,0.8,0.5";
},
{
disabled = 1;
name = unicodeRanges;
value = (
74
);
},
{
name = glyphOrder;
value = (
space,
"a-chak",
"i-chak",
"ii-chak",
"u-chak",
"uu-chak",
"o-chak",
"au-chak",
"e-chak",
"oe-chak",
"eu-chak",
"ka-chak",
"kha-chak",
"ga-chak",
"gha-chak",
"nga-chak",
"ca-chak",
"cha-chak",
"ja-chak",
"jha-chak",
"nnya-chak",
"tta-chak",
"ttha-chak",

glyphs = (
{
category = Letter;
glyphname = "a-chak";
lastChange = "2022-05-18 11:41:43 +0000";
layers = (
{
anchors = (
{
name = bottomright;
pos = (748,0);
},
{
name = top;
pos = (748,600);
}
);
background = {
anchors = (
{
name = bottomright;
pos = (748,0);
},
{
name = top;
pos = (748,600);
}
);
shapes = (
{
pos = (-21,0);
ref = "wa-chak";
}
);
};
layerId = m01;
shapes = (
{
closed = 1;
nodes = (
(522,-10,o),
(652,119,o),
(652,290,cs),
(652,461,o),
(522,590,o),
(346,590,cs),
(202,590,o),
(99,504,o),
(60,388,c),
(126,342,l),
(143,362,o),
(168,374,o),
(196,374,cs),
(243,374,o),
(278,340,o),
(278,290,cs),
(278,240,o),
(243,206,o),
(196,206,cs),
(168,206,o),
(143,218,o),
(126,238,c),
(60,192,l),
(99,76,o),
(202,-10,o),
(346,-10,cs)
);
},
{
closed = 1;
nodes = (
(265,65,o),
(180,107,o),
(122,200,c),
(89,182,l),
(117,155,o),
(155,139,o),
(200,139,cs),
(290,139,o),
(354,203,o),
(354,290,cs),
(354,377,o),
(290,441,o),
(200,441,cs),
(155,441,o),
(117,425,o),
(89,398,c),
(122,380,l),
(180,473,o),
(265,515,o),
(351,515,cs),
(478,515,o),
(568,421,o),
(568,290,cs),
(568,159,o),
(478,65,o),
(351,65,cs)
);
},
{
closed = 1;
nodes = (
(1006,290,l),
(1006,468,o),
(904,590,o),
(758,590,cs),
(668,590,o),
(590,549,o),
(543,482,c),
(592,401,l),
(620,472,o),
(682,515,o),
(758,515,cs),
(857,515,o),
(922,428,o),
(922,290,c)
);
},
{
angle = 180;
pos = (1071,580);
ref = "_part.cap-chak";
}
);
width = 1071;
},
{
anchors = (
{
name = bottomright;
pos = (719,0);
},
{
name = top;
pos = (719,600);
}
);
associatedMasterId = m01;
background = {
shapes = (
{
closed = 1;
nodes = (
(492,-10,o),
(623,119,o),
(623,290,cs),
(623,461,o),
(492,590,o),
(319,590,cs),
(146,590,o),
(15,461,o),
(15,290,cs),
(15,119,o),
(146,-10,o),
(319,-10,cs)
);
},
{
closed = 1;
nodes = (
(191,65,o),
(99,159,o),
(99,290,cs),
(99,421,o),
(191,515,o),
(319,515,cs),
(447,515,o),
(539,421,o),
(539,290,cs),
(539,159,o),
(447,65,o),
(319,65,cs)
);
},
{
closed = 1;
nodes = (
(920,-10,o),
(1051,119,o),
(1051,290,cs),
(1051,461,o),
(920,590,o),
(747,590,cs),
(645,590,o),
(558,545,o),
(504,474,c),
(553,401,l),
(589,471,o),
(659,515,o),
(747,515,cs),
(875,515,o),
(967,421,o),
(967,290,cs),
(967,159,o),
(875,65,o),
(747,65,c),
(747,-10,l)
);
}
);
};
layerId = "8CD4045E-F668-4F89-8229-F52E14B355A2";
name = "14 Apr 22, 08:58";
shapes = (
{
closed = 1;
nodes = (
(492,-10,o),
(623,119,o),
(623,290,cs),
(623,461,o),
(492,590,o),
(319,590,cs),
(199,590,o),
(100,528,o),
(50,434,c),
(200,290,l),
(50,146,l),
(100,52,o),
(199,-10,o),
(319,-10,cs)
);
},
{
closed = 1;
nodes = (
(236,65,o),
(169,104,o),
(131,167,c),
(146,134,l),
(328,309,l),
(290,233,l),
(290,347,l),
(328,271,l),
(146,446,l),
(128,406,l),
(164,473,o),
(234,515,o),
(319,515,cs),
(447,515,o),
(539,421,o),
(539,290,cs),
(539,159,o),
(447,65,o),
(319,65,cs)
);
},
{
closed = 1;
nodes = (
(867,-10,o),
(977,117,o),
(977,290,cs),
(977,468,o),
(871,590,o),
(719,590,cs),
(633,590,o),
(559,549,o),
(514,482,c),
(563,401,l),
(589,472,o),
(648,515,o),
(719,515,cs),
(824,515,o),
(893,428,o),
(893,290,cs),
(893,156,o),
(822,65,o),
(718,65,cs),
(685,65,o),
(647,76,o),
(624,92,c),
(592,25,l),
(622,3,o),
(669,-10,o),
(718,-10,cs)
);
}
);
width = 1042;
},
{
anchors = (
{
name = bottomright;
pos = (719,0);
},
{
name = top;
pos = (719,600);
}
);
associatedMasterId = m01;
background = {
anchors = (
{
name = bottomright;
pos = (719,0);
},
{
name = top;
pos = (719,600);
}
);
shapes = (
{
closed = 1;
nodes = (
(492,-10,o),
(623,119,o),
(623,290,cs),
(623,461,o),
(492,590,o),
(319,590,cs),
(199,590,o),
(100,528,o),
(50,434,c),
(200,290,l),
(50,146,l),
(100,52,o),
(199,-10,o),
(319,-10,cs)
);
},
{
closed = 1;
nodes = (
(236,65,o),
(169,104,o),
(131,167,c),
(146,134,l),
(328,309,l),
(290,233,l),
(290,347,l),
(328,271,l),
(146,446,l),
(128,406,l),
(164,473,o),
(234,515,o),
(319,515,cs),
(447,515,o),
(539,421,o),
(539,290,cs),
(539,159,o),
(447,65,o),
(319,65,cs)
);
},
{
closed = 1;
nodes = (
(867,-10,o),
(977,117,o),
(977,290,cs),
(977,468,o),
(871,590,o),
(719,590,cs),
(633,590,o),
(559,549,o),
(514,482,c),
(563,401,l),
(589,472,o),
(648,515,o),
(719,515,cs),
(824,515,o),
(893,428,o),
(893,290,cs),
(893,156,o),
(822,65,o),
(718,65,c),
(718,-10,l)
);
}
);
};
layerId = "52CC179B-75A1-4633-96F8-727E978EA41C";
name = "18 May 22, 08:32";
shapes = (
{
closed = 1;
nodes = (
(247,244,o),
(214,212,o),
(170,212,cs),
(147,212,o),
(127,221,o),
(113,236,c),
(66,190,l),
(100,75,o),
(202,-10,o),
(317,-10,cs),
(493,-10,o),
(623,119,o),
(623,290,cs),
(623,461,o),
(493,590,o),
(317,590,cs),
(202,590,o),
(100,505,o),
(66,390,c),
(113,344,l),
(127,359,o),
(147,368,o),
(170,368,cs),
(214,368,o),
(247,336,o),
(247,290,cs)
);
},
{
closed = 1;
nodes = (
(867,-10,o),
(977,117,o),
(977,290,cs),
(977,468,o),
(871,590,o),
(719,590,cs),
(633,590,o),
(559,549,o),
(514,482,c),
(563,401,l),
(589,472,o),
(648,515,o),
(719,515,cs),
(824,515,o),
(893,428,o),
(893,290,cs),
(893,156,o),
(822,65,o),
(718,65,c),
(718,-10,l)
);
},
{
closed = 1;
nodes = (
(323,374,o),
(260,435,o),
(170,435,cs),
(133,435,o),
(101,422,o),
(76,400,c),
(148,382,l),
(194,472,o),
(243,515,o),
(322,515,cs),
(451,515,o),
(539,421,o),
(539,291,cs),
(539,159,o),
(446,65,o),
(322,65,cs),
(243,65,o),
(194,108,o),
(148,198,c),
(76,180,l),
(101,158,o),
(133,145,o),
(170,145,cs),
(260,145,o),
(323,206,o),
(323,290,cs)
);
}
);
width = 1042;
},
{
anchors = (
{
name = bottomright;
pos = (748,0);
},
{
name = top;
pos = (748,600);
}
);
associatedMasterId = m01;
background = {
anchors = (
{
name = bottomright;
pos = (748,0);
},
{
name = top;
pos = (748,600);
}
);
shapes = (
{
pos = (-21,0);
ref = "wa-chak";
}
);
};
layerId = "710B3666-4AFB-4D8E-B389-A5B3E2BDABBE";
name = "18 May 22, 12:18";
shapes = (
{
closed = 1;
nodes = (
(522,-10,o),
(652,119,o),
(652,290,cs),
(652,461,o),
(522,590,o),
(346,590,cs),
(202,590,o),
(99,504,o),
(60,388,c),
(126,342,l),
(143,362,o),
(168,374,o),
(196,374,cs),
(243,374,o),
(278,340,o),
(278,290,cs),
(278,240,o),
(243,206,o),
(196,206,cs),
(168,206,o),
(143,218,o),
(126,238,c),
(60,192,l),
(99,76,o),
(202,-10,o),
(346,-10,cs)
);
},
{
closed = 1;
nodes = (
(265,65,o),
(180,107,o),
(122,200,c),
(89,182,l),
(117,155,o),
(155,139,o),
(200,139,cs),
(290,139,o),
(354,203,o),
(354,290,cs),
(354,377,o),
(290,441,o),
(200,441,cs),
(155,441,o),
(117,425,o),
(89,398,c),
(122,380,l),
(180,473,o),
(265,515,o),
(351,515,cs),
(478,515,o),
(568,421,o),
(568,290,cs),
(568,159,o),
(478,65,o),
(351,65,cs)
);
},
{
closed = 1;
nodes = (
(896,-10,o),
(1006,117,o),
(1006,290,cs),
(1006,468,o),
(900,590,o),
(748,590,cs),
(662,590,o),
(588,549,o),
(543,482,c),
(592,401,l),
(618,472,o),
(677,515,o),
(748,515,cs),
(853,515,o),
(922,428,o),
(922,290,cs),
(922,156,o),
(851,65,o),
(747,65,c),
(747,-10,l)
);
}
);
width = 1071;
}
);
metricRight = "=wa-chak";
script = chak;
subCategory = Spacing;
unicode = 57344;
},
{
category = Letter;
glyphname = "i-chak";
lastChange = "2023-04-23 06:48:08 +0000";
layers = (
{
background = {
shapes = (
{
closed = 1;
nodes = (
(390,162,o),
(484,254,o),
(484,376,cs),
(484,498,o),
(390,590,o),
(267,590,cs),
(144,590,o),
(50,498,o),
(50,376,cs),
(50,254,o),
(144,162,o),
(267,162,cs)
);
},
{
closed = 1;
nodes = (
(183,228,o),
(123,290,o),
(123,376,cs),
(123,462,o),
(183,524,o),
(267,524,cs),
(351,524,o),
(411,462,o),
(411,376,cs),
(411,290,o),
(351,228,o),
(267,228,cs)
);
},
{
closed = 1;
nodes = (
(409,35,l),
(489,35,l),
(489,300,l),
(409,300,l)
);
},
{
closed = 1;
nodes = (
(305,0,l),
(593,0,l),
(593,70,l),
(305,70,l)
);
},
{
closed = 1;
nodes = (
(754,162,o),
(848,254,o),
(848,376,cs),
(848,498,o),
(754,590,o),
(631,590,cs),
(508,590,o),
(414,498,o),
(414,376,cs),
(414,254,o),
(508,162,o),
(631,162,cs)
);
},
{
closed = 1;
nodes = (
(547,228,o),
(487,290,o),
(487,376,cs),
(487,462,o),
(547,524,o),
(631,524,cs),
(715,524,o),
(775,462,o),
(775,376,cs),
(775,290,o),
(715,228,o),
(631,228,cs)
);
}
);
};
layerId = m01;
shapes = (
{
ref = "_part.i-chak";
},
{
pos = (393,0);
ref = "iMark-chak";
}
);
width = 896;
}
);
metricRight = "=|";
script = chak;
subCategory = Spacing;
unicode = 57345;
},
{
category = Letter;
glyphname = "u-chak";
lastChange = "2023-04-23 06:48:17 +0000";
layers = (
{
anchors = (
{
name = top;
pos = (250,600);
}
);
background = {
anchors = (
{
name = top;
pos = (250,600);
}
);
shapes = (
{
closed = 1;
nodes = (
(371,172,o),
(463,262,o),
(463,381,cs),
(463,500,o),
(371,590,o),
(250,590,cs),
(176,590,o),
(113,556,o),
(75,501,c),
(133,460,l),
(157,497,o),
(199,520,o),
(251,520,cs),
(328,520,o),
(383,462,o),
(383,381,cs),
(383,300,o),
(328,242,o),
(251,242,cs),
(199,242,o),
(157,265,o),
(133,302,c),
(75,261,l),
(113,206,o),
(176,172,o),
(250,172,cs)
);
},
{
closed = 1;
nodes = (
(231,-72,l),
(231,-2,l),
(114,-2,l),
(75,-72,l)
);
},
{
closed = 1;
nodes = (
(155,-37,l),
(155,261,l),
(75,261,l),
(75,-72,l)
);
}
);
};
layerId = m01;
shapes = (
{
closed = 1;
nodes = (
(369,172,o),
(463,262,o),
(463,381,cs),
(463,500,o),
(369,590,o),
(246,590,cs),
(172,590,o),
(108,557,o),
(70,505,c),
(132,461,l),
(156,498,o),
(196,520,o),
(246,520,cs),
(326,520,o),
(383,462,o),
(383,381,cs),
(383,300,o),
(326,242,o),
(246,242,cs),
(196,242,o),
(156,264,o),
(132,301,c),
(70,257,l),
(108,205,o),
(172,172,o),
(246,172,cs)
);
},
{
closed = 1;
nodes = (
(234,-120,l),
(234,-50,l),
(109,-50,l),
(70,-120,l)
);
},
{
closed = 1;
nodes = (
(150,-85,l),
(150,257,l),
(70,257,l),
(70,-120,l)
);
}
);
width = 523;
},
{
anchors = (
{
name = top;
pos = (250,600);
}
);
associatedMasterId = m01;
layerId = "5DE94CEF-E761-4BDD-8805-EC80363A8AE4";
name = "14 Apr 22, 08:49";
shapes = (
{
closed = 1;
nodes = (
(371,172,o),
(463,262,o),
(463,381,cs),
(463,500,o),
(371,590,o),
(250,590,cs),
(176,590,o),
(113,556,o),
(75,501,c),
(133,460,l),
(157,499,o),
(199,524,o),
(251,524,cs),
(331,524,o),
(389,464,o),
(389,381,cs),
(389,298,o),
(331,238,o),
(251,238,cs),
(199,238,o),
(157,263,o),
(133,302,c),
(75,261,l),
(113,206,o),
(176,172,o),
(250,172,cs)
);
},
{
closed = 1;
nodes = (
(231,-72,l),
(231,-2,l),
(114,-2,l),
(75,-72,l)
);
},
{
closed = 1;
nodes = (
(155,-37,l),
(155,261,l),
(75,261,l),
(75,-72,l)
);
}
);
width = 523;
}
);
metricRight = "=i-chak";
script = chak;
subCategory = Spacing;
unicode = 57347;
},
{
category = Letter;
glyphname = "uu-chak";
lastChange = "2023-04-23 06:48:25 +0000";
layers = (
{
background = {
shapes = (
{
closed = 1;
nodes = (
(371,172,o),
(463,262,o),
(463,381,cs),
(463,500,o),
(371,590,o),
(250,590,cs),
(176,590,o),
(113,556,o),
(75,501,c),
(133,460,l),
(157,499,o),
(199,524,o),
(251,524,cs),
(331,524,o),
(389,464,o),
(389,381,cs),
(389,298,o),
(331,238,o),
(251,238,cs),
(199,238,o),
(157,263,o),
(133,302,c),
(75,261,l),
(113,206,o),
(176,172,o),
(250,172,cs)
);
},
{
closed = 1;
nodes = (
(155,-72,l),
(155,261,l),
(75,261,l),
(75,-72,l)
);
},
{
closed = 1;
nodes = (
(392,-72,l),
(392,-2,l),
(275,-2,l),
(236,-72,l)
);
},
{
closed = 1;
nodes = (
(316,-37,l),
(316,201,l),
(236,201,l),
(236,-72,l)
);
}
);
};
layerId = m01;
shapes = (
{
closed = 1;
nodes = (
(369,172,o),
(463,262,o),
(463,381,cs),
(463,500,o),
(369,590,o),
(246,590,cs),
(172,590,o),
(108,557,o),
(70,505,c),
(132,461,l),
(156,498,o),
(196,520,o),
(246,520,cs),
(326,520,o),
(383,462,o),
(383,381,cs),
(383,300,o),
(326,242,o),
(246,242,cs),
(196,242,o),
(156,264,o),
(132,301,c),
(70,257,l),
(108,205,o),
(172,172,o),
(246,172,cs)
);
},
{
closed = 1;
nodes = (
(150,-120,l),
(150,257,l),
(70,257,l),
(70,-120,l)
);
},
{
closed = 1;
nodes = (
(394,-120,l),
(394,-50,l),
(269,-50,l),
(230,-120,l)
);
},
{
closed = 1;
nodes = (
(310,-85,l),
(310,201,l),
(230,201,l),
(230,-120,l)
);
}
);
width = 523;
}
);
metricLeft = "=u-chak";
metricRight = "=u-chak";
script = chak;
subCategory = Spacing;
unicode = 57348;
},
{
category = Letter;
glyphname = "o-chak";
lastChange = "2023-04-23 06:48:30 +0000";
layers = (
{
anchors = (
{
name = top;
pos = (936,600);
}
);
background = {
shapes = (
{
closed = 0;
nodes = (
(491,-10,l),
(591,-10,o),
(673,114,o),
(673,261,cs),
(673,450,o),
(545,590,o),
(369,590,cs),
(196,590,o),
(65,458,o),
(65,284,cs),
(65,149,o),
(137,38,o),
(245,-10,c),
(283,60,l),
(201,97,o),
(149,179,o),
(149,284,cs),
(149,418,o),
(241,515,o),
(369,515,cs),
(499,515,o),
(589,411,o),
(589,260,cs),
(589,159,o),
(541,65,o),
(491,65,c)
);
},
{
closed = 0;
nodes = (
(543,117,l),
(543,33,o),
(627,-10,o),
(708,-10,cs),
(789,-10,o),
(873,33,o),
(873,117,cs),
(873,580,l),
(793,580,l),
(793,125,ls),
(793,78,o),
(749,60,o),
(708,60,cs),
(667,60,o),
(623,78,o),
(623,125,c)
);
},
{
closed = 0;
nodes = (
(499,57,l),
(471,57,o),
(451,77,o),
(451,109,cs),
(451,143,o),
(471,172,o),
(518,196,c)
);
},
{
closed = 0;
nodes = (
(479,249,l),
(413,215,o),
(379,167,o),
(379,107,cs),
(379,38,o),
(430,-10,o),
(502,-10,cs)
);
}
);
};
layerId = m01;
shapes = (
{
closed = 1;
nodes = (
(283,60,l),
(201,97,o),
(149,179,o),
(149,284,cs),
(149,418,o),
(241,515,o),
(369,515,cs),
(499,515,o),
(589,411,o),
(589,260,cs),
(589,159,o),
(547,57,o),
(493,57,cs),
(469,57,o),
(451,77,o),
(451,110,cs),
(451,153,o),
(484,187,o),
(540,187,cs),
(634,187,o),
(716,100,o),
(789,0,c),
(873,0,l),
(873,442,ls),
(873,491,o),
(899,520,o),
(938,520,cs),
(963,520,o),
(985,510,o),
(998,481,c),
(1055,522,l),
(1030,569,o),
(980,590,o),
(935,590,cs),
(851,590,o),
(793,536,o),
(793,442,cs),
(793,110,l),
(728,175,o),
(646,252,o),
(538,252,cs),
(442,252,o),
(379,189,o),
(379,110,cs),
(379,40,o),
(429,-10,o),
(496,-10,cs),
(600,-10,o),
(673,114,o),
(673,261,cs),
(673,450,o),
(545,590,o),
(369,590,cs),
(196,590,o),
(65,458,o),
(65,284,cs),
(65,149,o),
(137,38,o),
(245,-10,c)
);
}
);
width = 1060;
}
);
metricLeft = "=wa-myanmar";
script = chak;
subCategory = Spacing;
unicode = 57349;
},
{
category = Letter;
glyphname = "e-chak";
lastChange = "2023-04-23 06:48:41 +0000";
layers = (
{
anchors = (
{
name = bottom;
pos = (366,0);
},
{
name = medialRa;
pos = (683,0);
},
{
name = top;
pos = (366,600);
}
);
background = {
shapes = (
{
ref = "wa-chak";
}
);
};
layerId = m01;
shapes = (
{
closed = 1;
nodes = (
(529,-10,o),
(642,72,o),
(642,185,cs),
(642,270,o),
(584,329,o),
(499,329,cs),
(416,329,o),
(356,273,o),
(356,194,cs),
(356,112,o),
(428,56,o),
(543,49,c),
(571,119,l),
(543,119,ls),
(473,119,o),
(432,147,o),
(432,194,cs),
(432,234,o),
(460,262,o),
(499,262,cs),
(538,262,o),
(566,231,o),
(566,188,cs),
(566,115,o),
(487,65,o),
(371,65,cs),
(241,65,o),
(149,160,o),
(149,291,cs),
(149,422,o),
(242,515,o),
(373,515,cs),
(451,515,o),
(523,483,o),
(566,429,c),
(622,486,l),
(564,551,o),
(470,590,o),
(372,590,cs),
(196,590,o),
(65,462,o),
(65,290,cs),
(65,118,o),
(196,-10,o),
(371,-10,cs)
);
}
);
width = 697;
}
);
metricLeft = "=wa-myanmar";
script = chak;
subCategory = Spacing;
unicode = 57351;
},
{
category = Letter;
glyphname = "oe-chak";
lastChange = "2023-04-23 06:48:45 +0000";
layers = (
{
anchors = (
{
name = top;
pos = (369,827);
}
);
background = {
anchors = (
{
name = bottomright;
pos = (369,0);
},
{
name = medialRa;
pos = (673,0);
},
{
name = top;
pos = (369,600);
}
);
shapes = (
{
closed = 1;
nodes = (
(542,-10,o),
(673,119,o),
(673,290,cs),
(673,461,o),
(542,590,o),
(369,590,cs),
(196,590,o),
(65,461,o),
(65,290,cs),
(65,119,o),
(196,-10,o),
(369,-10,cs)
);
},
{
closed = 1;
nodes = (
(241,65,o),
(149,159,o),
(149,290,cs),
(149,421,o),
(241,515,o),
(369,515,cs),
(497,515,o),
(589,421,o),
(589,290,cs),
(589,159,o),
(497,65,o),
(369,65,cs)
);
}
);
};
layerId = m01;
shapes = (
{
closed = 1;
nodes = (
(542,-10,o),
(673,129,o),
(673,314,cs),
(673,456,o),
(611,590,o),
(502,590,cs),
(430,590,o),
(379,542,o),
(379,473,cs),
(379,413,o),
(413,365,o),
(479,331,c),
(518,384,l),
(471,408,o),
(451,437,o),
(451,471,cs),
(451,503,o),
(471,523,o),
(499,523,cs),
(567,523,o),
(595,412,o),
(595,316,cs),
(595,170,o),
(500,65,o),
(369,65,cs),
(241,65,o),
(149,159,o),
(149,290,cs),
(149,411,o),
(207,498,o),
(304,524,c),
(267,590,l),
(146,560,o),
(65,438,o),
(65,290,cs),
(65,119,o),
(196,-10,o),
(369,-10,cs)
);
},
{
closed = 1;
nodes = (
(296,655,o),
(341,699,o),
(341,758,cs),
(341,817,o),
(296,861,o),
(234,861,cs),
(172,861,o),
(127,817,o),
(127,758,cs),
(127,699,o),
(172,655,o),
(234,655,cs)
);
},
{
closed = 1;
nodes = (
(208,710,o),
(187,730,o),
(187,758,cs),
(187,786,o),
(208,806,o),
(234,806,cs),
(260,806,o),
(281,786,o),
(281,758,cs),
(281,730,o),
(260,710,o),
(234,710,cs)
);
},
{
closed = 1;
nodes = (
(566,655,o),
(611,699,o),
(611,758,cs),
(611,817,o),
(566,861,o),
(504,861,cs),
(442,861,o),
(397,817,o),
(397,758,cs),
(397,699,o),
(442,655,o),
(504,655,cs)
);
},
{
closed = 1;
nodes = (
(478,710,o),
(457,730,o),
(457,758,cs),
(457,786,o),
(478,806,o),
(504,806,cs),
(530,806,o),
(551,786,o),
(551,758,cs),
(551,730,o),
(530,710,o),
(504,710,cs)
);
}
);
width = 738;
}
);
metricLeft = "=wa-myanmar";
metricRight = "=|";
script = chak;
subCategory = Spacing;
unicode = 57352;
},
{
category = Letter;
glyphname = "eu-chak";
lastChange = "2023-04-23 06:48:48 +0000";
layers = (
{
layerId = m01;
shapes = (
{
closed = 1;
nodes = (
(449,-10,l),
(507,18,o),
(547,74,o),
(547,142,cs),
(547,245,o),
(443,321,o),
(306,321,cs),
(169,321,o),
(65,245,o),
(65,142,cs),
(65,74,o),
(105,18,o),
(163,-10,c),
(205,41,l),
(166,63,o),
(141,92,o),
(141,142,cs),
(141,208,o),
(208,257,o),
(306,257,cs),
(404,257,o),
(471,208,o),
(471,142,cs),
(471,92,o),
(446,63,o),
(407,41,c)
);
},
{
closed = 1;
nodes = (
(407,539,l),
(446,517,o),
(471,487,o),
(471,438,cs),
(471,371,o),
(404,323,o),
(306,323,cs),
(208,323,o),
(141,371,o),
(141,438,cs),
(141,487,o),
(166,517,o),
(205,539,c),
(161,590,l),
(103,562,o),
(65,507,o),
(65,438,cs),
(65,336,o),
(169,259,o),
(306,259,cs),
(443,259,o),
(547,336,o),
(547,438,cs),
(547,507,o),
(509,562,o),
(451,590,c)
);
}
);
width = 612;
},
{
associatedMasterId = m01;
background = {
shapes = (
{
closed = 1;
nodes = (
(680,402,o),
(551,532,o),
(380,532,cs),
(209,532,o),
(80,402,o),
(80,230,cs),
(80,130,o),
(123,44,o),
(192,-10,c),
(241,53,l),
(188,91,o),
(155,154,o),
(155,230,cs),
(155,358,o),
(249,450,o),
(380,450,cs),
(511,450,o),
(605,358,o),
(605,230,cs),
(605,154,o),
(572,91,o),
(519,53,c),
(568,-10,l),
(637,44,o),
(680,130,o),
(680,230,cs)
);
},
{
closed = 1;
nodes = (
(680,854,o),
(637,940,o),
(568,994,c),
(519,931,l),
(572,893,o),
(605,830,o),
(605,754,cs),
(605,626,o),
(511,534,o),
(380,534,cs),
(249,534,o),
(155,626,o),
(155,754,cs),
(155,830,o),
(188,893,o),
(241,931,c),
(192,994,l),
(123,940,o),
(80,854,o),
(80,754,cs),
(80,582,o),
(209,452,o),
(380,452,cs),
(551,452,o),
(680,582,o),
(680,754,cs)
);
}
);
};
layerId = "37335321-5384-4618-86A7-6529F0940288";
name = "20 Apr 22, 10:43";
shapes = (
{
closed = 1;
nodes = (
(409,-10,l),
(467,18,o),
(507,75,o),
(507,144,cs),
(507,246,o),
(412,321,o),
(286,321,cs),
(160,321,o),
(65,246,o),
(65,144,cs),
(65,75,o),
(105,18,o),
(163,-10,c),
(200,47,l),
(164,66,o),
(141,98,o),
(141,144,cs),
(141,209,o),
(200,257,o),
(286,257,cs),
(372,257,o),
(431,209,o),
(431,144,cs),
(431,98,o),
(408,66,o),
(372,47,c)
);
},
{
closed = 1;
nodes = (
(372,533,l),
(408,514,o),
(431,481,o),
(431,436,cs),
(431,370,o),
(372,323,o),
(286,323,cs),
(200,323,o),
(141,370,o),
(141,436,cs),
(141,481,o),
(164,514,o),
(200,533,c),
(161,590,l),
(103,562,o),
(65,506,o),
(65,436,cs),
(65,335,o),
(160,259,o),
(286,259,cs),
(412,259,o),
(507,335,o),
(507,436,cs),
(507,506,o),
(469,562,o),
(411,590,c)
);
}
);
width = 572;
}
);
metricLeft = "=wa-chak";
metricRight = "=|";
script = chak;
subCategory = Spacing;
unicode = 57353;
},
{
category = Letter;
glyphname = "ka-chak";
lastChange = "2023-04-23 07:29:22 +0000";
layers = (
{
anchors = (
{
name = bottom;
pos = (568,0);
},
{
name = bottomright;
pos = (817,0);
},
{
name = medialRa;
pos = (1071,0);
},
{
name = top;
pos = (817,600);
}
);
background = {
shapes = (
{
closed = 1;
nodes = (
(348,-10,o),
(366,-8,o),
(384,-2,c),
(384,74,l),
(370,71,o),
(350,69,o),
(329,69,cs),
(221,69,o),
(151,155,o),
(151,290,cs),
(151,420,o),
(218,512,o),
(311,512,cs),
(364,512,o),
(408,487,o),
(432,443,cs),
(452,274,ls),
(466,208,o),
(509,167,o),
(572,167,cs),
(635,167,o),
(677,208,o),
(692,274,cs),
(712,443,ls),
(734,485,o),
(780,512,o),
(832,512,cs),
(921,512,o),
(984,421,o),
(984,290,cs),
(984,155,o),
(914,69,o),
(806,69,cs),
(785,69,o),
(765,71,o),
(751,74,c),
(751,-2,l),
(769,-8,o),
(787,-10,o),
(809,-10,cs),
(961,-10,o),
(1070,115,o),
(1070,290,cs),
(1070,460,o),
(968,590,o),
(836,590,cs),
(750,590,o),
(676,545,o),
(639,473,cs),
(619,296,ls),
(609,262,o),
(593,244,o),
(572,244,cs),
(551,244,o),
(534,262,o),
(525,296,cs),
(505,473,ls),
(468,546,o),
(392,590,o),
(306,590,cs),
(169,590,o),
(65,460,o),
(65,290,cs),
(65,115,o),
(174,-10,o),
(326,-10,cs)
);
}
);
};
layerId = m01;
shapes = (
{
closed = 1;
nodes = (
(633,167,o),
(681,209,o),
(689,278,cs),
(701,379,ls),
(711,467,o),
(755,512,o),
(829,512,cs),
(921,512,o),
(987,419,o),
(987,290,c),
(1071,290,l),
(1071,460,o),
(968,590,o),
(829,590,cs),
(711,590,o),
(640,518,o),
(626,389,cs),
(615,290,ls),
(611,255,o),
(592,238,o),
(568,238,cs),
(544,238,o),
(525,255,o),
(521,290,cs),
(510,389,ls),
(496,518,o),
(425,590,o),
(307,590,cs),
(168,590,o),
(65,460,o),
(65,290,c),
(149,290,l),
(149,419,o),
(215,512,o),
(307,512,cs),
(381,512,o),
(425,467,o),
(435,379,cs),
(447,278,ls),
(455,209,o),
(503,167,o),
(568,167,cs)
);
},
{
pos = (0,580);
ref = "_part.cap-chak";
scale = (1,-1);
},
{
angle = 180;
pos = (1136,580);
ref = "_part.cap-chak";
}
);
width = 1136;
},
{
anchors = (
{
name = bottomright;
pos = (764,0);
},
{
name = medialRa;
pos = (1023,0);
},
{
name = top;
pos = (764,600);
}
);
associatedMasterId = m01;
background = {
shapes = (
{
ref = "ma-chak";
},
{
closed = 1;
nodes = (
(913,-10,o),
(1023,117,o),
(1023,290,cs),
(1023,468,o),
(917,590,o),
(765,590,cs),
(679,590,o),
(605,549,o),
(560,482,c),
(609,401,l),
(635,472,o),
(694,515,o),
(765,515,cs),
(870,515,o),
(939,428,o),
(939,290,cs),
(939,156,o),
(868,65,o),
(764,65,cs),
(731,65,o),
(693,76,o),
(670,92,c),
(638,25,l),
(668,3,o),
(715,-10,o),
(764,-10,cs)
);
},
{
closed = 1;
nodes = (
(373,-10,o),
(420,3,o),
(450,25,c),
(418,92,l),
(395,76,o),
(357,65,o),
(324,65,cs),
(220,65,o),
(149,156,o),
(149,290,cs),
(149,428,o),
(218,515,o),
(323,515,cs),
(394,515,o),
(453,472,o),
(479,401,c),
(528,482,l),
(483,549,o),
(409,590,o),
(323,590,cs),
(171,590,o),
(65,468,o),
(65,290,cs),
(65,117,o),
(175,-10,o),
(324,-10,cs)
);
}
);
};
layerId = "C66BC7E5-0AF7-416F-BDB5-85E58B138144";
name = "18 May 22, 07:57";
shapes = (
{
closed = 1;
nodes = (
(373,-10,o),
(420,3,o),
(450,25,c),
(418,92,l),
(395,76,o),
(357,65,o),
(324,65,cs),
(220,65,o),
(149,156,o),
(149,290,cs),
(149,428,o),
(218,515,o),
(323,515,cs),
(431,515,o),
(502,428,o),
(502,290,cs),
(502,270,l),
(586,270,l),
(586,290,ls),
(586,428,o),
(657,515,o),
(765,515,cs),
(870,515,o),
(939,428,o),
(939,290,cs),
(939,156,o),
(868,65,o),
(764,65,cs),
(731,65,o),
(693,76,o),
(670,92,c),
(638,25,l),
(668,3,o),
(715,-10,o),
(764,-10,cs),
(913,-10,o),
(1023,117,o),
(1023,290,cs),
(1023,468,o),
(917,590,o),
(766,590,cs),
(615,590,o),
(510,468,o),
(510,290,c),
(578,290,l),
(578,468,o),
(473,590,o),
(322,590,cs),
(171,590,o),
(65,468,o),
(65,290,cs),
(65,117,o),
(175,-10,o),
(324,-10,cs)
);
}
);
width = 1088;
},
{
associatedMasterId = m01;
background = {
anchors = (
{
name = bottomright;
pos = (794,0);
},
{
name = medialRa;
pos = (1053,0);
},
{
name = top;
pos = (794,600);
}
);
};
layerId = "60AE8AD3-EFCF-4FD8-904D-84066FA2C50D";
name = "18 May 22, 19:33";
width = 1148;
}
);
metricLeft = "=wa-chak";
metricRight = "=|";
script = chak;
subCategory = Spacing;
unicode = 57354;
},
{
category = Letter;
glyphname = "kha-chak";
lastChange = "2023-04-23 07:29:27 +0000";
layers = (
{
anchors = (
{
name = bottom;
pos = (369,0);
},
{
name = bottomright;
pos = (369,0);
},
{
name = medialRa;
pos = (632,0);
},
{
name = top;
pos = (369,600);
}
);
background = {
anchors = (
{
name = bottomright;
pos = (366,0);
},
{
name = medialRa;
pos = (673,0);
},
{
name = top;
pos = (366,600);
}
);
shapes = (
{
closed = 1;
nodes = (
(551,-10,o),
(681,119,o),
(681,290,cs),
(681,461,o),
(551,590,o),
(375,590,cs),
(260,590,o),
(168,533,o),
(124,473,c),
(192,415,l),
(206,430,o),
(226,439,o),
(249,439,cs),
(293,439,o),
(326,407,o),
(326,361,cs),
(326,315,o),
(293,283,o),
(249,283,cs),
(226,283,o),
(206,292,o),
(192,307,c),
(145,251,l),
(172,229,o),
(208,216,o),
(249,216,cs),
(339,216,o),
(402,277,o),
(402,361,cs),
(402,445,o),
(339,506,o),
(249,506,cs),
(208,506,o),
(172,493,o),
(145,471,c),
(206,453,l),
(252,495,o),
(301,515,o),
(380,515,cs),
(504,515,o),
(597,421,o),
(597,289,cs),
(597,159,o),
(506,65,o),
(373,65,cs),
(296,65,o),
(224,96,o),
(180,151,c),
(124,94,l),
(182,29,o),
(276,-10,o),
(374,-10,cs)
);
}
);
};
layerId = m01;
shapes = (
{
closed = 1;
nodes = (
(470,-10,o),
(564,29,o),
(622,94,c),
(566,151,l),
(522,96,o),
(450,65,o),
(373,65,cs),
(240,65,o),
(149,159,o),
(149,289,cs),
(149,421,o),
(242,515,o),
(366,515,cs),
(445,515,o),
(494,495,o),
(540,453,c),
(612,471,l),
(587,493,o),
(555,506,o),
(518,506,cs),
(428,506,o),
(365,445,o),
(365,361,cs),
(365,277,o),
(425,216,o),
(510,216,cs),
(548,216,o),
(598,233,o),
(622,269,c),
(575,307,l),
(561,292,o),
(541,283,o),
(518,283,cs),
(474,283,o),
(441,315,o),
(441,361,cs),
(441,407,o),
(474,439,o),
(518,439,cs),
(541,439,o),
(561,430,o),
(575,415,c),
(622,460,l),
(588,535,o),
(486,590,o),
(371,590,cs),
(195,590,o),
(65,461,o),
(65,290,cs),
(65,119,o),
(195,-10,o),
(372,-10,cs)
);
}
);
width = 687;
},
{
anchors = (
{
name = bottomright;
pos = (366,0);
},
{
name = medialRa;
pos = (673,0);
},
{
name = top;
pos = (366,600);
}
);
associatedMasterId = m01;
background = {
shapes = (
{
closed = 1;
nodes = (
(432,176,o),
(369,237,o),
(369,321,cs),
(369,405,o),
(432,466,o),
(522,466,cs),
(612,466,o),
(675,405,o),
(675,321,cs),
(675,237,o),
(612,176,o),
(522,176,cs)
);
},
{
closed = 1;
nodes = (
(566,243,o),
(599,275,o),
(599,321,cs),
(599,367,o),
(566,399,o),
(522,399,cs),
(478,399,o),
(445,367,o),
(445,321,cs),
(445,275,o),
(478,243,o),
(522,243,cs)
);
},
{
ref = "wa-chak";
}
);
};
layerId = "2079D20E-7E53-44BA-9458-6C1D079E5AE4";
name = "18 May 22, 07:46";
shapes = (
{
closed = 1;
nodes = (
(470,-10,o),
(564,29,o),
(622,94,c),
(566,151,l),
(522,96,o),
(450,65,o),
(373,65,cs),
(240,65,o),
(149,159,o),
(149,289,cs),
(149,421,o),
(242,515,o),
(366,515,cs),
(456,515,o),
(513,475,o),
(565,413,c),
(663,316,l),
(663,404,o),
(601,466,o),
(515,466,cs),
(429,466,o),
(367,404,o),
(367,316,cs),
(367,255,o),
(399,205,o),
(454,174,c),
(494,229,l),
(461,249,o),
(443,279,o),
(443,316,cs),
(443,364,o),
(475,399,o),
(520,399,cs),
(565,399,o),
(597,364,o),
(597,316,cs),
(597,279,o),
(579,249,o),
(546,229,c),
(586,174,l),
(644,208,o),
(673,258,o),
(673,328,cs),
(673,468,o),
(542,590,o),
(371,590,cs),
(195,590,o),
(65,461,o),
(65,290,cs),
(65,119,o),
(195,-10,o),
(372,-10,cs)
);
}
);
width = 738;
}
);
metricLeft = "=wa-chak";
script = chak;
subCategory = Spacing;
unicode = 57355;
},
{
category = Letter;
glyphname = "ga-chak";
lastChange = "2023-04-23 07:29:33 +0000";
layers = (
{
associatedMasterId = m01;
background = {
shapes = (
{
closed = 1;
nodes = (
(542,-10,o),
(673,119,o),
(673,290,cs),
(673,461,o),
(542,590,o),
(369,590,cs),
(220,590,o),
(105,492,o),
(74,367,c),
(145,340,l),
(154,372,o),
(182,393,o),
(218,393,cs),
(262,393,o),
(295,361,o),
(295,315,cs),
(295,269,o),
(262,237,o),
(218,237,cs),
(190,237,o),
(159,253,o),
(145,274,c),
(97,226,l),
(126,190,o),
(169,170,o),
(220,170,cs),
(307,170,o),
(369,231,o),
(369,315,cs),
(369,399,o),
(307,460,o),
(220,460,cs),
(170,460,o),
(128,439,o),
(102,406,c),
(143,350,l),
(166,444,o),
(253,515,o),
(369,515,cs),
(497,515,o),
(589,421,o),
(589,290,cs),
(589,159,o),
(497,65,o),
(369,65,cs),
(286,65,o),
(215,97,o),
(172,151,c),
(116,94,l),
(172,31,o),
(264,-10,o),
(369,-10,cs)
);
}
);
};
layerId = "B30CF83F-D290-471B-A470-0656C8A572D7";
name = "12 Apr 22, 13:21";
shapes = (
{
closed = 1;
nodes = (
(307,170,o),
(369,231,o),
(369,315,cs),
(369,399,o),
(307,460,o),
(220,460,cs),
(158,460,o),
(97,424,o),
(74,367,c),
(145,340,l),
(154,372,o),
(182,393,o),
(218,393,cs),
(262,393,o),
(295,361,o),
(295,315,cs),
(295,269,o),
(262,237,o),
(218,237,cs),
(190,237,o),
(159,253,o),
(145,274,c),
(97,226,l),
(126,190,o),
(169,170,o),
(220,170,cs)
);
}
);
width = 738;
},
{
associatedMasterId = m01;
background = {
shapes = (
{
closed = 1;
nodes = (
(306,170,o),
(369,231,o),
(369,315,cs),
(369,399,o),
(306,460,o),
(218,460,cs),
(130,460,o),
(67,399,o),
(67,315,cs),
(67,231,o),
(130,170,o),
(218,170,cs)
);
},
{
closed = 1;
nodes = (
(174,237,o),
(141,269,o),
(141,315,cs),
(141,361,o),
(174,393,o),
(218,393,cs),
(262,393,o),
(295,361,o),
(295,315,cs),
(295,269,o),
(262,237,o),
(218,237,cs)
);
}
);
};
layerId = "7579E935-2730-465F-9479-2E748B89F1AD";
name = "12 Apr 22, 13:22";
shapes = (
{
closed = 1;
nodes = (
(307,170,o),
(369,231,o),
(369,315,cs),
(369,399,o),
(307,460,o),
(220,460,cs),
(161,460,o),
(112,434,o),
(86,386,c),
(145,348,l),
(157,375,o),
(186,393,o),
(218,393,cs),
(262,393,o),
(295,361,o),
(295,315,cs),
(295,269,o),
(262,237,o),
(218,237,cs),
(186,237,o),
(157,255,o),
(145,282,c),
(86,244,l),
(112,196,o),
(161,170,o),
(220,170,cs)
);
}
);
width = 434;
},
{
anchors = (
{
name = bottom;
pos = (318,0);
},
{
name = bottomright;
pos = (318,0);
},
{
name = medialRa;
pos = (622,0);
},
{
name = top;
pos = (318,600);
}
);
background = {
anchors = (
{
name = bottomright;
pos = (333,0);
},
{
name = medialRa;
pos = (637,0);
},
{
name = top;
pos = (333,600);
}
);
shapes = (
{
closed = 1;
nodes = (
(506,-10,o),
(637,119,o),
(637,290,cs),
(637,461,o),
(506,590,o),
(333,590,cs),
(192,590,o),
(83,512,o),
(43,402,c),
(102,364,l),
(114,391,o),
(143,409,o),
(175,409,cs),
(219,409,o),
(252,377,o),
(252,331,cs),
(252,285,o),
(219,253,o),
(175,253,cs),
(143,253,o),
(114,271,o),
(102,298,c),
(43,260,l),
(69,212,o),
(123,186,o),
(179,186,cs),
(266,186,o),
(328,247,o),
(328,331,cs),
(328,414,o),
(266,474,o),
(179,474,cs),
(127,474,o),
(77,449,o),
(53,402,c),
(126,416,l),
(163,480,o),
(239,515,o),
(333,515,cs),
(461,515,o),
(553,421,o),
(553,290,cs),
(553,159,o),
(461,65,o),
(333,65,cs),
(250,65,o),
(181,93,o),
(133,141,c),
(80,84,l),
(139,27,o),
(226,-10,o),
(333,-10,cs)
);
}
);
};
layerId = m01;
name = Regular;
shapes = (
{
pos = (687,0);
ref = "kha-chak";
scale = (-1,1);
}
);
width = 687;
},
{
anchors = (
{
name = bottomright;
pos = (369,0);
},
{
name = medialRa;
pos = (673,0);
},
{
name = top;
pos = (369,600);
}
);
associatedMasterId = m01;
background = {
shapes = (
{
closed = 1;
nodes = (
(542,-10,o),
(673,119,o),
(673,290,cs),
(673,461,o),
(542,590,o),
(369,590,cs),
(196,590,o),
(65,461,o),
(65,290,cs),
(65,119,o),
(196,-10,o),
(369,-10,cs)
);
},
{
closed = 1;
nodes = (
(241,65,o),
(149,159,o),
(149,290,cs),
(149,421,o),
(241,515,o),
(369,515,cs),
(497,515,o),
(589,421,o),
(589,290,cs),
(589,159,o),
(497,65,o),
(369,65,cs)
);
},
{
closed = 1;
nodes = (
(301,176,o),
(364,237,o),
(364,321,cs),
(364,405,o),
(301,466,o),
(211,466,cs),
(121,466,o),
(58,405,o),
(58,321,cs),
(58,237,o),
(121,176,o),
(211,176,cs)
);
},
{
closed = 1;
nodes = (
(167,243,o),
(134,275,o),
(134,321,cs),
(134,367,o),
(167,399,o),
(211,399,cs),
(255,399,o),
(288,367,o),
(288,321,cs),
(288,275,o),
(255,243,o),
(211,243,cs)
);
}
);
};
layerId = "F0828294-40EE-42D4-9BF8-B2F9F189634F";
name = "14 Apr 22, 11:15";
shapes = (
{
closed = 1;
nodes = (
(542,-10,o),
(673,119,o),
(673,290,cs),
(673,461,o),
(542,590,o),
(369,590,cs),
(228,590,o),
(117,508,o),
(79,392,c),
(138,354,l),
(150,381,o),
(179,399,o),
(211,399,cs),
(255,399,o),
(288,367,o),
(288,321,cs),
(288,275,o),
(255,243,o),
(211,243,cs),
(179,243,o),
(150,261,o),
(138,288,c),
(79,250,l),
(105,202,o),
(159,176,o),
(215,176,cs),
(302,176,o),
(364,237,o),
(364,321,cs),
(364,405,o),
(302,466,o),
(215,466,cs),
(163,466,o),
(113,440,o),
(89,392,c),
(162,406,l),
(199,474,o),
(275,515,o),
(369,515,cs),
(497,515,o),
(589,421,o),
(589,290,cs),
(589,159,o),
(497,65,o),
(369,65,cs),
(286,65,o),
(215,97,o),
(172,151,c),
(116,94,l),
(172,31,o),
(264,-10,o),
(369,-10,cs)
);
}
);
width = 738;
}
);
metricLeft = "=|kha-chak";
metricRight = "=wa-chak";
script = chak;
subCategory = Spacing;
unicode = 57356;
},
{
category = Letter;
glyphname = "gha-chak";
lastChange = "2023-04-23 07:29:37 +0000";
layers = (
{
anchors = (
{
name = bottom;
pos = (360,0);
},
{
name = bottomright;
pos = (360,0);
},
{
name = medialRa;
pos = (655,0);
},
{
name = top;
pos = (360,600);
}
);
layerId = m01;
shapes = (
{
closed = 1;
nodes = (
(517,-10,o),
(677,140,o),
(677,340,cs),
(677,486,o),
(601,590,o),
(498,590,cs),
(424,590,o),
(371,539,o),
(371,470,cs),
(371,378,o),
(468,269,o),
(636,269,cs),
(671,269,o),
(719,274,o),
(753,286,c),
(735,352,l),
(702,341,o),
(666,337,o),
(636,337,cs),
(512,337,o),
(445,403,o),
(445,468,cs),
(445,501,o),
(467,523,o),
(500,523,cs),
(564,523,o),
(599,442,o),
(599,342,cs),
(599,174,o),
(481,65,o),
(324,65,cs),
(208,65,o),
(143,115,o),
(143,199,cs),
(143,276,o),
(192,330,o),
(260,330,cs),
(296,330,o),
(318,314,o),
(318,290,cs),
(318,266,o),
(296,250,o),
(260,250,cs),
(192,250,o),
(143,308,o),
(143,391,cs),
(143,471,o),
(188,519,o),
(262,519,cs),
(281,519,o),
(297,516,o),
(313,509,c),
(337,572,l),
(321,581,o),
(290,590,o),
(254,590,cs),
(139,590,o),
(65,513,o),
(65,396,cs),
(65,279,o),
(154,185,o),
(264,185,cs),
(337,185,o),
(386,228,o),
(386,290,cs),
(386,352,o),
(337,395,o),
(264,395,cs),
(154,395,o),
(65,304,o),
(65,194,cs),
(65,69,o),
(163,-10,o),
(324,-10,cs)
);
}
);
width = 763;
},
{
associatedMasterId = m01;
layerId = "438E3D88-6A2E-4053-9636-DB17D2FCC79B";
name = "12 Apr 22, 17:28";
shapes = (
{
closed = 1;
nodes = (
(502,-10,o),
(640,96,o),
(640,337,cs),
(640,476,o),
(589,590,o),
(474,590,cs),
(406,590,o),
(356,542,o),
(356,473,cs),
(356,364,o),
(479,293,o),
(716,273,c),
(716,348,l),
(520,365,o),
(431,403,o),
(431,472,cs),
(431,505,o),
(452,520,o),
(474,520,cs),
(533,520,o),
(558,430,o),
(558,339,cs),
(558,137,o),
(459,65,o),
(325,65,cs),
(207,65,o),
(146,133,o),
(146,203,cs),
(146,270,o),
(204,326,o),
(271,326,cs),
(305,326,o),
(327,312,o),
(327,290,cs),
(327,268,o),
(305,254,o),
(271,254,cs),
(204,254,o),
(146,308,o),
(146,381,cs),
(146,443,o),
(189,515,o),
(276,515,cs),
(290,515,o),
(308,513,o),
(322,509,c),
(346,577,l),
(327,585,o),
(299,590,o),
(271,590,cs),
(151,590,o),
(65,501,o),
(65,393,cs),
(65,277,o),
(164,184,o),
(271,184,cs),
(345,184,o),
(399,229,o),
(399,290,cs),
(399,351,o),
(345,396,o),
(271,396,cs),
(164,396,o),
(65,301,o),
(65,191,cs),
(65,75,o),
(170,-10,o),
(321,-10,cs)
);
}
);
width = 731;
},
{
anchors = (
{
name = bottomright;
pos = (360,0);
},
{
name = medialRa;
pos = (655,0);
},
{
name = top;
pos = (360,600);
}
);
associatedMasterId = m01;
guides = (
{
angle = -4.8237;
pos = (731,348);
}
);
layerId = "8327455E-C7DE-4A83-AE04-ED7C29F2E739";
name = "18 May 22, 10:49";
shapes = (
{
closed = 1;
nodes = (
(530,-10,o),
(655,118,o),
(655,340,cs),
(655,494,o),
(592,590,o),
(494,590,cs),
(422,590,o),
(371,542,o),
(371,473,cs),
(371,362,o),
(489,292,o),
(731,271,c),
(731,346,l),
(529,353,o),
(443,402,o),
(443,471,cs),
(443,503,o),
(463,523,o),
(491,523,cs),
(547,523,o),
(577,450,o),
(577,342,cs),
(577,160,o),
(487,65,o),
(323,65,cs),
(208,65,o),
(143,113,o),
(143,193,cs),
(143,274,o),
(197,330,o),
(271,330,cs),
(307,330,o),
(329,314,o),
(329,290,cs),
(329,266,o),
(307,250,o),
(271,250,cs),
(197,250,o),
(143,309,o),
(143,394,cs),
(143,472,o),
(189,519,o),
(266,519,cs),
(285,519,o),
(301,516,o),
(317,509,c),
(341,572,l),
(325,581,o),
(294,590,o),
(258,590,cs),
(141,590,o),
(65,517,o),
(65,405,cs),
(65,283,o),
(158,185,o),
(272,185,cs),
(347,185,o),
(397,228,o),
(397,290,cs),
(397,352,o),
(347,395,o),
(272,395,cs),
(158,395,o),
(65,298,o),
(65,180,cs),
(65,64,o),
(162,-10,o),
(321,-10,cs)
);
}
);
width = 751;
}
);
metricLeft = "=wa-chak";
script = chak;
subCategory = Spacing;
unicode = 57357;
},
{
category = Letter;
glyphname = "nga-chak";
lastChange = "2023-04-23 07:29:41 +0000";
layers = (
{
anchors = (
{
name = bottom;
pos = (366,0);
},
{
name = bottomright;
pos = (366,0);
},
{
name = medialRa;
pos = (632,0);
},
{
name = top;
pos = (366,600);
}
);
background = {
shapes = (
{
ref = "wa-chak";
}
);
};
layerId = m01;
shapes = (
{
closed = 1;
nodes = (
(470,-10,o),
(564,29,o),
(622,94,c),
(566,151,l),
(523,97,o),
(451,65,o),
(373,65,cs),
(242,65,o),
(149,158,o),
(149,289,cs),
(149,421,o),
(241,515,o),
(369,515,cs),
(474,515,o),
(555,452,o),
(555,374,cs),
(555,313,o),
(502,268,o),
(440,268,cs),
(400,268,o),
(371,287,o),
(371,318,cs),
(371,354,o),
(414,378,o),
(495,378,cs),
(555,378,o),
(647,358,o),
(714,329,c),
(732,395,l),
(657,424,o),
(547,443,o),
(491,443,cs),
(373,443,o),
(295,388,o),
(295,314,cs),
(295,242,o),
(357,201,o),
(436,201,cs),
(543,201,o),
(631,277,o),
(631,380,cs),
(631,498,o),
(518,590,o),
(369,590,cs),
(195,590,o),
(65,462,o),
(65,290,cs),
(65,118,o),
(196,-10,o),
(372,-10,cs)
);
}
);
width = 752;
},
{
anchors = (
{
name = bottomright;
pos = (366,0);
},
{
name = medialRa;
pos = (673,0);
},
{
name = top;
pos = (366,600);
}
);
associatedMasterId = m01;
background = {
shapes = (
{
closed = 1;
nodes = (
(432,176,o),
(369,237,o),
(369,321,cs),
(369,405,o),
(432,466,o),
(522,466,cs),
(612,466,o),
(675,405,o),
(675,321,cs),
(675,237,o),
(612,176,o),
(522,176,cs)
);
},
{
closed = 1;
nodes = (
(566,243,o),
(599,275,o),
(599,321,cs),
(599,367,o),
(566,399,o),
(522,399,cs),
(478,399,o),
(445,367,o),
(445,321,cs),
(445,275,o),
(478,243,o),
(522,243,cs)
);
},
{
ref = "wa-chak";
}
);
};
layerId = "BB28E6C5-AC5A-4774-8541-FC678C33858D";
name = "13 Apr 22, 22:11";
shapes = (
{
closed = 1;
nodes = (
(470,-10,o),
(564,29,o),
(622,94,c),
(566,151,l),
(523,97,o),
(451,65,o),
(373,65,cs),
(242,65,o),
(149,158,o),
(149,289,cs),
(149,420,o),
(241,515,o),
(366,515,cs),
(494,515,o),
(597,460,o),
(597,391,cs),
(597,349,o),
(569,318,o),
(530,318,cs),
(491,318,o),
(463,347,o),
(463,386,cs),
(463,428,o),
(499,458,o),
(549,458,cs),
(630,458,o),
(684,450,o),
(729,431,c),
(745,498,l),
(685,518,o),
(624,527,o),
(549,527,cs),
(455,527,o),
(387,468,o),
(387,386,cs),
(387,307,o),
(447,251,o),
(530,251,cs),
(615,251,o),
(673,310,o),
(673,394,cs),
(673,510,o),
(552,590,o),
(371,590,cs),
(196,590,o),
(65,462,o),
(65,290,cs),
(65,118,o),
(196,-10,o),
(372,-10,cs)
);
}
);
width = 760;
},
{
anchors = (
{
name = bottomright;
pos = (366,0);
},
{
name = medialRa;
pos = (673,0);
},
{
name = top;
pos = (366,600);
}
);
associatedMasterId = m01;
background = {
shapes = (
{
closed = 1;
nodes = (
(432,176,o),
(369,237,o),
(369,321,cs),
(369,405,o),
(432,466,o),
(522,466,cs),
(612,466,o),
(675,405,o),
(675,321,cs),
(675,237,o),
(612,176,o),
(522,176,cs)
);
},
{
closed = 1;
nodes = (
(566,243,o),
(599,275,o),
(599,321,cs),
(599,367,o),
(566,399,o),
(522,399,cs),
(478,399,o),
(445,367,o),
(445,321,cs),
(445,275,o),
(478,243,o),
(522,243,cs)
);
},
{
ref = "wa-chak";
}
);
};
layerId = "FD39B610-D1E9-42DD-AD9F-02BC2023F6A2";
name = "18 May 22, 08:27";
shapes = (
{
closed = 1;
nodes = (
(470,-10,o),
(564,29,o),
(622,94,c),
(566,151,l),
(523,97,o),
(451,65,o),
(373,65,cs),
(242,65,o),
(149,158,o),
(149,289,cs),
(149,420,o),
(241,515,o),
(371,515,cs),
(494,515,o),
(597,480,o),
(597,392,cs),
(597,349,o),
(569,318,o),
(530,318,cs),
(491,318,o),
(463,347,o),
(463,386,cs),
(463,427,o),
(494,458,o),
(574,458,cs),
(628,458,o),
(704,444,o),
(754,418,c),
(778,484,l),
(712,513,o),
(630,527,o),
(572,527,cs),
(453,527,o),
(387,468,o),
(387,386,cs),
(387,307,o),
(447,251,o),
(530,251,cs),
(615,251,o),
(673,310,o),
(673,395,cs),
(673,510,o),
(552,590,o),
(371,590,cs),
(196,590,o),
(65,462,o),
(65,290,cs),
(65,118,o),
(196,-10,o),
(372,-10,cs)
);
}
);
width = 783;
},
{
anchors = (
{
name = bottomright;
pos = (366,0);
},
{
name = medialRa;
pos = (673,0);
},
{
name = top;
pos = (366,600);
}
);
associatedMasterId = m01;
background = {
shapes = (
{
closed = 1;
nodes = (
(432,176,o),
(369,237,o),
(369,321,cs),
(369,405,o),
(432,466,o),
(522,466,cs),
(612,466,o),
(675,405,o),
(675,321,cs),
(675,237,o),
(612,176,o),
(522,176,cs)
);
},
{
closed = 1;
nodes = (
(566,243,o),
(599,275,o),
(599,321,cs),
(599,367,o),
(566,399,o),
(522,399,cs),
(478,399,o),
(445,367,o),
(445,321,cs),
(445,275,o),
(478,243,o),
(522,243,cs)
);
},
{
ref = "wa-chak";
}
);
};
layerId = "50C9DE68-2D0A-482D-BBAF-8EA6352FADE6";
name = "18 May 22, 10:32";
shapes = (
{
closed = 1;
nodes = (
(470,-10,o),
(564,29,o),
(622,94,c),
(566,151,l),
(523,97,o),
(451,65,o),
(373,65,cs),
(242,65,o),
(149,158,o),
(149,289,cs),
(149,420,o),
(241,515,o),
(371,515,cs),
(494,515,o),
(597,480,o),
(597,392,cs),
(597,349,o),
(569,318,o),
(530,318,cs),
(491,318,o),
(463,347,o),
(463,386,cs),
(463,427,o),
(494,458,o),
(574,458,cs),
(628,458,o),
(704,444,o),
(754,418,c),
(778,484,l),
(712,513,o),
(630,527,o),
(572,527,cs),
(453,527,o),
(387,468,o),
(387,386,cs),
(387,307,o),
(447,251,o),
(530,251,cs),
(615,251,o),
(673,310,o),
(673,395,cs),
(673,510,o),
(552,590,o),
(371,590,cs),
(196,590,o),
(65,462,o),
(65,290,cs),
(65,118,o),
(196,-10,o),
(372,-10,cs)
);
}
);
width = 783;
},
{
anchors = (
{
name = bottomright;
pos = (366,0);
},
{
name = medialRa;
pos = (673,0);
},
{
name = top;
pos = (366,600);
}
);
associatedMasterId = m01;
background = {
shapes = (
{
ref = "wa-chak";
}
);
};
layerId = "04120C88-F86C-47C1-9B8B-AF688255CDBE";
name = "18 May 22, 10:38";
shapes = (
{
closed = 1;
nodes = (
(470,-10,o),
(564,29,o),
(622,94,c),
(566,151,l),
(523,97,o),
(451,65,o),
(373,65,cs),
(242,65,o),
(149,158,o),
(149,289,cs),
(149,421,o),
(241,515,o),
(369,515,cs),
(479,515,o),
(555,458,o),
(555,375,cs),
(555,318,o),
(513,278,o),
(458,278,cs),
(424,278,o),
(401,296,o),
(401,324,cs),
(401,354,o),
(430,374,o),
(473,374,cs),
(732,374,l),
(732,443,l),
(471,443,ls),
(385,443,o),
(325,391,o),
(325,320,cs),
(325,259,o),
(383,211,o),
(458,211,cs),
(555,211,o),
(631,282,o),
(631,378,cs),
(631,498,o),
(518,590,o),
(369,590,cs),
(195,590,o),
(65,462,o),
(65,290,cs),
(65,118,o),
(196,-10,o),
(372,-10,cs)
);
}
);
width = 783;
}
);
metricLeft = "=wa-chak";
script = chak;
subCategory = Spacing;
unicode = 57358;
},
{
category = Letter;
glyphname = "ca-chak";
lastChange = "2023-04-23 07:30:05 +0000";
layers = (
{
anchors = (
{
name = bottom;
pos = (428,0);
},
{
name = bottomright;
pos = (508,0);
},
{
name = medialRa;
pos = (791,0);
},
{
name = top;
pos = (508,600);
}
);
background = {
anchors = (
{
name = bottomright;
pos = (535,0);
},
{
name = medialRa;
pos = (833,0);
},
{
name = top;
pos = (535,600);
}
);
shapes = (
{
closed = 1;
nodes = (
(197,65,l),
(149,65,o),
(114,97,o),
(114,162,cs),
(114,331,o),
(333,515,o),
(535,515,cs),
(678,515,o),
(749,424,o),
(749,290,cs),
(749,156,o),
(678,65,o),
(535,65,cs),
(333,65,o),
(114,249,o),
(114,418,cs),
(114,483,o),
(149,515,o),
(197,515,c),
(195,590,l),
(101,590,o),
(30,525,o),
(30,418,cs),
(30,214,o),
(294,-10,o),
(535,-10,cs),
(723,-10,o),
(833,117,o),
(833,290,cs),
(833,463,o),
(723,590,o),
(535,590,cs),
(294,590,o),
(30,366,o),
(30,162,cs),
(30,55,o),
(101,-10,o),
(195,-10,c)
);
}
);
};
layerId = m01;
shapes = (
{
closed = 1;
nodes = (
(142,-3,l),
(199,297,o),
(320,515,o),
(507,515,cs),
(625,515,o),
(707,427,o),
(707,290,cs),
(707,153,o),
(625,65,o),
(507,65,cs),
(320,65,o),
(199,283,o),
(142,583,c),
(65,571,l),
(123,237,o),
(280,-10,o),
(507,-10,cs),
(666,-10,o),
(791,117,o),
(791,290,cs),
(791,463,o),
(666,590,o),
(507,590,cs),
(285,590,o),
(123,343,o),
(65,9,c)
);
}
);
width = 856;
},
{
associatedMasterId = m01;
layerId = "53A07CA9-8DBD-4E14-8111-995225C1E720";
name = "12 Apr 22, 16:42";
shapes = (
{
closed = 1;
nodes = (
(195,16,l),
(168,51,o),
(152,104,o),
(152,158,cs),
(152,362,o),
(292,515,o),
(477,515,cs),
(610,515,o),
(695,427,o),
(695,290,cs),
(695,153,o),
(609,65,o),
(477,65,cs),
(286,65,o),
(152,214,o),
(152,426,cs),
(152,479,o),
(168,531,o),
(195,568,c),
(134,623,l),
(96,574,o),
(75,506,o),
(75,434,cs),
(75,177,o),
(244,-9,o),
(477,-9,cs),
(651,-9,o),
(779,117,o),
(779,290,cs),
(779,463,o),
(652,590,o),
(477,590,cs),
(248,590,o),
(75,401,o),
(75,150,cs),
(75,77,o),
(96,9,o),
(134,-39,c)
);
}
);
width = 844;
}
);
metricRight = "=wa-chak";
script = chak;
subCategory = Spacing;
unicode = 57359;
},
{
category = Letter;
glyphname = "cha-chak";
lastChange = "2023-04-23 07:30:12 +0000";
layers = (
{
anchors = (
{
name = bottom;
pos = (674,0);
},
{
name = bottomright;
pos = (979,0);
},
{
name = medialRa;
pos = (1283,0);
},
{
name = top;
pos = (979,600);
}
);
background = {
anchors = (
{
name = bottomright;
pos = (989,0);
},
{
name = medialRa;
pos = (1293,0);
},
{
name = top;
pos = (989,600);
}
);
shapes = (
{
closed = 1;
nodes = (
(1162,-10,o),
(1293,119,o),
(1293,290,cs),
(1293,461,o),
(1162,590,o),
(990,590,cs),
(818,590,o),
(687,461,o),
(687,290,cs),
(687,119,o),
(818,-10,o),
(990,-10,cs)
);
},
{
closed = 1;
nodes = (
(861,65,o),
(769,159,o),
(769,290,cs),
(769,421,o),
(861,515,o),
(989,515,cs),
(1117,515,o),
(1209,421,o),
(1209,290,cs),
(1209,159,o),
(1117,65,o),
(989,65,cs)
);
},
{
closed = 1;
nodes = (
(142,-1,l),
(197,294,o),
(314,515,o),
(497,515,cs),
(612,515,o),
(685,427,o),
(685,290,cs),
(685,153,o),
(611,65,o),
(497,65,cs),
(309,65,o),
(197,280,o),
(142,585,c),
(65,573,l),
(121,235,o),
(267,-9,o),
(496,-9,cs),
(652,-9,o),
(767,117,o),
(767,290,cs),
(767,463,o),
(653,590,o),
(496,590,cs),
(270,590,o),
(121,341,o),
(65,11,c)
);
}
);
};
layerId = m01;
shapes = (
{
closed = 1;
nodes = (
(142,-3,l),
(196,297,o),
(313,515,o),
(491,515,cs),
(600,515,o),
(675,427,o),
(675,290,cs),
(675,153,o),
(600,65,o),
(491,65,cs),
(313,65,o),
(196,283,o),
(142,583,c),
(65,571,l),
(121,237,o),
(275,-10,o),
(491,-10,cs),
(640,-10,o),
(757,117,o),
(757,290,cs),
(757,463,o),
(640,590,o),
(491,590,cs),
(275,590,o),
(121,343,o),
(65,9,c)
);
},
{
closed = 1;
nodes = (
(1152,-10,o),
(1283,119,o),
(1283,290,cs),
(1283,461,o),
(1152,590,o),
(980,590,cs),
(808,590,o),
(677,461,o),
(677,290,cs),
(677,119,o),
(808,-10,o),
(980,-10,cs)
);
},
{
closed = 1;
nodes = (
(851,65,o),
(759,159,o),
(759,290,cs),
(759,421,o),
(851,515,o),
(979,515,cs),
(1107,515,o),
(1199,421,o),
(1199,290,cs),
(1199,159,o),
(1107,65,o),
(979,65,cs)
);
}
);
width = 1348;
},
{
associatedMasterId = m01;
layerId = "B22A412D-85A4-43C0-BF04-7EF59B78BDB6";
name = "12 Apr 22, 16:43";
shapes = (
{
closed = 1;
nodes = (
(1172,-10,o),
(1303,119,o),
(1303,290,cs),
(1303,461,o),
(1172,590,o),
(1000,590,cs),
(828,590,o),
(697,461,o),
(697,290,cs),
(697,119,o),
(828,-10,o),
(1000,-10,cs)
);
},
{
closed = 1;
nodes = (
(871,65,o),
(779,159,o),
(779,290,cs),
(779,421,o),
(871,515,o),
(999,515,cs),
(1127,515,o),
(1219,421,o),
(1219,290,cs),
(1219,159,o),
(1127,65,o),
(999,65,cs)
);
},
{
closed = 1;
nodes = (
(195,16,l),
(168,51,o),
(152,104,o),
(152,158,cs),
(152,362,o),
(292,515,o),
(477,515,cs),
(610,515,o),
(695,427,o),
(695,290,cs),
(695,153,o),
(609,65,o),
(477,65,cs),
(286,65,o),
(152,214,o),
(152,426,cs),
(152,479,o),
(168,531,o),
(195,568,c),
(134,623,l),
(96,574,o),
(75,506,o),
(75,434,cs),
(75,177,o),
(244,-9,o),
(476,-9,cs),
(650,-9,o),
(777,117,o),
(777,290,cs),
(777,463,o),
(651,590,o),
(476,590,cs),
(248,590,o),
(75,401,o),
(75,150,cs),
(75,77,o),
(96,9,o),
(134,-39,c)
);
}
);
width = 1368;
}
);
metricLeft = "=ca-chak";
metricRight = "=wa-chak";
script = chak;
subCategory = Spacing;
unicode = 57360;
},
{
category = Letter;
glyphname = "ja-chak";
lastChange = "2023-04-23 07:30:18 +0000";
layers = (
{
anchors = (
{
name = bottom;
pos = (367,0);
},
{
name = bottomright;
pos = (367,0);
},
{
name = medialRa;
pos = (639,0);
},
{
name = top;
pos = (367,600);
}
);
background = {
shapes = (
{
ref = "wa-chak";
}
);
};
layerId = m01;
shapes = (
{
closed = 1;
nodes = (
(502,-10,o),
(594,62,o),
(620,157,c),
(591,222,l),
(550,122,o),
(472,65,o),
(371,65,cs),
(240,65,o),
(147,159,o),
(147,290,cs),
(147,421,o),
(239,515,o),
(367,515,cs),
(443,515,o),
(506,482,o),
(544,429,c),
(607,478,l),
(553,547,o),
(467,590,o),
(367,590,cs),
(195,590,o),
(65,461,o),
(65,290,cs),
(65,119,o),
(194,-10,o),
(367,-10,cs)
);
},
{
closed = 1;
nodes = (
(717,-60,l),
(717,11,l),
(633,11,l),
(633,327,l),
(371,327,l),
(371,256,l),
(553,256,l),
(553,-60,l)
);
}
);
width = 715;
},
{
anchors = (
{
name = bottomright;
pos = (367,0);
},
{
name = top;
pos = (367,600);
}
);
associatedMasterId = m01;
layerId = "784BC6B1-3023-4609-B3EA-9B9B82B43F05";
name = "13 Apr 22, 10:39";
shapes = (
{
closed = 1;
nodes = (
(439,-10,o),
(520,62,o),
(520,158,cs),
(520,249,o),
(450,317,o),
(357,317,c),
(357,265,l),
(493,265,ls),
(567,265,o),
(579,229,o),
(617,0,c),
(697,0,l),
(653,259,o),
(639,327,o),
(493,327,cs),
(342,327,l),
(342,255,l),
(401,255,o),
(446,213,o),
(446,158,cs),
(446,105,o),
(399,65,o),
(338,65,cs),
(226,65,o),
(147,159,o),
(147,290,cs),
(147,421,o),
(239,515,o),
(367,515,cs),
(443,515,o),
(506,482,o),
(544,429,c),
(607,478,l),
(553,547,o),
(467,590,o),
(367,590,cs),
(195,590,o),
(65,461,o),
(65,290,cs),
(65,119,o),
(180,-10,o),
(334,-10,cs)
);
}
);
width = 722;
},
{
anchors = (
{
name = bottomright;
pos = (367,0);
},
{
name = medialRa;
pos = (643,0);
},
{
name = top;
pos = (367,600);
}
);
associatedMasterId = m01;
layerId = "DB6FB1F8-0E12-4205-905A-668018C218B9";
name = "18 May 22, 08:27";
shapes = (
{
closed = 1;
nodes = (
(416,-10,o),
(490,58,o),
(490,147,cs),
(490,238,o),
(420,307,o),
(327,307,c),
(327,260,l),
(557,260,l),
(557,0,l),
(633,0,l),
(633,327,l),
(312,327,l),
(312,255,l),
(372,255,o),
(416,214,o),
(416,158,cs),
(416,104,o),
(376,65,o),
(321,65,cs),
(219,65,o),
(147,159,o),
(147,290,cs),
(147,421,o),
(239,515,o),
(367,515,cs),
(443,515,o),
(506,482,o),
(544,429,c),
(607,478,l),
(553,547,o),
(467,590,o),
(367,590,cs),
(195,590,o),
(65,461,o),
(65,290,cs),
(65,119,o),
(173,-10,o),
(317,-10,cs)
);
}
);
width = 715;
}
);
metricLeft = "=wa-chak";
script = chak;
subCategory = Spacing;
unicode = 57361;
},
{
category = Letter;
glyphname = "jha-chak";
lastChange = "2023-04-23 07:30:22 +0000";
layers = (
{
anchors = (
{
name = bottom;
pos = (569,0);
},
{
name = bottomright;
pos = (783,0);
},
{
name = medialRa;
pos = (1083,0);
},
{
name = top;
pos = (783,600);
}
);
background = {
shapes = (
{
closed = 1;
nodes = (
(292,-10,o),
(337,46,o),
(337,140,cs),
(337,278,o),
(236,470,o),
(6,590,c),
(-33,526,l),
(186,404,o),
(255,257,o),
(255,140,cs),
(255,86,o),
(243,65,o),
(216,65,cs),
(167,65,o),
(129,154,o),
(129,244,cs),
(129,404,o),
(223,515,o),
(359,515,cs),
(495,515,o),
(589,404,o),
(589,244,cs),
(589,154,o),
(551,65,o),
(502,65,cs),
(475,65,o),
(463,86,o),
(463,140,cs),
(463,258,o),
(531,403,o),
(751,526,c),
(712,590,l),
(482,470,o),
(381,278,o),
(381,140,cs),
(381,46,o),
(426,-10,o),
(496,-10,cs),
(601,-10,o),
(673,109,o),
(673,245,cs),
(673,443,o),
(541,590,o),
(359,590,cs),
(177,590,o),
(45,443,o),
(45,245,cs),
(45,109,o),
(117,-10,o),
(222,-10,cs)
);
}
);
};
layerId = m01;
shapes = (
{
closed = 1;
nodes = (
(283,60,l),
(201,97,o),
(149,179,o),
(149,284,cs),
(149,418,o),
(241,515,o),
(369,515,cs),
(499,515,o),
(589,411,o),
(589,260,cs),
(589,159,o),
(548,65,o),
(495,65,cs),
(464,65,o),
(446,96,o),
(446,147,cs),
(446,272,o),
(556,421,o),
(793,525,c),
(644,513,l),
(743,513,l),
(743,152,ls),
(743,38,o),
(828,-10,o),
(908,-10,cs),
(988,-10,o),
(1073,38,o),
(1073,152,cs),
(1073,580,l),
(993,580,l),
(993,156,ls),
(993,84,o),
(949,60,o),
(908,60,cs),
(867,60,o),
(823,84,o),
(823,156,cs),
(823,569,l),
(750,585,l),
(501,491,o),
(364,297,o),
(364,147,cs),
(364,53,o),
(417,-10,o),
(487,-10,cs),
(594,-10,o),
(673,114,o),
(673,261,cs),
(673,450,o),
(545,590,o),
(369,590,cs),
(196,590,o),
(65,458,o),
(65,284,cs),
(65,149,o),
(137,38,o),
(245,-10,c)
);
}
);
width = 1148;
},
{
anchors = (
{
name = bottomright;
pos = (783,0);
},
{
name = medialRa;
pos = (1073,0);
},
{
name = top;
pos = (783,600);
}
);
associatedMasterId = m01;
background = {
shapes = (
{
closed = 1;
nodes = (
(596,-10,o),
(673,114,o),
(673,261,cs),
(673,450,o),
(544,590,o),
(367,590,cs),
(195,590,o),
(65,461,o),
(65,290,cs),
(65,152,o),
(137,39,o),
(245,-10,c),
(277,59,l),
(199,97,o),
(149,182,o),
(149,290,cs),
(149,421,o),
(240,515,o),
(367,515,cs),
(498,515,o),
(589,411,o),
(589,260,cs),
(589,159,o),
(546,65,o),
(496,65,cs),
(470,65,o),
(455,94,o),
(455,132,cs),
(455,263,o),
(545,370,o),
(729,538,c),
(673,590,l),
(479,410,o),
(373,284,o),
(373,133,cs),
(373,49,o),
(423,-10,o),
(496,-10,cs)
);
},
{
closed = 1;
nodes = (
(827,580,l),
(743,580,l),
(743,117,ls),
(743,33,o),
(828,-10,o),
(910,-10,cs),
(992,-10,o),
(1077,33,o),
(1077,117,cs),
(1077,580,l),
(993,580,l),
(993,125,ls),
(993,78,o),
(950,60,o),
(910,60,cs),
(870,60,o),
(827,78,o),
(827,125,cs)
);
}
);
};
layerId = "4263C197-58A8-4AD6-8839-E2312976BEDB";
name = "18 May 22, 11:47";
shapes = (
{
closed = 1;
nodes = (
(283,60,l),
(201,97,o),
(149,179,o),
(149,284,cs),
(149,418,o),
(241,515,o),
(369,515,cs),
(499,515,o),
(589,411,o),
(589,260,cs),
(589,159,o),
(541,65,o),
(491,65,cs),
(465,65,o),
(450,94,o),
(450,137,cs),
(450,271,o),
(556,400,o),
(793,569,c),
(644,513,l),
(743,513,l),
(743,152,ls),
(743,38,o),
(828,-10,o),
(908,-10,cs),
(988,-10,o),
(1073,38,o),
(1073,152,cs),
(1073,580,l),
(993,580,l),
(993,156,ls),
(993,84,o),
(949,60,o),
(908,60,cs),
(867,60,o),
(823,84,o),
(823,156,cs),
(823,580,l),
(692,580,l),
(475,428,o),
(368,281,o),
(368,138,cs),
(368,49,o),
(418,-10,o),
(491,-10,cs),
(591,-10,o),
(673,114,o),
(673,261,cs),
(673,450,o),
(545,590,o),
(369,590,cs),
(196,590,o),
(65,458,o),
(65,284,cs),
(65,149,o),
(137,38,o),
(245,-10,c)
);
}
);
width = 1153;
}
);
metricLeft = "=wa-chak";
script = chak;
subCategory = Spacing;
unicode = 57362;
},
{
category = Letter;
glyphname = "nnya-chak";
lastChange = "2023-04-23 07:30:26 +0000";
layers = (
{
anchors = (
{
name = bottom;
pos = (476,0);
},
{
name = bottomright;
pos = (639,0);
},
{
name = medialRa;
pos = (926,0);
},
{
name = top;
pos = (639,600);
}
);
background = {
anchors = (
{
name = bottomright;
pos = (639,0);
},
{
name = medialRa;
pos = (926,0);
},
{
name = top;
pos = (639,600);
}
);
shapes = (
{
closed = 1;
nodes = (
(817,-10,o),
(926,69,o),
(926,184,cs),
(926,301,o),
(821,395,o),
(692,395,cs),
(604,395,o),
(542,352,o),
(542,290,cs),
(542,228,o),
(604,185,o),
(692,185,cs),
(821,185,o),
(926,279,o),
(926,396,cs),
(926,511,o),
(817,590,o),
(666,590,cs),
(485,590,o),
(351,462,o),
(351,290,cs),
(351,118,o),
(485,-10,o),
(666,-10,cs)
);
},
{
closed = 1;
nodes = (
(301,-10,o),
(431,119,o),
(431,290,cs),
(431,461,o),
(301,590,o),
(129,590,cs),
(32,590,o),
(-55,549,o),
(-111,478,c),
(-48,429,l),
(-9,484,o),
(55,515,o),
(129,515,cs),
(257,515,o),
(349,421,o),
(349,290,cs),
(349,159,o),
(257,65,o),
(129,65,cs),
(55,65,o),
(-9,96,o),
(-48,151,c),
(-111,102,l),
(-55,31,o),
(32,-10,o),
(129,-10,cs)
);
},
{
closed = 1;
nodes = (
(528,65,o),
(433,158,o),
(433,290,cs),
(433,422,o),
(528,515,o),
(665,515,cs),
(770,515,o),
(846,462,o),
(846,384,cs),
(846,307,o),
(782,252,o),
(691,252,cs),
(642,252,o),
(610,267,o),
(610,290,cs),
(610,313,o),
(642,328,o),
(691,328,cs),
(782,328,o),
(846,273,o),
(846,196,cs),
(846,118,o),
(770,65,o),
(665,65,cs)
);
}
);
};
layerId = m01;
shapes = (
{
closed = 1;
nodes = (
(817,-10,o),
(926,69,o),
(926,186,cs),
(926,301,o),
(821,395,o),
(692,395,cs),
(604,395,o),
(542,352,o),
(542,290,cs),
(542,228,o),
(604,185,o),
(692,185,cs),
(821,185,o),
(926,279,o),
(926,394,cs),
(926,511,o),
(817,590,o),
(672,590,cs),
(486,590,o),
(351,462,o),
(351,290,cs),
(351,118,o),
(486,-10,o),
(672,-10,cs)
);
},
{
closed = 1;
nodes = (
(330,-10,o),
(431,112,o),
(431,290,cs),
(431,468,o),
(330,590,o),
(186,590,cs),
(123,590,o),
(63,568,o),
(25,520,c),
(80,471,l),
(109,500,o),
(146,515,o),
(190,515,cs),
(286,515,o),
(349,428,o),
(349,290,cs),
(349,152,o),
(286,65,o),
(190,65,cs),
(147,65,o),
(109,80,o),
(80,109,c),
(25,60,l),
(63,12,o),
(123,-10,o),
(186,-10,cs)
);
},
{
closed = 1;
nodes = (
(529,65,o),
(433,158,o),
(433,290,cs),
(433,422,o),
(529,515,o),
(671,515,cs),
(770,515,o),
(846,464,o),
(846,389,cs),
(846,309,o),
(782,252,o),
(691,252,cs),
(642,252,o),
(610,267,o),
(610,290,cs),
(610,313,o),
(642,328,o),
(691,328,cs),
(782,328,o),
(846,271,o),
(846,191,cs),
(846,116,o),
(770,65,o),
(671,65,cs)
);
}
);
width = 991;
},
{
anchors = (
{
name = bottomright;
pos = (775,0);
},
{
name = medialRa;
pos = (1062,0);
},
{
name = top;
pos = (775,600);
}
);
associatedMasterId = m01;
background = {
shapes = (
{
angle = 180;
pos = (634,580);
ref = "_part.cap-chak";
},
{
pos = (634,0);
ref = "_part.cap-chak";
scale = (-1,1);
},
{
closed = 1;
nodes = (
(953,-10,o),
(1062,69,o),
(1062,184,cs),
(1062,301,o),
(957,395,o),
(828,395,cs),
(740,395,o),
(678,352,o),
(678,290,cs),
(678,228,o),
(740,185,o),
(828,185,cs),
(957,185,o),
(1062,279,o),
(1062,396,cs),
(1062,511,o),
(953,590,o),
(802,590,cs),
(621,590,o),
(487,462,o),
(487,290,cs),
(487,118,o),
(621,-10,o),
(802,-10,cs)
);
},
{
closed = 1;
nodes = (
(664,65,o),
(569,158,o),
(569,290,cs),
(569,422,o),
(664,515,o),
(801,515,cs),
(906,515,o),
(982,462,o),
(982,384,cs),
(982,307,o),
(918,252,o),
(827,252,cs),
(778,252,o),
(746,267,o),
(746,290,cs),
(746,313,o),
(778,328,o),
(827,328,cs),
(918,328,o),
(982,273,o),
(982,196,cs),
(982,118,o),
(906,65,o),
(801,65,cs)
);
}
);
};
layerId = "6B735EBA-A25C-47A8-A31B-B12752A7A362";
name = "18 May 22, 11:57";
shapes = (
{
closed = 1;
nodes = (
(953,-10,o),
(1062,69,o),
(1062,184,cs),
(1062,301,o),
(957,395,o),
(828,395,cs),
(740,395,o),
(678,352,o),
(678,290,cs),
(678,228,o),
(740,185,o),
(828,185,cs),
(957,185,o),
(1062,279,o),
(1062,396,cs),
(1062,511,o),
(953,590,o),
(802,590,cs),
(621,590,o),
(487,462,o),
(487,290,cs),
(487,118,o),
(621,-10,o),
(802,-10,cs)
);
},
{
closed = 1;
nodes = (
(437,-10,o),
(567,119,o),
(567,290,cs),
(567,461,o),
(437,590,o),
(265,590,cs),
(168,590,o),
(81,549,o),
(25,478,c),
(88,429,l),
(127,484,o),
(191,515,o),
(265,515,cs),
(393,515,o),
(485,421,o),
(485,290,cs),
(485,159,o),
(393,65,o),
(265,65,cs),
(191,65,o),
(127,96,o),
(88,151,c),
(25,102,l),
(81,31,o),
(168,-10,o),
(265,-10,cs)
);
},
{
closed = 1;
nodes = (
(664,65,o),
(569,158,o),
(569,290,cs),
(569,422,o),
(664,515,o),
(801,515,cs),
(906,515,o),
(982,462,o),
(982,384,cs),
(982,307,o),
(918,252,o),
(827,252,cs),
(778,252,o),
(746,267,o),
(746,290,cs),
(746,313,o),
(778,328,o),
(827,328,cs),
(918,328,o),
(982,273,o),
(982,196,cs),
(982,118,o),
(906,65,o),
(801,65,cs)
);
}
);
width = 1127;
},
{
anchors = (
{
name = bottomright;
pos = (775,0);
},
{
name = medialRa;
pos = (1062,0);
},
{
name = top;
pos = (775,600);
}
);
associatedMasterId = m01;
background = {
shapes = (
{
closed = 1;
nodes = (
(67,468,o),
(170,590,o),
(318,590,cs),
(466,590,o),
(569,468,o),
(569,290,cs),
(569,112,o),
(466,-10,o),
(318,-10,cs),
(170,-10,o),
(67,112,o),
(67,290,cs)
);
},
{
closed = 1;
nodes = (
(485,428,o),
(419,515,o),
(318,515,cs),
(217,515,o),
(151,428,o),
(151,290,cs),
(151,152,o),
(217,65,o),
(318,65,cs),
(419,65,o),
(485,152,o),
(485,290,cs)
);
}
);
};
layerId = "9C7C9AB7-4DE7-45E9-B79F-5D3F3040D7F7";
name = "18 May 22, 11:58";
shapes = (
{
closed = 1;
nodes = (
(953,-10,o),
(1062,69,o),
(1062,184,cs),
(1062,301,o),
(957,395,o),
(828,395,cs),
(740,395,o),
(678,352,o),
(678,290,cs),
(678,228,o),
(740,185,o),
(828,185,cs),
(957,185,o),
(1062,279,o),
(1062,396,cs),
(1062,511,o),
(953,590,o),
(802,590,cs),
(621,590,o),
(487,462,o),
(487,290,cs),
(487,118,o),
(621,-10,o),
(802,-10,cs)
);
},
{
closed = 1;
nodes = (
(437,-10,o),
(567,119,o),
(567,290,cs),
(567,461,o),
(437,590,o),
(265,590,cs),
(168,590,o),
(81,549,o),
(25,478,c),
(88,429,l),
(127,484,o),
(191,515,o),
(265,515,cs),
(393,515,o),
(485,421,o),
(485,290,cs),
(485,159,o),
(393,65,o),
(265,65,cs),
(191,65,o),
(127,96,o),
(88,151,c),
(25,102,l),
(81,31,o),
(168,-10,o),
(265,-10,cs)
);
},
{
closed = 1;
nodes = (
(664,65,o),
(569,158,o),
(569,290,cs),
(569,422,o),
(664,515,o),
(801,515,cs),
(906,515,o),
(982,462,o),
(982,384,cs),
(982,307,o),
(918,252,o),
(827,252,cs),
(778,252,o),
(746,267,o),
(746,290,cs),
(746,313,o),
(778,328,o),
(827,328,cs),
(918,328,o),
(982,273,o),
(982,196,cs),
(982,118,o),
(906,65,o),
(801,65,cs)
);
}
);
width = 1127;
}
);
metricRight = "=wa-chak";
script = chak;
subCategory = Spacing;
unicode = 57363;
},
{
category = Letter;
glyphname = "tta-chak";
lastChange = "2023-04-23 07:30:32 +0000";
layers = (
{
anchors = (
{
name = bottom;
pos = (272,0);
},
{
name = bottomright;
pos = (272,0);
},
{
name = medialRa;
pos = (448,0);
},
{
name = top;
pos = (272,600);
}
);
background = {
anchors = (
{
name = bottomright;
pos = (272,0);
},
{
name = medialRa;
pos = (448,0);
},
{
name = top;
pos = (272,600);
}
);
shapes = (
{
closed = 1;
nodes = (
(347,172,o),
(410,206,o),
(448,261,c),
(390,302,l),
(366,263,o),
(324,238,o),
(272,238,cs),
(192,238,o),
(134,298,o),
(134,381,cs),
(134,464,o),
(192,524,o),
(272,524,cs),
(324,524,o),
(366,499,o),
(390,460,c),
(448,501,l),
(410,556,o),
(347,590,o),
(273,590,cs),
(152,590,o),
(60,500,o),
(60,381,cs),
(60,262,o),
(152,172,o),
(273,172,cs)
);
},
{
closed = 1;
nodes = (
(438,0,l),
(438,70,l),
(129,70,l),
(90,0,l)
);
},
{
closed = 1;
nodes = (
(170,35,l),
(170,233,l),
(90,333,l),
(90,0,l)
);
}
);
};
layerId = m01;
shapes = (
{
closed = 1;
nodes = (
(351,172,o),
(415,205,o),
(453,257,c),
(391,301,l),
(367,264,o),
(327,242,o),
(277,242,cs),
(197,242,o),
(140,300,o),
(140,381,cs),
(140,462,o),
(197,520,o),
(277,520,cs),
(327,520,o),
(367,498,o),
(391,461,c),
(453,505,l),
(415,557,o),
(351,590,o),
(277,590,cs),
(154,590,o),
(60,500,o),
(60,381,cs),
(60,262,o),
(154,172,o),
(277,172,cs)
);
},
{
closed = 1;
nodes = (
(286,0,l),
(286,70,l),
(202,70,l),
(202,233,l),
(122,333,l),
(122,0,l)
);
}
);
width = 523;
},
{
anchors = (
{
name = bottomright;
pos = (272,0);
},
{
name = medialRa;
pos = (448,0);
},
{
name = top;
pos = (272,600);
}
);
associatedMasterId = m01;
background = {
anchors = (
{
name = bottomright;
pos = (272,0);
},
{
name = medialRa;
pos = (448,0);
},
{
name = top;
pos = (272,600);
}
);
shapes = (
{
closed = 1;
nodes = (
(347,172,o),
(410,206,o),
(448,261,c),
(390,302,l),
(366,263,o),
(324,238,o),
(272,238,cs),
(192,238,o),
(134,298,o),
(134,381,cs),
(134,464,o),
(192,524,o),
(272,524,cs),
(324,524,o),
(366,499,o),
(390,460,c),
(448,501,l),
(410,556,o),
(347,590,o),
(273,590,cs),
(152,590,o),
(60,500,o),
(60,381,cs),
(60,262,o),
(152,172,o),
(273,172,cs)
);
},
{
closed = 1;
nodes = (
(438,0,l),
(438,70,l),
(129,70,l),
(90,0,l)
);
},
{
closed = 1;
nodes = (
(170,35,l),
(170,233,l),
(90,333,l),
(90,0,l)
);
}
);
};
layerId = "D3271338-F624-4FF7-AB3D-6D2E3F8460E9";
name = "19 May 22, 07:51";
shapes = (
{
closed = 1;
nodes = (
(351,172,o),
(415,205,o),
(453,257,c),
(391,301,l),
(367,264,o),
(327,242,o),
(277,242,cs),
(197,242,o),
(140,300,o),
(140,381,cs),
(140,462,o),
(197,520,o),
(277,520,cs),
(327,520,o),
(367,498,o),
(391,461,c),
(453,505,l),
(415,557,o),
(351,590,o),
(277,590,cs),
(154,590,o),
(60,500,o),
(60,381,cs),
(60,262,o),
(154,172,o),
(277,172,cs)
);
},
{
closed = 1;
nodes = (
(438,0,l),
(438,70,l),
(129,70,l),
(90,0,l)
);
},
{
closed = 1;
nodes = (
(170,35,l),
(170,233,l),
(90,333,l),
(90,0,l)
);
}
);
width = 523;
}
);
metricLeft = "=i-myanmar";
script = chak;
subCategory = Spacing;
unicode = 57364;
},
{
category = Letter;
glyphname = "ttha-chak";
lastChange = "2023-04-23 07:30:36 +0000";
layers = (
{
anchors = (
{
name = bottom;
pos = (277,0);
},
{
name = bottomright;
pos = (277,0);
},
{
name = medialRa;
pos = (463,0);
},
{
name = top;
pos = (277,600);
}
);
background = {
anchors = (
{
name = bottomright;
pos = (277,0);
},
{
name = medialRa;
pos = (463,0);
},
{
name = top;
pos = (277,600);
}
);
shapes = (
{
closed = 1;
nodes = (
(352,172,o),
(415,206,o),
(453,261,c),
(395,302,l),
(371,263,o),
(329,238,o),
(277,238,cs),
(197,238,o),
(139,298,o),
(139,381,cs),
(139,464,o),
(197,524,o),
(277,524,cs),
(329,524,o),
(371,499,o),
(395,460,c),
(453,501,l),
(415,556,o),
(352,590,o),
(278,590,cs),
(157,590,o),
(65,500,o),
(65,381,cs),
(65,262,o),
(157,172,o),
(278,172,cs)
);
},
{
closed = 1;
nodes = (
(368,-10,o),
(453,29,o),
(453,125,cs),
(453,261,l),
(373,243,l),
(373,130,ls),
(373,77,o),
(322,60,o),
(255,60,cs),
(192,60,o),
(147,75,o),
(129,119,c),
(61,90,l),
(80,19,o),
(157,-10,o),
(255,-10,cs)
);
}
);
};
layerId = m01;
shapes = (
{
closed = 1;
nodes = (
(351,172,o),
(415,205,o),
(453,257,c),
(391,301,l),
(367,264,o),
(327,242,o),
(277,242,cs),
(197,242,o),
(140,300,o),
(140,381,cs),
(140,462,o),
(197,520,o),
(277,520,cs),
(327,520,o),
(367,498,o),
(391,461,c),
(453,505,l),
(415,557,o),
(351,590,o),
(277,590,cs),
(154,590,o),
(60,500,o),
(60,381,cs),
(60,262,o),
(154,172,o),
(277,172,cs)
);
},
{
closed = 1;
nodes = (
(368,-10,o),
(453,29,o),
(453,125,cs),
(453,257,l),
(373,243,l),
(373,130,ls),
(373,77,o),
(322,60,o),
(255,60,cs),
(192,60,o),
(146,75,o),
(128,119,c),
(60,90,l),
(79,19,o),
(157,-10,o),
(255,-10,cs)
);
}
);
width = 528;
}
);
metricLeft = "=i-chak";
script = chak;
subCategory = Spacing;
unicode = 57365;
},
{
category = Letter;
glyphname = "dda-chak";
lastChange = "2023-04-23 07:30:44 +0000";
layers = (
{
anchors = (
{
name = bottom;
pos = (264,-155);
},
{
name = bottomright;
pos = (264,-155);
},
{
name = medialRa;
pos = (468,-155);
},
{
name = top;
pos = (264,600);
}
);
layerId = m01;
shapes = (
{
closed = 1;
nodes = (
(388,-165,o),
(458,-95,o),
(458,20,cs),
(458,143,l),
(255,143,ls),
(190,143,o),
(154,165,o),
(154,202,cs),
(154,256,o),
(209,274,o),
(292,294,cs),
(375,314,o),
(458,344,o),
(458,441,cs),
(458,535,o),
(388,590,o),
(274,590,cs),
(167,590,o),
(90,542,o),
(70,464,c),
(140,434,l),
(158,488,o),
(203,515,o),
(274,515,cs),
(340,515,o),
(374,486,o),
(374,439,cs),
(374,385,o),
(319,367,o),
(236,347,cs),
(153,327,o),
(70,297,o),
(70,200,cs),
(70,114,o),
(137,68,o),
(250,68,cs),
(378,68,l),
(378,22,ls),
(378,-52,o),
(342,-90,o),
(274,-90,cs),
(203,-90,o),
(158,-63,o),
(140,-9,c),
(70,-39,l),
(90,-117,o),
(167,-165,o),
(274,-165,cs)
);
}
);
width = 523;
},
{
anchors = (
{
name = bottomright;
pos = (251,0);
},
{
name = medialRa;
pos = (477,0);
},
{
name = top;
pos = (251,600);
}
);
associatedMasterId = m01;
layerId = "2092F6FD-B2B1-4109-8828-02D2001573EB";
name = "18 May 22, 08:16";
shapes = (
{
closed = 1;
nodes = (
(377,234,o),
(463,311,o),
(463,412,cs),
(463,513,o),
(377,590,o),
(265,590,cs),
(185,590,o),
(116,556,o),
(75,501,c),
(133,460,l),
(160,499,o),
(207,524,o),
(266,524,cs),
(337,524,o),
(389,477,o),
(389,412,cs),
(389,347,o),
(337,300,o),
(266,300,cs),
(207,300,o),
(160,325,o),
(133,364,c),
(75,323,l),
(116,268,o),
(185,234,o),
(265,234,cs)
);
},
{
closed = 1;
nodes = (
(371,112,o),
(448,145,o),
(467,206,c),
(399,235,l),
(381,191,o),
(336,176,o),
(273,176,cs),
(206,176,o),
(155,193,o),
(155,246,cs),
(155,305,l),
(75,323,l),
(75,247,ls),
(75,151,o),
(160,112,o),
(273,112,cs)
);
},
{
closed = 1;
nodes = (
(382,-10,o),
(467,29,o),
(467,125,cs),
(467,206,l),
(387,143,l),
(387,124,ls),
(387,71,o),
(336,54,o),
(269,54,cs),
(206,54,o),
(152,65,o),
(117,96,c),
(75,45,l),
(102,13,o),
(171,-10,o),
(269,-10,cs)
);
}
);
width = 527;
},
{
anchors = (
{
name = bottomright;
pos = (271,0);
},
{
name = medialRa;
pos = (467,0);
},
{
name = top;
pos = (271,600);
}
);
associatedMasterId = m01;
layerId = "F8B7D31D-F491-4F68-826E-B0916AE2F39D";
name = "18 May 22, 14:37";
shapes = (
{
closed = 1;
nodes = (
(377,152,o),
(448,200,o),
(467,258,c),
(397,279,l),
(381,245,o),
(341,218,o),
(262,218,cs),
(201,218,o),
(156,235,o),
(156,268,cs),
(156,380,o),
(467,304,o),
(467,474,cs),
(467,547,o),
(390,590,o),
(283,590,cs),
(169,590,o),
(98,537,o),
(79,464,c),
(149,443,l),
(165,492,o),
(205,524,o),
(284,524,cs),
(345,524,o),
(390,507,o),
(390,474,cs),
(390,362,o),
(79,438,o),
(79,268,cs),
(79,195,o),
(156,152,o),
(263,152,cs)
);
},
{
closed = 1;
nodes = (
(382,-10,o),
(467,39,o),
(467,159,cs),
(467,258,l),
(398,233,l),
(398,158,ls),
(398,79,o),
(342,54,o),
(269,54,cs),
(206,54,o),
(152,68,o),
(117,106,c),
(75,55,l),
(102,17,o),
(171,-10,o),
(269,-10,cs)
);
}
);
width = 527;
},
{
anchors = (
{
name = bottomright;
pos = (271,0);
},
{
name = medialRa;
pos = (467,0);
},
{
name = top;
pos = (271,600);
}
);
associatedMasterId = m01;
layerId = "13E03348-CFCA-442F-A03C-02445B91D902";
name = "18 May 22, 14:42";
shapes = (
{
closed = 1;
nodes = (
(390,-10,o),
(467,35,o),
(467,122,cs),
(467,303,o),
(156,210,o),
(156,290,cs),
(156,370,o),
(467,277,o),
(467,458,cs),
(467,545,o),
(390,590,o),
(283,590,cs),
(169,590,o),
(98,537,o),
(79,464,c),
(149,443,l),
(165,492,o),
(205,524,o),
(284,524,cs),
(345,524,o),
(390,506,o),
(390,458,cs),
(390,333,o),
(79,429,o),
(79,290,cs),
(79,151,o),
(390,247,o),
(390,122,cs),
(390,74,o),
(345,56,o),
(284,56,cs),
(205,56,o),
(165,88,o),
(149,137,c),
(79,116,l),
(98,43,o),
(169,-10,o),
(283,-10,cs)
);
}
);
width = 527;
},
{
anchors = (
{
name = bottomright;
pos = (271,0);
},
{
name = medialRa;
pos = (477,0);
},
{
name = top;
pos = (271,600);
}
);
associatedMasterId = m01;
layerId = "D46A46D7-30D1-45F1-ADA0-A4B6DC9A0814";
name = "19 May 22, 07:33";
shapes = (
{
closed = 1;
nodes = (
(390,-10,o),
(467,38,o),
(467,143,cs),
(467,240,l),
(246,240,ls),
(190,240,o),
(156,253,o),
(156,280,cs),
(156,370,o),
(467,288,o),
(467,458,cs),
(467,545,o),
(390,590,o),
(283,590,cs),
(169,590,o),
(98,537,o),
(79,464,c),
(149,443,l),
(165,492,o),
(205,524,o),
(284,524,cs),
(345,524,o),
(390,506,o),
(390,458,cs),
(390,348,o),
(79,438,o),
(79,272,cs),
(79,210,o),
(145,178,o),
(241,178,cs),
(390,178,l),
(390,148,ls),
(390,78,o),
(345,56,o),
(284,56,cs),
(205,56,o),
(165,88,o),
(149,137,c),
(79,116,l),
(98,43,o),
(169,-10,o),
(283,-10,cs)
);
}
);
width = 527;
},
{
anchors = (
{
name = bottomright;
pos = (264,-155);
},
{
name = medialRa;
pos = (468,-155);
},
{
name = top;
pos = (264,600);
}
);
associatedMasterId = m01;
layerId = "8FD9D696-A92A-46E0-8366-A79BAC3C327E";
name = "19 May 22, 07:54";
shapes = (
{
closed = 1;
nodes = (
(388,-165,o),
(458,-95,o),
(458,20,cs),
(458,143,l),
(259,143,ls),
(191,143,o),
(154,168,o),
(154,210,cs),
(154,264,o),
(209,282,o),
(292,302,cs),
(375,322,o),
(458,349,o),
(458,446,cs),
(458,535,o),
(388,590,o),
(274,590,cs),
(167,590,o),
(90,542,o),
(70,464,c),
(140,434,l),
(158,488,o),
(203,515,o),
(274,515,cs),
(340,515,o),
(374,489,o),
(374,447,cs),
(374,393,o),
(319,375,o),
(236,355,cs),
(153,335,o),
(70,308,o),
(70,211,cs),
(70,120,o),
(138,68,o),
(254,68,cs),
(378,68,l),
(378,22,ls),
(378,-52,o),
(342,-90,o),
(274,-90,cs),
(203,-90,o),
(158,-63,o),
(140,-9,c),
(70,-39,l),
(90,-117,o),
(167,-165,o),
(274,-165,cs)
);
}
);
width = 523;
}
);
script = chak;
subCategory = Spacing;
unicode = 57366;
},
{
category = Letter;
glyphname = "ddha-chak";
lastChange = "2023-04-23 07:30:48 +0000";
layers = (
{
anchors = (
{
name = bottom;
pos = (407,0);
},
{
name = bottomright;
pos = (407,0);
},
{
name = medialRa;
pos = (721,0);
},
{
name = top;
pos = (407,600);
}
);
layerId = m01;
shapes = (
{
closed = 1;
nodes = (
(340,-10,o),
(385,46,o),
(385,140,cs),
(385,278,o),
(284,470,o),
(54,590,c),
(15,526,l),
(234,404,o),
(303,257,o),
(303,140,cs),
(303,86,o),
(291,65,o),
(264,65,cs),
(215,65,o),
(177,154,o),
(177,244,cs),
(177,404,o),
(271,515,o),
(407,515,cs),
(543,515,o),
(637,404,o),
(637,244,cs),
(637,154,o),
(599,65,o),
(550,65,cs),
(523,65,o),
(511,86,o),
(511,140,cs),
(511,258,o),
(579,403,o),
(799,526,c),
(760,590,l),
(530,470,o),
(429,278,o),
(429,140,cs),
(429,46,o),
(474,-10,o),
(544,-10,cs),
(649,-10,o),
(721,109,o),
(721,245,cs),
(721,443,o),
(589,590,o),
(407,590,cs),
(225,590,o),
(93,443,o),
(93,245,cs),
(93,109,o),
(165,-10,o),
(270,-10,cs)
);
}
);
width = 814;
}
);
metricRight = "=|";
script = chak;
subCategory = Spacing;
unicode = 57367;
},
{
category = Letter;
glyphname = "nna-chak";
lastChange = "2023-04-23 07:30:50 +0000";
layers = (
{
anchors = (
{
name = bottom;
pos = (367,0);
},
{
name = bottomright;
pos = (367,0);
},
{
name = medialRa;
pos = (661,0);
},
{
name = top;
pos = (367,600);
}
);
background = {
anchors = (
{
name = bottomright;
pos = (359,0);
},
{
name = medialRa;
pos = (653,0);
},
{
name = top;
pos = (359,600);
}
);
shapes = (
{
closed = 1;
nodes = (
(526,-10,o),
(653,71,o),
(653,207,cs),
(653,362,o),
(480,370,o),
(480,459,cs),
(480,498,o),
(510,520,o),
(542,520,cs),
(571,520,o),
(598,502,o),
(607,473,c),
(655,525,l),
(633,567,o),
(592,590,o),
(540,590,cs),
(452,590,o),
(403,526,o),
(403,457,cs),
(403,331,o),
(569,327,o),
(569,207,cs),
(569,112,o),
(481,65,o),
(359,65,cs),
(237,65,o),
(149,112,o),
(149,207,cs),
(149,327,o),
(315,331,o),
(315,457,cs),
(315,526,o),
(266,590,o),
(178,590,cs),
(126,590,o),
(85,567,o),
(63,525,c),
(111,473,l),
(120,502,o),
(147,520,o),
(176,520,cs),
(208,520,o),
(238,498,o),
(238,459,cs),
(238,370,o),
(65,362,o),
(65,207,cs),
(65,71,o),
(192,-10,o),
(359,-10,cs)
);
}
);
};
layerId = m01;
shapes = (
{
closed = 1;
nodes = (
(535,-10,o),
(661,77,o),
(661,193,cs),
(661,330,o),
(499,376,o),
(499,467,cs),
(499,501,o),
(523,520,o),
(554,520,cs),
(588,520,o),
(611,498,o),
(618,465,c),
(681,496,l),
(662,559,o),
(603,590,o),
(548,590,cs),
(466,590,o),
(419,535,o),
(419,471,cs),
(419,345,o),
(577,304,o),
(577,201,cs),
(577,127,o),
(488,65,o),
(367,65,cs),
(246,65,o),
(157,127,o),
(157,201,cs),
(157,304,o),
(315,345,o),
(315,471,cs),
(315,535,o),
(268,590,o),
(186,590,cs),
(131,590,o),
(72,559,o),
(53,496,c),
(116,465,l),
(123,498,o),
(146,520,o),
(180,520,cs),
(211,520,o),
(235,501,o),
(235,467,cs),
(235,376,o),
(73,330,o),
(73,193,cs),
(73,77,o),
(199,-10,o),
(367,-10,cs)
);
}
);
width = 734;
}
);
metricRight = "=|";
script = chak;
subCategory = Spacing;
unicode = 57368;
},
{
category = Letter;
glyphname = "ta-chak";
lastChange = "2023-04-23 07:31:01 +0000";
layers = (
{
anchors = (
{
name = bottom;
pos = (445,0);
},
{
name = bottomright;
pos = (445,0);
},
{
name = medialRa;
pos = (749,0);
},
{
name = top;
pos = (445,600);
}
);
background = {
anchors = (
{
name = bottomright;
pos = (473,0);
},
{
name = top;
pos = (473,600);
}
);
};
layerId = m01;
shapes = (
{
closed = 1;
nodes = (
(399,-10,o),
(441,52,o),
(441,138,cs),
(441,281,o),
(323,434,o),
(155,434,cs),
(88,434,o),
(31,403,o),
(1,346,c),
(60,304,l),
(76,333,o),
(106,361,o),
(154,361,cs),
(260,361,o),
(359,253,o),
(359,137,cs),
(359,100,o),
(349,65,o),
(318,65,cs),
(268,65,o),
(225,159,o),
(225,260,cs),
(225,411,o),
(316,515,o),
(447,515,cs),
(574,515,o),
(665,418,o),
(665,284,cs),
(665,179,o),
(615,96,o),
(537,59,c),
(569,-10,l),
(677,38,o),
(749,149,o),
(749,284,cs),
(749,458,o),
(619,590,o),
(447,590,cs),
(270,590,o),
(141,450,o),
(141,261,cs),
(141,114,o),
(216,-10,o),
(324,-10,cs)
);
}
);
width = 814;
},
{
anchors = (
{
name = bottomright;
pos = (445,0);
},
{
name = medialRa;
pos = (749,0);
},
{
name = top;
pos = (445,600);
}
);
associatedMasterId = m01;
background = {
anchors = (
{
name = bottomright;
pos = (473,0);
},
{
name = top;
pos = (473,600);
}
);
};
layerId = "54E568C5-6F94-4E92-9C53-3337B67E01E3";
name = "19 May 22, 07:55";
shapes = (
{
closed = 1;
nodes = (
(399,-10,o),
(441,52,o),
(441,138,cs),
(441,281,o),
(323,434,o),
(155,434,cs),
(88,434,o),
(26,404,o),
(-4,341,c),
(65,304,l),
(78,333,o),
(107,361,o),
(154,361,cs),
(260,361,o),
(359,253,o),
(359,137,cs),
(359,100,o),
(349,65,o),
(318,65,cs),
(268,65,o),
(225,159,o),
(225,260,cs),
(225,411,o),
(316,515,o),
(447,515,cs),
(574,515,o),
(665,418,o),
(665,284,cs),
(665,179,o),
(615,96,o),
(537,59,c),
(569,-10,l),
(677,38,o),
(749,149,o),
(749,284,cs),
(749,458,o),
(619,590,o),
(447,590,cs),
(270,590,o),
(141,450,o),
(141,261,cs),
(141,114,o),
(216,-10,o),
(324,-10,cs)
);
}
);
width = 814;
}
);
metricRight = "=wa-chak";
script = chak;
subCategory = Spacing;
unicode = 57369;
},
{
category = Letter;
glyphname = "da-chak";
lastChange = "2023-04-23 07:31:09 +0000";
layers = (
{
anchors = (
{
name = bottom;
pos = (283,0);
},
{
name = bottomright;
pos = (283,0);
},
{
name = medialRa;
pos = (543,0);
},
{
name = top;
pos = (283,600);
}
);
layerId = m01;
shapes = (
{
closed = 1;
nodes = (
(439,-10,o),
(543,68,o),
(543,184,cs),
(543,301,o),
(427,395,o),
(283,395,cs),
(193,395,o),
(129,352,o),
(129,290,cs),
(129,228,o),
(193,185,o),
(283,185,cs),
(427,185,o),
(543,279,o),
(543,396,cs),
(543,512,o),
(439,590,o),
(285,590,cs),
(184,590,o),
(89,553,o),
(40,495,c),
(89,442,l),
(141,491,o),
(205,515,o),
(283,515,cs),
(392,515,o),
(463,464,o),
(463,384,cs),
(463,306,o),
(389,252,o),
(282,252,cs),
(231,252,o),
(197,267,o),
(197,290,cs),
(197,313,o),
(231,328,o),
(282,328,cs),
(389,328,o),
(463,274,o),
(463,196,cs),
(463,116,o),
(392,65,o),
(283,65,cs),
(205,65,o),
(141,89,o),
(89,138,c),
(40,85,l),
(89,27,o),
(184,-10,o),
(285,-10,cs)
);
}
);
width = 608;
},
{
anchors = (
{
name = bottomright;
pos = (273,0);
},
{
name = medialRa;
pos = (523,0);
},
{
name = top;
pos = (273,600);
}
);
associatedMasterId = m01;
layerId = "0528C4BC-B62C-495B-BE3A-032014D08DED";
name = "14 Apr 22, 11:18";
shapes = (
{
closed = 1;
nodes = (
(419,-10,o),
(523,65,o),
(523,184,cs),
(523,299,o),
(420,395,o),
(289,395,cs),
(198,395,o),
(139,350,o),
(139,290,cs),
(139,230,o),
(198,185,o),
(289,185,cs),
(420,185,o),
(523,281,o),
(523,396,cs),
(523,515,o),
(419,590,o),
(275,590,cs),
(161,590,o),
(79,544,o),
(40,495,c),
(89,442,l),
(127,480,o),
(183,515,o),
(273,515,cs),
(385,515,o),
(443,457,o),
(443,384,cs),
(443,310,o),
(384,252,o),
(288,252,cs),
(241,252,o),
(207,266,o),
(207,290,cs),
(207,314,o),
(241,328,o),
(288,328,cs),
(384,328,o),
(443,270,o),
(443,196,cs),
(443,123,o),
(385,65,o),
(273,65,cs),
(183,65,o),
(127,100,o),
(89,138,c),
(40,85,l),
(79,36,o),
(161,-10,o),
(275,-10,cs)
);
}
);
width = 588;
},
{
anchors = (
{
name = bottomright;
pos = (273,0);
},
{
name = medialRa;
pos = (523,0);
},
{
name = top;
pos = (273,600);
}
);
associatedMasterId = m01;
layerId = "63F56D49-968B-4A3A-8173-20F677372982";
name = "19 May 22, 06:36";
shapes = (
{
closed = 1;
nodes = (
(423,-10,o),
(523,68,o),
(523,184,cs),
(523,301,o),
(416,395,o),
(283,395,cs),
(193,395,o),
(129,352,o),
(129,290,cs),
(129,228,o),
(193,185,o),
(283,185,cs),
(416,185,o),
(523,279,o),
(523,396,cs),
(523,512,o),
(423,590,o),
(275,590,cs),
(178,590,o),
(87,553,o),
(40,495,c),
(89,442,l),
(138,491,o),
(199,515,o),
(273,515,cs),
(376,515,o),
(443,464,o),
(443,384,cs),
(443,306,o),
(377,252,o),
(282,252,cs),
(231,252,o),
(197,267,o),
(197,290,cs),
(197,313,o),
(231,328,o),
(282,328,cs),
(377,328,o),
(443,274,o),
(443,196,cs),
(443,116,o),
(376,65,o),
(273,65,cs),
(199,65,o),
(138,89,o),
(89,138,c),
(40,85,l),
(87,27,o),
(178,-10,o),
(275,-10,cs)
);
}
);
width = 588;
}
);
script = chak;
subCategory = Spacing;
unicode = 57371;
},
{
category = Letter;
glyphname = "dha-chak";
lastChange = "2023-04-23 07:31:11 +0000";
layers = (
{
anchors = (
{
name = bottom;
pos = (383,0);
},
{
name = bottomright;
pos = (383,0);
},
{
name = medialRa;
pos = (701,0);
},
{
name = top;
pos = (383,600);
}
);
background = {
shapes = (
{
closed = 1;
nodes = (
(473,65,o),
(536,126,o),
(536,210,cs),
(536,294,o),
(473,355,o),
(383,355,cs),
(293,355,o),
(230,294,o),
(230,210,cs),
(230,126,o),
(293,65,o),
(383,65,cs)
);
}
);
};
layerId = m01;
shapes = (
{
closed = 1;
nodes = (
(419,-10,o),
(510,125,o),
(510,227,cs),
(510,305,o),
(463,372,o),
(383,372,cs),
(303,372,o),
(256,305,o),
(256,227,cs),
(256,125,o),
(347,-10,o),
(483,-10,cs),
(628,-10,o),
(701,140,o),
(701,272,cs),
(701,453,o),
(571,590,o),
(383,590,cs),
(195,590,o),
(65,453,o),
(65,272,cs),
(65,140,o),
(138,-10,o),
(283,-10,cs)
);
},
{
closed = 1;
nodes = (
(187,65,o),
(149,185,o),
(149,272,cs),
(149,421,o),
(243,515,o),
(383,515,cs),
(523,515,o),
(617,421,o),
(617,272,cs),
(617,185,o),
(579,65,o),
(468,65,cs),
(377,65,o),
(328,157,o),
(328,225,cs),
(328,272,o),
(347,308,o),
(383,308,cs),
(419,308,o),
(438,272,o),
(438,225,cs),
(438,157,o),
(389,65,o),
(298,65,cs)
);
}
);
width = 766;
}
);
metricLeft = "=wa-chak";
metricRight = "=|";
script = chak;
subCategory = Spacing;
unicode = 57372;
},
{
category = Letter;
glyphname = "na-chak";
lastChange = "2023-04-23 07:31:15 +0000";
layers = (
{
anchors = (
{
name = bottom;
pos = (323,0);
},
{
name = bottomright;
pos = (323,0);
},
{
name = medialRa;
pos = (596,0);
},
{
name = top;
pos = (323,600);
}
);
layerId = m01;
shapes = (
{
closed = 1;
nodes = (
(497,-10,o),
(608,50,o),
(608,162,cs),
(608,282,o),
(506,333,o),
(385,370,cs),
(303,395,o),
(250,415,o),
(250,466,cs),
(250,503,o),
(280,529,o),
(324,529,cs),
(366,529,o),
(396,503,o),
(396,466,cs),
(396,431,o),
(371,406,o),
(324,387,c),
(361,344,l),
(422,369,o),
(469,404,o),
(469,466,cs),
(469,537,o),
(408,590,o),
(323,590,cs),
(238,590,o),
(177,537,o),
(177,466,cs),
(177,379,o),
(252,339,o),
(351,309,cs),
(456,277,o),
(536,231,o),
(536,162,cs),
(536,97,o),
(452,65,o),
(319,65,cs),
(205,65,o),
(118,88,o),
(118,137,cs),
(118,173,o),
(173,187,o),
(223,187,cs),
(342,187,o),
(501,126,o),
(663,0,c),
(706,58,l),
(542,184,o),
(355,260,o),
(217,260,cs),
(118,260,o),
(40,211,o),
(40,134,cs),
(40,44,o),
(156,-10,o),
(319,-10,cs)
);
}
);
width = 723;
},
{
associatedMasterId = m01;
background = {
shapes = (
{
closed = 1;
nodes = (
(522,-10,o),
(653,119,o),
(653,290,cs),
(653,461,o),
(522,590,o),
(349,590,cs),
(176,590,o),
(45,461,o),
(45,290,cs),
(45,119,o),
(176,-10,o),
(349,-10,cs)
);
},
{
closed = 1;
nodes = (
(221,65,o),
(129,159,o),
(129,290,cs),
(129,421,o),
(221,515,o),
(349,515,cs),
(477,515,o),
(569,421,o),
(569,290,cs),
(569,159,o),
(477,65,o),
(349,65,cs)
);
}
);
};
layerId = "8A5C01A3-242C-486D-B9CA-E92303DB6D8B";
name = "12 Apr 22, 16:38";
shapes = (
{
closed = 1;
nodes = (
(475,-10,o),
(611,72,o),
(611,200,cs),
(611,443,o),
(197,355,o),
(197,468,cs),
(197,499,o),
(229,524,o),
(269,524,cs),
(310,524,o),
(341,498,o),
(341,464,cs),
(341,440,o),
(325,413,o),
(301,400,c),
(341,357,l),
(388,383,o),
(415,424,o),
(415,467,cs),
(415,535,o),
(349,590,o),
(267,590,cs),
(184,590,o),
(123,537,o),
(123,464,cs),
(123,274,o),
(533,385,o),
(533,197,cs),
(533,114,o),
(432,65,o),
(305,65,cs),
(222,65,o),
(141,89,o),
(141,132,cs),
(141,170,o),
(186,192,o),
(265,192,cs),
(693,192,l),
(693,267,l),
(267,267,ls),
(143,267,o),
(65,215,o),
(65,132,cs),
(65,42,o),
(176,-10,o),
(306,-10,cs)
);
}
);
width = 758;
},
{
anchors = (
{
name = bottomright;
pos = (318,0);
},
{
name = medialRa;
pos = (591,0);
},
{
name = top;
pos = (318,600);
}
);
associatedMasterId = m01;
background = {
anchors = (
{
name = bottom;
pos = (609.908,379.192);
},
{
name = medialRa;
pos = (-45.813,529.009);
},
{
name = topright;
pos = (27.731,234.039);
}
);
guides = (
{
pos = (370,129);
}
);
};
layerId = "656B72C6-8A50-43F6-8831-6686DCFD50CD";
name = "14 Apr 22, 09:28";
shapes = (
{
closed = 1;
nodes = (
(458,-10,o),
(591,61,o),
(591,199,cs),
(591,460,o),
(182,345,o),
(182,471,cs),
(182,504,o),
(213,528,o),
(258,528,cs),
(303,528,o),
(331,504,o),
(331,465,cs),
(331,437,o),
(315,410,o),
(285,388,c),
(343,365,l),
(380,386,o),
(405,428,o),
(405,470,cs),
(405,538,o),
(341,590,o),
(257,590,cs),
(171,590,o),
(108,536,o),
(108,465,cs),
(108,270,o),
(519,398,o),
(519,199,cs),
(519,102,o),
(422,65,o),
(287,65,cs),
(180,65,o),
(121,92,o),
(121,132,cs),
(121,171,o),
(179,197,o),
(259,197,cs),
(381,197,o),
(540,127,o),
(663,22,c),
(702,83,l),
(557,204,o),
(400,272,o),
(259,272,cs),
(132,272,o),
(45,217,o),
(45,132,cs),
(45,47,o),
(135,-10,o),
(287,-10,cs)
);
}
);
width = 694;
}
);
script = chak;
subCategory = Spacing;
unicode = 57373;
},
{
category = Letter;
glyphname = "pa-chak";
lastChange = "2023-04-23 07:31:17 +0000";
layers = (
{
anchors = (
{
name = bottom;
pos = (553,0);
},
{
name = bottomright;
pos = (553,0);
},
{
name = medialRa;
pos = (837,0);
},
{
name = top;
pos = (553,600);
}
);
background = {
guides = (
{
angle = 248.8831;
pos = (191,0);
}
);
shapes = (
{
closed = 1;
nodes = (
(714,-10,o),
(837,122,o),
(837,296,cs),
(837,431,o),
(765,542,o),
(657,590,c),
(619,520,l),
(701,483,o),
(753,401,o),
(753,296,cs),
(753,162,o),
(669,65,o),
(553,65,cs),
(437,65,o),
(353,158,o),
(353,296,cs),
(353,401,o),
(405,483,o),
(487,520,c),
(449,590,l),
(341,542,o),
(269,431,o),
(269,296,cs),
(269,117,o),
(391,-10,o),
(553,-10,cs)
);
},
{
closed = 0;
nodes = (
(441,590,l),
(5,300,l),
(51,239,l),
(352,439,l),
(437,529,l)
);
}
);
};
guides = (
{
angle = 126.8208;
pos = (13,300);
}
);
layerId = m01;
shapes = (
{
closed = 1;
nodes = (
(714,-10,o),
(837,122,o),
(837,296,cs),
(837,431,o),
(765,542,o),
(657,590,c),
(619,520,l),
(701,483,o),
(753,401,o),
(753,296,cs),
(753,162,o),
(669,65,o),
(553,65,cs),
(437,65,o),
(353,158,o),
(353,296,cs),
(353,401,o),
(405,483,o),
(487,520,c),
(449,590,l),
(433,583,o),
(415,572,o),
(383,551,cs),
(5,300,l),
(49,238,l),
(350,438,l),
(404,555,l),
(322,501,o),
(269,407,o),
(269,296,cs),
(269,117,o),
(391,-10,o),
(553,-10,cs)
);
}
);
width = 902;
},
{
associatedMasterId = m01;
background = {
shapes = (
{
closed = 1;
nodes = (
(655,-10,o),
(786,122,o),
(786,296,cs),
(786,431,o),
(714,542,o),
(606,590,c),
(568,520,l),
(650,483,o),
(702,401,o),
(702,296,cs),
(702,162,o),
(610,65,o),
(482,65,cs),
(354,65,o),
(262,162,o),
(262,296,cs),
(262,401,o),
(314,483,o),
(396,520,c),
(358,590,l),
(250,542,o),
(178,431,o),
(178,296,cs),
(178,122,o),
(309,-10,o),
(482,-10,cs)
);
},
{
closed = 1;
nodes = (
(145,0,l),
(344,580,l),
(253,580,l),
(54,0,l)
);
}
);
};
guides = (
{
angle = 248.8831;
pos = (100,0);
}
);
layerId = "4298CAE4-66BF-498C-92DF-8DDB17078C7D";
name = "13 Apr 22, 10:43";
shapes = (
{
closed = 1;
nodes = (
(655,-10,o),
(786,122,o),
(786,296,cs),
(786,431,o),
(714,542,o),
(606,590,c),
(568,520,l),
(650,483,o),
(702,401,o),
(702,296,cs),
(702,162,o),
(610,65,o),
(482,65,cs),
(354,65,o),
(262,163,o),
(262,309,cs),
(262,423,o),
(307,518,o),
(334,580,c),
(233,580,l),
(9,0,l),
(100,0,l),
(219,309,l),
(178,309,l),
(178,122,o),
(309,-10,o),
(482,-10,cs)
);
}
);
width = 851;
},
{
anchors = (
{
name = bottomright;
pos = (499,0);
},
{
name = medialRa;
pos = (783,0);
},
{
name = top;
pos = (499,600);
}
);
associatedMasterId = m01;
background = {
guides = (
{
angle = 248.8831;
pos = (137,0);
}
);
shapes = (
{
closed = 1;
nodes = (
(692,-10,o),
(823,122,o),
(823,296,cs),
(823,431,o),
(751,542,o),
(643,590,c),
(605,520,l),
(687,483,o),
(739,401,o),
(739,296,cs),
(739,162,o),
(647,65,o),
(519,65,cs),
(391,65,o),
(299,163,o),
(299,309,cs),
(299,415,o),
(333,509,o),
(361,580,c),
(270,580,l),
(46,0,l),
(137,0,l),
(287,389,l),
(215,389,l),
(215,309,ls),
(215,122,o),
(346,-10,o),
(519,-10,cs)
);
}
);
};
layerId = "269A7858-93B6-436A-A9B0-1FB0DF89D2C0";
name = "13 Apr 22, 16:11";
shapes = (
{
closed = 1;
nodes = (
(658,-10,o),
(783,122,o),
(783,296,cs),
(783,431,o),
(711,542,o),
(603,590,c),
(565,520,l),
(647,483,o),
(699,401,o),
(699,296,cs),
(699,162,o),
(613,65,o),
(494,65,cs),
(381,65,o),
(299,159,o),
(299,299,cs),
(299,399,o),
(312,494,o),
(324,580,c),
(233,580,l),
(9,0,l),
(100,0,l),
(255,401,l),
(215,401,l),
(215,299,ls),
(215,118,o),
(335,-10,o),
(494,-10,cs)
);
}
);
width = 848;
},
{
anchors = (
{
name = bottomright;
pos = (499,0);
},
{
name = medialRa;
pos = (783,0);
},
{
name = top;
pos = (499,600);
}
);
associatedMasterId = m01;
background = {
guides = (
{
angle = 248.8831;
pos = (137,0);
}
);
shapes = (
{
closed = 1;
nodes = (
(692,-10,o),
(823,122,o),
(823,296,cs),
(823,431,o),
(751,542,o),
(643,590,c),
(605,520,l),
(687,483,o),
(739,401,o),
(739,296,cs),
(739,162,o),
(647,65,o),
(519,65,cs),
(391,65,o),
(299,163,o),
(299,309,cs),
(299,415,o),
(333,509,o),
(361,580,c),
(270,580,l),
(46,0,l),
(137,0,l),
(287,389,l),
(215,389,l),
(215,309,ls),
(215,122,o),
(346,-10,o),
(519,-10,cs)
);
}
);
};
layerId = "D6791DDE-1075-41E6-93E5-F08E787796F8";
name = "18 May 22, 09:48";
shapes = (
{
closed = 1;
nodes = (
(658,-10,o),
(783,122,o),
(783,296,cs),
(783,431,o),
(711,542,o),
(603,590,c),
(565,520,l),
(647,483,o),
(699,401,o),
(699,296,cs),
(699,162,o),
(613,65,o),
(494,65,cs),
(381,65,o),
(299,159,o),
(299,299,cs),
(299,399,o),
(312,494,o),
(324,580,c),
(233,580,l),
(9,0,l),
(96,0,l),
(251,401,l),
(215,401,l),
(215,299,ls),
(215,118,o),
(335,-10,o),
(494,-10,cs)
);
}
);
width = 848;
}
);
metricRight = "=wa-chak";
script = chak;
subCategory = Spacing;
unicode = 57374;
},
{
category = Letter;
glyphname = "ba-chak";
lastChange = "2023-04-23 07:31:26 +0000";
layers = (
{
anchors = (
{
name = bottom;
pos = (367,0);
},
{
name = bottomright;
pos = (367,0);
},
{
name = medialRa;
pos = (661,0);
},
{
name = top;
pos = (367,600);
}
);
background = {
anchors = (
{
name = bottomright;
pos = (377,0);
},
{
name = medialRa;
pos = (681,0);
},
{
name = top;
pos = (377,600);
}
);
shapes = (
{
closed = 1;
nodes = (
(539,-10,o),
(681,141,o),
(681,342,cs),
(681,483,o),
(550,590,o),
(377,590,cs),
(204,590,o),
(73,461,o),
(73,290,cs),
(73,119,o),
(193,-10,o),
(352,-10,cs)
);
},
{
closed = 1;
nodes = (
(239,65,o),
(157,159,o),
(157,290,cs),
(157,421,o),
(249,515,o),
(377,515,cs),
(505,515,o),
(597,443,o),
(597,342,cs),
(597,181,o),
(495,65,o),
(352,65,cs)
);
}
);
};
layerId = m01;
shapes = (
{
closed = 1;
nodes = (
(530,-10,o),
(681,140,o),
(681,340,cs),
(681,486,o),
(605,590,o),
(502,590,cs),
(428,590,o),
(375,539,o),
(375,470,cs),
(375,378,o),
(472,269,o),
(640,269,cs),
(675,269,o),
(723,274,o),
(757,286,c),
(739,352,l),
(706,341,o),
(670,337,o),
(640,337,cs),
(516,337,o),
(449,403,o),
(449,468,cs),
(449,501,o),
(471,523,o),
(504,523,cs),
(568,523,o),
(603,442,o),
(603,342,cs),
(603,174,o),
(494,65,o),
(348,65,cs),
(237,65,o),
(157,127,o),
(157,201,cs),
(157,304,o),
(315,345,o),
(315,471,cs),
(315,535,o),
(268,590,o),
(186,590,cs),
(131,590,o),
(72,559,o),
(53,496,c),
(116,465,l),
(123,498,o),
(146,520,o),
(180,520,cs),
(211,520,o),
(235,501,o),
(235,467,cs),
(235,376,o),
(73,330,o),
(73,193,cs),
(73,77,o),
(191,-10,o),
(348,-10,cs)
);
}
);
width = 767;
},
{
anchors = (
{
name = bottomright;
pos = (359,0);
},
{
name = medialRa;
pos = (653,0);
},
{
name = top;
pos = (359,600);
}
);
associatedMasterId = m01;
layerId = "77E09D7C-3C71-4E11-9614-8553E6D6DA8B";
name = "14 Apr 22, 12:51";
shapes = (
{
closed = 1;
nodes = (
(524,-10,o),
(653,126,o),
(653,307,cs),
(653,462,o),
(602,590,o),
(487,590,cs),
(414,590,o),
(359,542,o),
(359,468,cs),
(359,354,o),
(486,293,o),
(729,273,c),
(729,348,l),
(527,365,o),
(434,393,o),
(434,467,cs),
(434,505,o),
(460,520,o),
(487,520,cs),
(546,520,o),
(571,415,o),
(571,309,cs),
(571,167,o),
(480,65,o),
(343,65,cs),
(235,65,o),
(149,116,o),
(149,211,cs),
(149,315,o),
(304,339,o),
(304,471,cs),
(304,534,o),
(257,590,o),
(176,590,cs),
(123,590,o),
(92,570,o),
(65,547,c),
(104,485,l),
(119,502,o),
(144,515,o),
(173,515,cs),
(201,515,o),
(225,498,o),
(225,466,cs),
(225,377,o),
(65,351,o),
(65,211,cs),
(65,75,o),
(190,-10,o),
(343,-10,cs)
);
}
);
width = 744;
},
{
anchors = (
{
name = bottomright;
pos = (359,0);
},
{
name = medialRa;
pos = (653,0);
},
{
name = top;
pos = (359,600);
}
);
associatedMasterId = m01;
layerId = "FA5D705A-C160-4D56-83FA-597ACCA5C306";
name = "20 Apr 22, 10:24";
shapes = (
{
closed = 1;
nodes = (
(535,-10,o),
(653,118,o),
(653,340,cs),
(653,494,o),
(590,590,o),
(492,590,cs),
(420,590,o),
(369,542,o),
(369,473,cs),
(369,362,o),
(487,292,o),
(729,271,c),
(729,346,l),
(527,353,o),
(441,402,o),
(441,471,cs),
(441,503,o),
(461,523,o),
(489,523,cs),
(545,523,o),
(575,450,o),
(575,342,cs),
(575,160,o),
(491,65,o),
(339,65,cs),
(229,65,o),
(149,112,o),
(149,207,cs),
(149,327,o),
(315,331,o),
(315,457,cs),
(315,526,o),
(266,590,o),
(178,590,cs),
(126,590,o),
(85,567,o),
(63,525,c),
(111,473,l),
(120,502,o),
(147,520,o),
(176,520,cs),
(208,520,o),
(238,498,o),
(238,459,cs),
(238,370,o),
(65,362,o),
(65,207,cs),
(65,71,o),
(183,-10,o),
(339,-10,cs)
);
}
);
width = 749;
}
);
metricLeft = "=nna-chak";
metricRight = "=gha-chak";
script = chak;
subCategory = Spacing;
unicode = 57376;
},
{
category = Letter;
glyphname = "bha-chak";
lastChange = "2023-04-23 07:31:30 +0000";
layers = (
{
anchors = (
{
name = bottom;
pos = (487,0);
},
{
name = bottomright;
pos = (599,0);
},
{
name = medialRa;
pos = (858,0);
},
{
name = top;
pos = (599,600);
}
);
background = {
shapes = (
{
closed = 1;
nodes = (
(464,436,o),
(518,515,o),
(607,515,cs),
(708,515,o),
(774,428,o),
(774,290,c),
(858,290,l),
(858,468,o),
(755,590,o),
(607,590,cs),
(485,590,o),
(430,504,o),
(365,438,c),
(326,358,o),
(283,290,o),
(220,290,cs),
(126,290,o),
(55,225,o),
(55,140,cs),
(55,55,o),
(126,-10,o),
(220,-10,cs),
(350,-10,o),
(440,112,o),
(440,290,cs),
(440,463,o),
(348,590,o),
(220,590,cs),
(146,590,o),
(82,548,o),
(55,479,c),
(124,445,l),
(142,487,o),
(175,515,o),
(220,515,cs),
(302,515,o),
(356,424,o),
(356,290,cs),
(356,152,o),
(302,65,o),
(220,65,cs),
(174,65,o),
(139,97,o),
(139,140,cs),
(139,183,o),
(174,215,o),
(220,215,cs),
(297,215,o),
(349,285,o),
(396,372,c)
);
},
{
angle = 180;
pos = (923,580);
ref = "_part.cap-chak";
}
);
};
layerId = m01;
shapes = (
{
closed = 1;
nodes = (
(362,-10,o),
(440,112,o),
(440,290,cs),
(440,463,o),
(348,590,o),
(220,590,cs),
(146,590,o),
(82,548,o),
(55,479,c),
(124,445,l),
(142,487,o),
(175,515,o),
(220,515,cs),
(302,515,o),
(356,424,o),
(356,290,cs),
(356,152,o),
(314,65,o),
(255,65,cs),
(222,65,o),
(199,92,o),
(199,154,cs),
(199,346,o),
(442,515,o),
(595,515,cs),
(708,515,o),
(774,428,o),
(774,290,c),
(858,290,l),
(858,468,o),
(764,590,o),
(600,590,cs),
(377,590,o),
(115,368,o),
(115,149,cs),
(115,55,o),
(168,-10,o),
(250,-10,cs)
);
},
{
angle = 180;
pos = (923,580);
ref = "_part.cap-chak";
}
);
width = 923;
},
{
associatedMasterId = m01;
background = {
shapes = (
{
closed = 1;
nodes = (
(397,-10,o),
(533,119,o),
(533,290,cs),
(533,461,o),
(403,590,o),
(231,590,cs),
(131,590,o),
(45,547,o),
(-9,478,c),
(54,429,l),
(92,482,o),
(155,515,o),
(231,515,cs),
(359,515,o),
(451,421,o),
(451,290,cs),
(451,159,o),
(353,65,o),
(216,65,cs),
(129,65,o),
(67,100,o),
(67,148,cs),
(67,194,o),
(127,227,o),
(203,227,cs),
(418,227,o),
(447,-10,o),
(702,-10,cs),
(870,-10,o),
(996,119,o),
(996,290,cs),
(996,461,o),
(865,590,o),
(692,590,c),
(692,515,l),
(820,515,o),
(912,421,o),
(912,290,cs),
(912,159,o),
(825,65,o),
(702,65,cs),
(508,65,o),
(443,302,o),
(203,302,cs),
(84,302,o),
(-9,236,o),
(-9,148,cs),
(-9,58,o),
(88,-10,o),
(216,-10,cs)
);
}
);
};
layerId = "01111895-D740-480A-91C0-4B7226F306A7";
name = "12 Apr 22, 18:05";
shapes = (
{
closed = 1;
nodes = (
(524,-10,o),
(602,104,o),
(602,250,cs),
(602,444,o),
(455,590,o),
(260,590,cs),
(158,590,o),
(70,547,o),
(15,478,c),
(78,429,l),
(117,482,o),
(182,515,o),
(260,515,cs),
(411,515,o),
(519,404,o),
(519,250,cs),
(519,147,o),
(478,66,o),
(421,66,cs),
(370,66,o),
(333,122,o),
(333,201,cs),
(333,384,o),
(474,515,o),
(662,515,cs),
(813,515,o),
(912,421,o),
(912,290,cs),
(912,159,o),
(820,65,o),
(692,65,c),
(692,-10,l),
(865,-10,o),
(996,119,o),
(996,290,cs),
(996,461,o),
(857,590,o),
(662,590,cs),
(431,590,o),
(250,423,o),
(250,201,cs),
(250,81,o),
(323,-10,o),
(421,-10,cs)
);
}
);
width = 1061;
},
{
anchors = (
{
name = bottomright;
pos = (669,0);
},
{
name = top;
pos = (669,600);
}
);
associatedMasterId = m01;
background = {
shapes = (
{
closed = 1;
nodes = (
(397,-10,o),
(533,119,o),
(533,290,cs),
(533,461,o),
(403,590,o),
(231,590,cs),
(131,590,o),
(45,547,o),
(-9,478,c),
(54,429,l),
(92,482,o),
(155,515,o),
(231,515,cs),
(359,515,o),
(451,421,o),
(451,290,cs),
(451,159,o),
(353,65,o),
(216,65,cs),
(129,65,o),
(67,100,o),
(67,148,cs),
(67,194,o),
(127,227,o),
(203,227,cs),
(418,227,o),
(447,-10,o),
(702,-10,cs),
(870,-10,o),
(996,119,o),
(996,290,cs),
(996,461,o),
(865,590,o),
(692,590,c),
(692,515,l),
(820,515,o),
(912,421,o),
(912,290,cs),
(912,159,o),
(825,65,o),
(702,65,cs),
(508,65,o),
(443,302,o),
(203,302,cs),
(84,302,o),
(-9,236,o),
(-9,148,cs),
(-9,58,o),
(88,-10,o),
(216,-10,cs)
);
}
);
};
layerId = "65E64844-0D10-4560-BC7D-FEE4A246A0BA";
name = "13 Apr 22, 12:13";
shapes = (
{
closed = 1;
nodes = (
(524,-10,o),
(602,104,o),
(602,250,cs),
(602,444,o),
(455,590,o),
(260,590,cs),
(158,590,o),
(70,547,o),
(15,478,c),
(78,429,l),
(117,482,o),
(182,515,o),
(260,515,cs),
(411,515,o),
(519,404,o),
(519,250,cs),
(519,147,o),
(478,66,o),
(421,66,cs),
(370,66,o),
(333,122,o),
(333,201,cs),
(333,384,o),
(477,515,o),
(669,515,cs),
(816,515,o),
(913,428,o),
(913,290,cs),
(913,156,o),
(842,65,o),
(738,65,cs),
(705,65,o),
(667,76,o),
(644,92,c),
(612,25,l),
(642,3,o),
(689,-10,o),
(738,-10,cs),
(887,-10,o),
(997,117,o),
(997,290,cs),
(997,468,o),
(862,590,o),
(669,590,cs),
(434,590,o),
(250,423,o),
(250,201,cs),
(250,81,o),
(323,-10,o),
(421,-10,cs)
);
}
);
width = 1061;
},
{
anchors = (
{
name = bottomright;
pos = (594,0);
},
{
name = medialRa;
pos = (853,0);
},
{
name = top;
pos = (594,600);
}
);
associatedMasterId = m01;
background = {
shapes = (
{
closed = 0;
nodes = (
(215,290,l),
(121,290,o),
(50,225,o),
(50,140,cs),
(50,55,o),
(121,-10,o),
(215,-10,cs),
(345,-10,o),
(435,112,o),
(435,290,cs),
(435,463,o),
(325,590,o),
(176,590,cs),
(127,590,o),
(80,577,o),
(50,555,c),
(82,488,l),
(105,504,o),
(143,515,o),
(176,515,cs),
(280,515,o),
(351,424,o),
(351,290,cs),
(351,152,o),
(297,65,o),
(215,65,cs),
(169,65,o),
(134,97,o),
(134,140,cs),
(134,183,o),
(169,215,o),
(215,215,c)
);
},
{
closed = 0;
nodes = (
(594,515,l),
(698,515,o),
(769,424,o),
(769,290,cs),
(769,156,o),
(698,65,o),
(594,65,cs),
(561,65,o),
(523,76,o),
(500,92,c),
(468,25,l),
(498,3,o),
(545,-10,o),
(594,-10,cs),
(743,-10,o),
(853,117,o),
(853,290,cs),
(853,463,o),
(743,590,o),
(594,590,c)
);
},
{
closed = 0;
nodes = (
(166,201,l),
(166,384,o),
(310,515,o),
(502,515,cs)
);
},
{
closed = 0;
nodes = (
(502,590,l),
(267,590,o),
(83,423,o),
(83,201,cs)
);
}
);
};
layerId = "70357B11-01DA-4FF3-A9A1-0872E9F99B22";
name = "18 May 22, 10:20";
shapes = (
{
closed = 1;
nodes = (
(345,-10,o),
(435,115,o),
(435,282,cs),
(435,467,o),
(325,590,o),
(176,590,cs),
(127,590,o),
(80,577,o),
(50,555,c),
(82,488,l),
(105,504,o),
(142,515,o),
(178,515,cs),
(280,515,o),
(351,426,o),
(351,282,cs),
(351,158,o),
(298,65,o),
(217,65,cs),
(169,65,o),
(134,97,o),
(134,162,cs),
(134,331,o),
(353,515,o),
(555,515,cs),
(698,515,o),
(769,424,o),
(769,290,cs),
(769,156,o),
(698,65,o),
(594,65,cs),
(561,65,o),
(523,76,o),
(500,92,c),
(468,25,l),
(498,3,o),
(545,-10,o),
(594,-10,cs),
(743,-10,o),
(853,117,o),
(853,290,cs),
(853,463,o),
(743,590,o),
(555,590,cs),
(314,590,o),
(50,366,o),
(50,162,cs),
(50,55,o),
(121,-10,o),
(215,-10,cs)
);
}
);
width = 918;
},
{
anchors = (
{
name = bottomright;
pos = (594,0);
},
{
name = medialRa;
pos = (853,0);
},
{
name = top;
pos = (594,600);
}
);
associatedMasterId = m01;
background = {
shapes = (
{
closed = 1;
nodes = (
(391,208,l),
(344,252,o),
(291,290,o),
(215,290,cs),
(121,290,o),
(50,225,o),
(50,140,cs),
(50,55,o),
(121,-10,o),
(215,-10,cs),
(345,-10,o),
(435,112,o),
(435,290,cs),
(435,463,o),
(343,590,o),
(215,590,cs),
(141,590,o),
(77,548,o),
(50,479,c),
(119,445,l),
(137,487,o),
(170,515,o),
(215,515,cs),
(297,515,o),
(351,424,o),
(351,290,cs),
(351,152,o),
(297,65,o),
(215,65,cs),
(169,65,o),
(134,97,o),
(134,140,cs),
(134,183,o),
(169,215,o),
(215,215,cs),
(278,215,o),
(321,182,o),
(360,142,c)
);
},
{
closed = 1;
nodes = (
(459,436,o),
(513,515,o),
(602,515,cs),
(703,515,o),
(769,428,o),
(769,290,c),
(853,290,l),
(853,468,o),
(750,590,o),
(602,590,cs),
(480,590,o),
(425,504,o),
(360,438,c),
(391,372,l)
);
},
{
angle = 180;
pos = (918,580);
ref = "_part.cap-chak";
}
);
};
layerId = "DF73E5A8-D05D-4E83-83F2-5EC83A4E3F9A";
name = "18 May 22, 11:38";
shapes = (
{
closed = 1;
nodes = (
(345,-10,o),
(435,115,o),
(435,282,cs),
(435,467,o),
(325,590,o),
(176,590,cs),
(127,590,o),
(80,577,o),
(50,555,c),
(82,488,l),
(105,504,o),
(142,515,o),
(178,515,cs),
(280,515,o),
(351,426,o),
(351,282,cs),
(351,158,o),
(298,65,o),
(217,65,cs),
(169,65,o),
(134,97,o),
(134,162,cs),
(134,331,o),
(353,515,o),
(555,515,cs),
(698,515,o),
(769,424,o),
(769,290,c),
(853,290,l),
(853,463,o),
(743,590,o),
(555,590,cs),
(314,590,o),
(50,366,o),
(50,162,cs),
(50,55,o),
(121,-10,o),
(215,-10,cs)
);
},
{
angle = 180;
pos = (918,580);
ref = "_part.cap-chak";
}
);
width = 918;
}
);
metricRight = "=wa-chak";
script = chak;
subCategory = Spacing;
unicode = 57377;
},
{
category = Letter;
glyphname = "ma-chak";
lastChange = "2023-04-23 07:31:32 +0000";
layers = (
{
anchors = (
{
name = bottom;
pos = (544,0);
},
{
name = bottomright;
pos = (750,0);
},
{
name = medialRa;
pos = (1023,0);
},
{
name = top;
pos = (750,600);
}
);
background = {
shapes = (
{
closed = 1;
nodes = (
(987,290,l),
(987,161,o),
(921,68,o),
(829,68,cs),
(755,68,o),
(711,113,o),
(701,201,cs),
(689,302,ls),
(681,371,o),
(633,413,o),
(568,413,cs),
(503,413,o),
(455,371,o),
(447,302,cs),
(435,201,ls),
(425,113,o),
(381,68,o),
(307,68,cs),
(215,68,o),
(149,161,o),
(149,290,c),
(65,290,l),
(65,120,o),
(168,-10,o),
(307,-10,cs),
(425,-10,o),
(496,62,o),
(510,191,cs),
(521,290,ls),
(525,325,o),
(544,342,o),
(568,342,cs),
(592,342,o),
(611,325,o),
(615,290,cs),
(626,191,ls),
(640,62,o),
(711,-10,o),
(829,-10,cs),
(968,-10,o),
(1071,120,o),
(1071,290,c)
);
}
);
};
hints = (
{
name = _cap.Chak;
origin = (1,9);
type = Cap;
},
{
name = _cap.Chak;
origin = (0,3);
type = Cap;
}
);
layerId = m01;
shapes = (
{
closed = 1;
nodes = (
(929,-10,o),
(1023,112,o),
(1023,290,c),
(939,290,l),
(939,152,o),
(882,65,o),
(784,65,cs),
(740,65,o),
(696,85,o),
(665,129,c),
(625,65,l),
(668,14,o),
(729,-10,o),
(784,-10,cs)
);
},
{
closed = 1;
nodes = (
(361,-10,o),
(420,13,o),
(463,65,c),
(423,129,l),
(392,85,o),
(348,65,o),
(304,65,cs),
(206,65,o),
(149,152,o),
(149,290,c),
(65,290,l),
(65,112,o),
(159,-10,o),
(304,-10,cs)
);
},
{
closed = 1;
nodes = (
(640,-10,o),
(706,70,o),
(706,190,cs),
(706,310,o),
(640,390,o),
(544,390,cs),
(448,390,o),
(382,310,o),
(382,190,cs),
(382,70,o),
(448,-10,o),
(544,-10,cs)
);
},
{
closed = 1;
nodes = (
(494,63,o),
(462,121,o),
(462,190,cs),
(462,269,o),
(494,317,o),
(544,317,cs),
(594,317,o),
(626,269,o),
(626,190,cs),
(626,111,o),
(594,63,o),
(544,63,cs)
);
},
{
ref = "_part.cap-chak";
},
{
pos = (1088,0);
ref = "_part.cap-chak";
scale = (-1,1);
}
);
width = 1088;
},
{
associatedMasterId = m01;
layerId = "F8857EB7-750E-4CEB-BC0F-6E65C982C7F1";
name = "12 Apr 22, 18:02";
shapes = (
{
closed = 1;
nodes = (
(927,-10,o),
(1023,114,o),
(1023,290,cs),
(1023,466,o),
(911,590,o),
(764,590,c),
(764,515,l),
(866,515,o),
(939,426,o),
(939,290,cs),
(939,154,o),
(881,65,o),
(784,65,cs),
(747,65,o),
(703,80,o),
(675,114,c),
(628,52,l),
(669,11,o),
(730,-10,o),
(784,-10,cs)
);
},
{
closed = 1;
nodes = (
(358,-10,o),
(419,11,o),
(460,52,c),
(413,114,l),
(385,80,o),
(340,65,o),
(304,65,cs),
(207,65,o),
(149,154,o),
(149,290,cs),
(149,426,o),
(222,515,o),
(324,515,c),
(324,590,l),
(177,590,o),
(65,466,o),
(65,290,cs),
(65,114,o),
(162,-10,o),
(304,-10,cs)
);
},
{
closed = 1;
nodes = (
(641,-10,o),
(709,77,o),
(709,210,cs),
(709,343,o),
(641,430,o),
(544,430,cs),
(447,430,o),
(379,343,o),
(379,210,cs),
(379,77,o),
(447,-10,o),
(544,-10,cs)
);
},
{
closed = 1;
nodes = (
(493,63,o),
(459,117,o),
(459,210,cs),
(459,303,o),
(493,357,o),
(544,357,cs),
(595,357,o),
(629,303,o),
(629,210,cs),
(629,117,o),
(595,63,o),
(544,63,cs)
);
}
);
width = 1088;
},
{
anchors = (
{
name = bottomright;
pos = (765,0);
},
{
name = medialRa;
pos = (1023,0);
},
{
name = top;
pos = (765,600);
}
);
associatedMasterId = m01;
background = {
anchors = (
{
name = bottomright;
pos = (544,0);
},
{
name = top;
pos = (544,600);
}
);
shapes = (
{
closed = 1;
nodes = (
(929,-10,o),
(1023,114,o),
(1023,294,cs),
(1023,440,o),
(945,554,o),
(834,590,c),
(803,521,l),
(886,494,o),
(939,409,o),
(939,294,cs),
(939,153,o),
(883,65,o),
(797,65,cs),
(742,65,o),
(706,82,o),
(671,145,c),
(635,53,l),
(679,8,o),
(731,-10,o),
(797,-10,cs)
);
},
{
closed = 1;
nodes = (
(357,-10,o),
(410,8,o),
(453,53,c),
(417,145,l),
(382,82,o),
(346,65,o),
(291,65,cs),
(205,65,o),
(149,154,o),
(149,294,cs),
(149,409,o),
(202,494,o),
(285,521,c),
(254,590,l),
(143,554,o),
(65,440,o),
(65,294,cs),
(65,115,o),
(159,-10,o),
(291,-10,cs)
);
},
{
closed = 1;
nodes = (
(641,-10,o),
(709,77,o),
(709,210,cs),
(709,343,o),
(641,430,o),
(544,430,cs),
(447,430,o),
(379,343,o),
(379,210,cs),
(379,77,o),
(447,-10,o),
(544,-10,cs)
);
},
{
closed = 1;
nodes = (
(493,63,o),
(459,117,o),
(459,210,cs),
(459,303,o),
(493,357,o),
(544,357,cs),
(595,357,o),
(629,303,o),
(629,210,cs),
(629,117,o),
(595,63,o),
(544,63,cs)
);
}
);
};
layerId = "4D8E019C-E42F-4948-8325-3A6F62372BC8";
name = "13 Apr 22, 22:15";
shapes = (
{
closed = 1;
nodes = (
(380,-10,o),
(431,8,o),
(472,40,c),
(432,104,l),
(403,79,o),
(366,65,o),
(323,65,cs),
(218,65,o),
(149,152,o),
(149,290,cs),
(149,412,o),
(205,500,o),
(291,518,c),
(267,590,l),
(148,561,o),
(65,443,o),
(65,290,cs),
(65,112,o),
(171,-10,o),
(322,-10,cs)
);
},
{
closed = 1;
nodes = (
(641,-10,o),
(709,77,o),
(709,210,cs),
(709,343,o),
(641,430,o),
(544,430,cs),
(447,430,o),
(379,343,o),
(379,210,cs),
(379,77,o),
(447,-10,o),
(544,-10,cs)
);
},
{
closed = 1;
nodes = (
(493,63,o),
(459,117,o),
(459,210,cs),
(459,303,o),
(493,357,o),
(544,357,cs),
(595,357,o),
(629,303,o),
(629,210,cs),
(629,117,o),
(595,63,o),
(544,63,cs)
);
},
{
closed = 1;
nodes = (
(917,-10,o),
(1023,112,o),
(1023,290,cs),
(1023,443,o),
(940,561,o),
(821,590,c),
(797,518,l),
(883,500,o),
(939,412,o),
(939,290,cs),
(939,152,o),
(870,65,o),
(765,65,cs),
(722,65,o),
(685,79,o),
(656,104,c),
(616,40,l),
(657,8,o),
(708,-10,o),
(766,-10,cs)
);
}
);
width = 1088;
},
{
anchors = (
{
name = bottomright;
pos = (765,0);
},
{
name = medialRa;
pos = (1023,0);
},
{
name = top;
pos = (765,600);
}
);
associatedMasterId = m01;
background = {
anchors = (
{
name = bottomright;
pos = (544,0);
},
{
name = top;
pos = (544,600);
}
);
shapes = (
{
closed = 1;
nodes = (
(929,-10,o),
(1023,114,o),
(1023,294,cs),
(1023,440,o),
(945,554,o),
(834,590,c),
(803,521,l),
(886,494,o),
(939,409,o),
(939,294,cs),
(939,153,o),
(883,65,o),
(797,65,cs),
(742,65,o),
(706,82,o),
(671,145,c),
(635,53,l),
(679,8,o),
(731,-10,o),
(797,-10,cs)
);
},
{
closed = 1;
nodes = (
(357,-10,o),
(410,8,o),
(453,53,c),
(417,145,l),
(382,82,o),
(346,65,o),
(291,65,cs),
(205,65,o),
(149,154,o),
(149,294,cs),
(149,409,o),
(202,494,o),
(285,521,c),
(254,590,l),
(143,554,o),
(65,440,o),
(65,294,cs),
(65,115,o),
(159,-10,o),
(291,-10,cs)
);
},
{
closed = 1;
nodes = (
(641,-10,o),
(709,77,o),
(709,210,cs),
(709,343,o),
(641,430,o),
(544,430,cs),
(447,430,o),
(379,343,o),
(379,210,cs),
(379,77,o),
(447,-10,o),
(544,-10,cs)
);
},
{
closed = 1;
nodes = (
(493,63,o),
(459,117,o),
(459,210,cs),
(459,303,o),
(493,357,o),
(544,357,cs),
(595,357,o),
(629,303,o),
(629,210,cs),
(629,117,o),
(595,63,o),
(544,63,cs)
);
}
);
};
layerId = "257158FC-BA78-41C2-8255-74444FD05A76";
name = "14 Apr 22, 09:12";
shapes = (
{
closed = 1;
nodes = (
(551,-10,o),
(695,116,o),
(695,271,cs),
(695,373,o),
(634,450,o),
(544,450,cs),
(454,450,o),
(393,373,o),
(393,271,cs),
(393,116,o),
(537,-10,o),
(718,-10,cs),
(897,-10,o),
(1023,113,o),
(1023,294,cs),
(1023,440,o),
(942,560,o),
(821,590,c),
(790,520,l),
(881,498,o),
(939,413,o),
(939,294,cs),
(939,153,o),
(851,65,o),
(717,65,cs),
(579,65,o),
(469,159,o),
(469,276,cs),
(469,335,o),
(497,380,o),
(544,380,cs),
(591,380,o),
(619,335,o),
(619,276,cs),
(619,159,o),
(509,65,o),
(371,65,cs),
(237,65,o),
(149,153,o),
(149,294,cs),
(149,413,o),
(207,498,o),
(298,520,c),
(267,590,l),
(146,560,o),
(65,440,o),
(65,294,cs),
(65,113,o),
(191,-10,o),
(370,-10,cs)
);
}
);
width = 1088;
},
{
anchors = (
{
name = bottomright;
pos = (765,0);
},
{
name = medialRa;
pos = (1023,0);
},
{
name = top;
pos = (765,600);
}
);
associatedMasterId = m01;
background = {
anchors = (
{
name = bottomright;
pos = (544,0);
},
{
name = top;
pos = (544,600);
}
);
shapes = (
{
closed = 1;
nodes = (
(929,-10,o),
(1023,114,o),
(1023,294,cs),
(1023,440,o),
(945,554,o),
(834,590,c),
(803,521,l),
(886,494,o),
(939,409,o),
(939,294,cs),
(939,153,o),
(883,65,o),
(797,65,cs),
(742,65,o),
(706,82,o),
(671,145,c),
(635,53,l),
(679,8,o),
(731,-10,o),
(797,-10,cs)
);
},
{
closed = 1;
nodes = (
(357,-10,o),
(410,8,o),
(453,53,c),
(417,145,l),
(382,82,o),
(346,65,o),
(291,65,cs),
(205,65,o),
(149,154,o),
(149,294,cs),
(149,409,o),
(202,494,o),
(285,521,c),
(254,590,l),
(143,554,o),
(65,440,o),
(65,294,cs),
(65,115,o),
(159,-10,o),
(291,-10,cs)
);
},
{
closed = 1;
nodes = (
(641,-10,o),
(709,77,o),
(709,210,cs),
(709,343,o),
(641,430,o),
(544,430,cs),
(447,430,o),
(379,343,o),
(379,210,cs),
(379,77,o),
(447,-10,o),
(544,-10,cs)
);
},
{
closed = 1;
nodes = (
(493,63,o),
(459,117,o),
(459,210,cs),
(459,303,o),
(493,357,o),
(544,357,cs),
(595,357,o),
(629,303,o),
(629,210,cs),
(629,117,o),
(595,63,o),
(544,63,cs)
);
}
);
};
layerId = "E2559E35-F051-49EF-8063-30EB48E40DE9";
name = "20 Apr 22, 10:27";
shapes = (
{
closed = 1;
nodes = (
(551,-10,o),
(695,116,o),
(695,271,cs),
(695,373,o),
(634,450,o),
(544,450,cs),
(454,450,o),
(393,373,o),
(393,271,cs),
(393,116,o),
(537,-10,o),
(718,-10,cs),
(897,-10,o),
(1023,113,o),
(1023,294,cs),
(1023,440,o),
(942,560,o),
(821,590,c),
(784,524,l),
(881,498,o),
(939,413,o),
(939,294,cs),
(939,153,o),
(851,65,o),
(717,65,cs),
(579,65,o),
(469,159,o),
(469,276,cs),
(469,335,o),
(497,380,o),
(544,380,cs),
(591,380,o),
(619,335,o),
(619,276,cs),
(619,159,o),
(509,65,o),
(371,65,cs),
(237,65,o),
(149,153,o),
(149,294,cs),
(149,413,o),
(207,498,o),
(304,524,c),
(267,590,l),
(146,560,o),
(65,440,o),
(65,294,cs),
(65,113,o),
(191,-10,o),
(370,-10,cs)
);
}
);
width = 1088;
}
);
metricLeft = "=wa-chak";
metricRight = "=wa-chak";
script = chak;
subCategory = Spacing;
unicode = 57378;
},
{
category = Letter;
glyphname = "ya-chak";
lastChange = "2023-04-23 07:31:36 +0000";
layers = (
{
anchors = (
{
name = bottom;
pos = (544,0);
},
{
name = bottomright;
pos = (749,0);
},
{
name = medialRa;
pos = (1023,0);
},
{
name = top;
pos = (749,600);
}
);
background = {
anchors = (
{
name = bottomright;
pos = (764,0);
},
{
name = medialRa;
pos = (1023,0);
},
{
name = top;
pos = (764,600);
}
);
shapes = (
{
closed = 1;
nodes = (
(473,-10,o),
(578,112,o),
(578,290,c),
(510,290,l),
(510,112,o),
(615,-10,o),
(766,-10,cs),
(917,-10,o),
(1023,112,o),
(1023,290,cs),
(1023,468,o),
(919,590,o),
(762,590,c),
(755,515,l),
(874,515,o),
(939,429,o),
(939,290,cs),
(939,152,o),
(870,65,o),
(765,65,cs),
(657,65,o),
(586,152,o),
(586,290,cs),
(586,310,l),
(502,310,l),
(502,290,ls),
(502,152,o),
(431,65,o),
(323,65,cs),
(218,65,o),
(149,152,o),
(149,290,cs),
(149,429,o),
(214,515,o),
(333,515,c),
(326,590,l),
(169,590,o),
(65,468,o),
(65,290,cs),
(65,112,o),
(171,-10,o),
(322,-10,cs)
);
}
);
};
layerId = m01;
shapes = (
{
closed = 1;
nodes = (
(473,-10,o),
(578,112,o),
(578,290,c),
(510,290,l),
(510,112,o),
(615,-10,o),
(766,-10,cs),
(917,-10,o),
(1023,112,o),
(1023,290,c),
(939,290,l),
(939,152,o),
(870,65,o),
(765,65,cs),
(657,65,o),
(586,152,o),
(586,290,cs),
(586,310,l),
(502,310,l),
(502,290,ls),
(502,152,o),
(431,65,o),
(323,65,cs),
(218,65,o),
(149,152,o),
(149,290,c),
(65,290,l),
(65,112,o),
(171,-10,o),
(322,-10,cs)
);
},
{
ref = "_part.cap-chak";
},
{
pos = (1088,0);
ref = "_part.cap-chak";
scale = (-1,1);
}
);
width = 1088;
},
{
anchors = (
{
name = bottomright;
pos = (764,0);
},
{
name = medialRa;
pos = (1023,0);
},
{
name = top;
pos = (764,600);
}
);
associatedMasterId = m01;
background = {
anchors = (
{
name = bottomright;
pos = (764,0);
},
{
name = medialRa;
pos = (1023,0);
},
{
name = top;
pos = (764,600);
}
);
};
layerId = "8A8AF56B-5E61-4663-A5E5-699A5E7E29C2";
name = "18 May 22, 09:58";
shapes = (
{
closed = 1;
nodes = (
(175,590,o),
(65,463,o),
(65,290,cs),
(65,112,o),
(171,-10,o),
(322,-10,cs),
(473,-10,o),
(578,112,o),
(578,290,c),
(510,290,l),
(510,112,o),
(615,-10,o),
(766,-10,cs),
(917,-10,o),
(1023,112,o),
(1023,290,cs),
(1023,463,o),
(913,590,o),
(764,590,cs),
(715,590,o),
(668,577,o),
(638,555,c),
(670,488,l),
(693,504,o),
(731,515,o),
(764,515,cs),
(868,515,o),
(939,424,o),
(939,290,cs),
(939,152,o),
(870,65,o),
(765,65,cs),
(657,65,o),
(586,152,o),
(586,290,cs),
(586,310,l),
(502,310,l),
(502,290,ls),
(502,152,o),
(431,65,o),
(323,65,cs),
(218,65,o),
(149,152,o),
(149,290,cs),
(149,424,o),
(220,515,o),
(324,515,cs),
(357,515,o),
(395,504,o),
(418,488,c),
(450,555,l),
(420,577,o),
(373,590,o),
(324,590,cs)
);
}
);
width = 1088;
}
);
script = chak;
subCategory = Spacing;
unicode = 57379;
},
{
category = Letter;
glyphname = "ra-chak";
lastChange = "2023-04-23 07:31:40 +0000";
layers = (
{
anchors = (
{
name = bottom;
pos = (276,0);
},
{
name = bottomright;
pos = (276,0);
},
{
name = medialRa;
pos = (499,0);
},
{
name = top;
pos = (276,600);
}
);
background = {
shapes = (
{
closed = 0;
nodes = (
(492,381,ls),
(492,262,o),
(399,172,o),
(276,172,cs)
);
},
{
closed = 0;
nodes = (
(276,242,ls),
(356,242,o),
(412,300,o),
(412,381,cs)
);
},
{
closed = 1;
nodes = (
(60,255,o),
(135,172,o),
(233,172,cs),
(253,172,o),
(268,175,o),
(281,180,c),
(268,228,l),
(260,226,o),
(250,224,o),
(239,224,cs),
(169,224,o),
(119,282,o),
(119,381,c),
(60,381,l)
);
}
);
};
layerId = m01;
shapes = (
{
closed = 1;
nodes = (
(493,35,l),
(493,381,ls),
(493,500,o),
(399,590,o),
(276,590,cs),
(153,590,o),
(60,500,o),
(60,381,cs),
(60,263,o),
(136,172,o),
(244,172,cs),
(264,172,o),
(280,175,o),
(291,180,c),
(273,245,l),
(266,243,o),
(258,242,o),
(249,242,cs),
(183,242,o),
(140,301,o),
(140,381,cs),
(140,462,o),
(196,520,o),
(276,520,cs),
(356,520,o),
(413,462,o),
(413,381,cs),
(413,0,l)
);
},
{
closed = 1;
nodes = (
(577,0,l),
(577,70,l),
(453,70,l),
(413,0,l)
);
}
);
width = 622;
},
{
associatedMasterId = m01;
layerId = "4832C53E-5A9D-4F38-B203-B2FED915BD1D";
name = "12 Apr 22, 18:13";
shapes = (
{
closed = 1;
nodes = (
(493,35,l),
(493,381,ls),
(493,500,o),
(399,590,o),
(276,590,cs),
(153,590,o),
(60,500,o),
(60,381,cs),
(60,262,o),
(153,172,o),
(276,172,c),
(276,242,l),
(196,242,o),
(140,300,o),
(140,381,cs),
(140,462,o),
(196,520,o),
(276,520,cs),
(356,520,o),
(413,462,o),
(413,381,cs),
(413,0,l)
);
},
{
closed = 1;
nodes = (
(597,0,l),
(597,70,l),
(453,70,l),
(413,0,l)
);
}
);
width = 622;
},
{
anchors = (
{
name = bottomright;
pos = (276,0);
},
{
name = medialRa;
pos = (503,0);
},
{
name = top;
pos = (276,600);
}
);
associatedMasterId = m01;
background = {
shapes = (
{
closed = 0;
nodes = (
(492,381,ls),
(492,262,o),
(399,172,o),
(276,172,cs)
);
},
{
closed = 0;
nodes = (
(276,242,ls),
(356,242,o),
(412,300,o),
(412,381,cs)
);
}
);
};
layerId = "071D0040-4BC3-4D84-815B-F656374779FC";
name = "14 Apr 22, 11:45";
shapes = (
{
closed = 1;
nodes = (
(493,-37,l),
(493,381,ls),
(493,500,o),
(399,590,o),
(276,590,cs),
(153,590,o),
(60,500,o),
(60,381,cs),
(60,262,o),
(153,172,o),
(276,172,cs),
(317,172,o),
(350,181,o),
(371,195,c),
(349,255,l),
(327,245,o),
(303,242,o),
(276,242,cs),
(196,242,o),
(140,300,o),
(140,381,cs),
(140,462,o),
(196,520,o),
(276,520,cs),
(356,520,o),
(413,462,o),
(413,381,cs),
(413,-72,l)
);
},
{
closed = 1;
nodes = (
(597,-72,l),
(597,-2,l),
(453,-2,l),
(413,-72,l)
);
}
);
width = 622;
}
);
metricLeft = "=i-chak";
script = chak;
subCategory = Spacing;
unicode = 57380;
},
{
category = Letter;
glyphname = "la-chak";
lastChange = "2023-04-23 07:31:46 +0000";
layers = (
{
anchors = (
{
name = bottom;
pos = (544,0);
},
{
name = bottomright;
pos = (750,0);
},
{
name = medialRa;
pos = (1023,0);
},
{
name = top;
pos = (750,600);
}
);
background = {
shapes = (
{
pos = (438,0);
ref = "wa-chak";
}
);
};
layerId = m01;
shapes = (
{
closed = 1;
nodes = (
(442,-10,o),
(520,55,o),
(580,266,cs),
(635,460,o),
(684,515,o),
(777,515,cs),
(875,515,o),
(939,428,o),
(939,290,c),
(1023,290,l),
(1023,468,o),
(922,590,o),
(777,590,cs),
(646,590,o),
(568,525,o),
(508,314,cs),
(453,120,o),
(404,65,o),
(311,65,cs),
(213,65,o),
(149,152,o),
(149,290,c),
(65,290,l),
(65,112,o),
(166,-10,o),
(311,-10,cs)
);
},
{
ref = "_part.cap-chak";
},
{
angle = 180;
pos = (1088,580);
ref = "_part.cap-chak";
}
);
width = 1088;
},
{
anchors = (
{
name = bottomright;
pos = (750,0);
},
{
name = medialRa;
pos = (1023,0);
},
{
name = top;
pos = (750,600);
}
);
associatedMasterId = m01;
background = {
shapes = (
{
pos = (438,0);
ref = "wa-chak";
}
);
};
layerId = "564D9C18-EF92-441A-8B03-1C7411B90D36";
name = "18 May 22, 10:05";
shapes = (
{
closed = 1;
nodes = (
(442,-10,o),
(520,55,o),
(580,266,cs),
(635,460,o),
(684,515,o),
(777,515,cs),
(875,515,o),
(939,428,o),
(939,290,cs),
(939,156,o),
(868,65,o),
(764,65,cs),
(731,65,o),
(693,76,o),
(670,92,c),
(638,25,l),
(668,3,o),
(715,-10,o),
(764,-10,cs),
(913,-10,o),
(1023,117,o),
(1023,290,cs),
(1023,468,o),
(922,590,o),
(777,590,cs),
(646,590,o),
(568,525,o),
(508,314,cs),
(453,120,o),
(404,65,o),
(311,65,cs),
(213,65,o),
(149,152,o),
(149,290,cs),
(149,424,o),
(220,515,o),
(324,515,cs),
(357,515,o),
(395,504,o),
(418,488,c),
(450,555,l),
(420,577,o),
(373,590,o),
(324,590,cs),
(175,590,o),
(65,463,o),
(65,290,cs),
(65,112,o),
(166,-10,o),
(311,-10,cs)
);
}
);
width = 1088;
}
);
metricLeft = "=wa-myanmar";
metricRight = "=|";
script = chak;
subCategory = Spacing;
unicode = 57381;
},
{
category = Letter;
glyphname = "wa-chak";
lastChange = "2023-04-23 07:31:49 +0000";
layers = (
{
anchors = (
{
name = bottom;
pos = (369,0);
},
{
name = bottomright;
pos = (369,0);
},
{
name = medialRa;
pos = (673,0);
},
{
name = top;
pos = (369,600);
}
);
layerId = m01;
shapes = (
{
closed = 1;
nodes = (
(542,-10,o),
(673,119,o),
(673,290,cs),
(673,461,o),
(542,590,o),
(369,590,cs),
(196,590,o),
(65,461,o),
(65,290,cs),
(65,119,o),
(196,-10,o),
(369,-10,cs)
);
},
{
closed = 1;
nodes = (
(241,65,o),
(149,159,o),
(149,290,cs),
(149,421,o),
(241,515,o),
(369,515,cs),
(497,515,o),
(589,421,o),
(589,290,cs),
(589,159,o),
(497,65,o),
(369,65,cs)
);
}
);
width = 738;
}
);
metricRight = "=|";
script = chak;
subCategory = Spacing;
unicode = 57382;
},
{
category = Letter;
glyphname = "sa-chak";
lastChange = "2023-04-23 07:31:52 +0000";
layers = (
{
anchors = (
{
name = bottom;
pos = (457,0);
},
{
name = bottomright;
pos = (600,0);
},
{
name = medialRa;
pos = (858,0);
},
{
name = top;
pos = (600,600);
}
);
background = {
anchors = (
{
name = bottomright;
pos = (600,0);
},
{
name = medialRa;
pos = (858,0);
},
{
name = top;
pos = (600,600);
}
);
shapes = (
{
closed = 1;
nodes = (
(350,-10,o),
(440,112,o),
(440,290,cs),
(440,463,o),
(348,590,o),
(223,590,cs),
(147,590,o),
(84,554,o),
(55,479,c),
(125,448,l),
(141,488,o),
(175,515,o),
(226,515,cs),
(305,515,o),
(356,424,o),
(356,290,cs),
(356,152,o),
(302,65,o),
(220,65,cs),
(174,65,o),
(139,97,o),
(139,140,cs),
(139,183,o),
(174,215,o),
(220,215,cs),
(387,215,o),
(410,-10,o),
(607,-10,cs),
(755,-10,o),
(858,112,o),
(858,290,cs),
(858,463,o),
(748,590,o),
(599,590,cs),
(550,590,o),
(503,577,o),
(473,555,c),
(505,488,l),
(528,504,o),
(566,515,o),
(599,515,cs),
(703,515,o),
(774,424,o),
(774,290,cs),
(774,152,o),
(708,65,o),
(607,65,cs),
(456,65,o),
(406,290,o),
(220,290,cs),
(126,290,o),
(55,225,o),
(55,140,cs),
(55,55,o),
(126,-10,o),
(220,-10,cs)
);
}
);
};
layerId = m01;
shapes = (
{
pos = (923,0);
ref = "_part.cap-chak";
scale = (-1,1);
},
{
closed = 1;
nodes = (
(350,-10,o),
(440,112,o),
(440,290,cs),
(440,463,o),
(348,590,o),
(220,590,cs),
(146,590,o),
(82,548,o),
(55,479,c),
(124,445,l),
(142,487,o),
(175,515,o),
(220,515,cs),
(302,515,o),
(356,424,o),
(356,290,cs),
(356,152,o),
(302,65,o),
(220,65,cs),
(174,65,o),
(139,97,o),
(139,140,cs),
(139,183,o),
(174,215,o),
(220,215,cs),
(387,215,o),
(410,-10,o),
(607,-10,cs),
(755,-10,o),
(858,112,o),
(858,290,c),
(774,290,l),
(774,152,o),
(708,65,o),
(607,65,cs),
(456,65,o),
(406,290,o),
(220,290,cs),
(126,290,o),
(55,225,o),
(55,140,cs),
(55,55,o),
(126,-10,o),
(220,-10,cs)
);
}
);
width = 923;
},
{
associatedMasterId = m01;
background = {
shapes = (
{
closed = 0;
nodes = (
(25,102,l),
(79,33,o),
(165,-10,o),
(265,-10,cs),
(437,-10,o),
(567,119,o),
(567,290,cs),
(567,461,o),
(437,590,o),
(265,590,cs),
(165,590,o),
(79,547,o),
(25,478,c),
(88,429,l),
(126,482,o),
(189,515,o),
(265,515,cs),
(393,515,o),
(485,421,o),
(485,290,cs),
(485,159,o),
(393,65,o),
(265,65,cs),
(189,65,o),
(126,98,o),
(88,151,c)
);
},
{
closed = 0;
nodes = (
(546,106,l),
(600,35,o),
(687,-10,o),
(789,-10,cs),
(962,-10,o),
(1093,119,o),
(1093,290,cs),
(1093,461,o),
(962,590,o),
(789,590,c),
(789,515,l),
(917,515,o),
(1009,421,o),
(1009,290,cs),
(1009,159,o),
(917,65,o),
(789,65,cs),
(701,65,o),
(631,109,o),
(595,179,c)
);
}
);
};
layerId = "9E290C4E-AFF7-458C-8733-0CADB00E4D81";
name = "12 Apr 22, 17:59";
shapes = (
{
closed = 1;
nodes = (
(431,-10,o),
(567,119,o),
(567,290,cs),
(567,461,o),
(437,590,o),
(265,590,cs),
(165,590,o),
(79,547,o),
(25,478,c),
(88,429,l),
(126,482,o),
(189,515,o),
(265,515,cs),
(393,515,o),
(485,421,o),
(485,290,cs),
(485,159,o),
(387,65,o),
(250,65,cs),
(163,65,o),
(101,100,o),
(101,148,cs),
(101,194,o),
(161,227,o),
(237,227,cs),
(452,227,o),
(481,-10,o),
(736,-10,cs),
(904,-10,o),
(1030,119,o),
(1030,290,cs),
(1030,461,o),
(899,590,o),
(726,590,c),
(726,515,l),
(854,515,o),
(946,421,o),
(946,290,cs),
(946,159,o),
(859,65,o),
(736,65,cs),
(542,65,o),
(477,302,o),
(237,302,cs),
(118,302,o),
(25,236,o),
(25,148,cs),
(25,58,o),
(122,-10,o),
(250,-10,cs)
);
}
);
width = 1095;
},
{
anchors = (
{
name = bottomright;
pos = (727,0);
},
{
name = top;
pos = (727,600);
}
);
associatedMasterId = m01;
background = {
shapes = (
{
closed = 0;
nodes = (
(25,102,l),
(79,33,o),
(165,-10,o),
(265,-10,cs),
(437,-10,o),
(567,119,o),
(567,290,cs),
(567,461,o),
(437,590,o),
(265,590,cs),
(165,590,o),
(79,547,o),
(25,478,c),
(88,429,l),
(126,482,o),
(189,515,o),
(265,515,cs),
(393,515,o),
(485,421,o),
(485,290,cs),
(485,159,o),
(393,65,o),
(265,65,cs),
(189,65,o),
(126,98,o),
(88,151,c)
);
},
{
closed = 0;
nodes = (
(546,106,l),
(600,35,o),
(687,-10,o),
(789,-10,cs),
(962,-10,o),
(1093,119,o),
(1093,290,cs),
(1093,461,o),
(962,590,o),
(789,590,c),
(789,515,l),
(917,515,o),
(1009,421,o),
(1009,290,cs),
(1009,159,o),
(917,65,o),
(789,65,cs),
(701,65,o),
(631,109,o),
(595,179,c)
);
}
);
};
layerId = "0191632F-2E99-4CF4-BAD6-A90410D8242B";
name = "13 Apr 22, 12:01";
shapes = (
{
closed = 1;
nodes = (
(431,-10,o),
(567,119,o),
(567,290,cs),
(567,461,o),
(437,590,o),
(265,590,cs),
(165,590,o),
(79,547,o),
(25,478,c),
(88,429,l),
(126,482,o),
(189,515,o),
(265,515,cs),
(393,515,o),
(485,421,o),
(485,290,cs),
(485,159,o),
(387,65,o),
(250,65,cs),
(163,65,o),
(101,100,o),
(101,148,cs),
(101,194,o),
(161,227,o),
(237,227,cs),
(448,227,o),
(477,-10,o),
(727,-10,cs),
(879,-10,o),
(985,112,o),
(985,290,cs),
(985,463,o),
(875,590,o),
(726,590,cs),
(677,590,o),
(630,577,o),
(600,555,c),
(632,488,l),
(655,504,o),
(693,515,o),
(726,515,cs),
(830,515,o),
(901,424,o),
(901,290,cs),
(901,152,o),
(832,65,o),
(727,65,cs),
(536,65,o),
(472,302,o),
(237,302,cs),
(118,302,o),
(25,236,o),
(25,148,cs),
(25,58,o),
(122,-10,o),
(250,-10,cs)
);
}
);
width = 1050;
},
{
anchors = (
{
name = bottomright;
pos = (595,0);
},
{
name = medialRa;
pos = (853,0);
},
{
name = top;
pos = (595,600);
}
);
associatedMasterId = m01;
background = {
shapes = (
{
closed = 0;
nodes = (
(118,-10,l),
(299,-10,o),
(435,119,o),
(435,290,cs),
(435,461,o),
(305,590,o),
(133,590,cs)
);
},
{
closed = 0;
nodes = (
(105,227,l),
(316,227,o),
(345,-10,o),
(595,-10,cs),
(747,-10,o),
(853,112,o),
(853,290,cs),
(853,463,o),
(743,590,o),
(594,590,cs),
(545,590,o),
(498,577,o),
(468,555,c),
(500,488,l),
(523,504,o),
(561,515,o),
(594,515,cs),
(698,515,o),
(769,424,o),
(769,290,cs),
(769,152,o),
(700,65,o),
(595,65,cs),
(404,65,o),
(340,302,o),
(105,302,cs)
);
},
{
closed = 0;
nodes = (
(133,515,l),
(261,515,o),
(353,421,o),
(353,290,cs),
(353,159,o),
(255,65,o),
(118,65,cs)
);
},
{
closed = 1;
nodes = (
(345,-10,o),
(435,112,o),
(435,290,cs),
(435,463,o),
(325,590,o),
(176,590,cs),
(127,590,o),
(80,577,o),
(50,555,c),
(82,488,l),
(105,504,o),
(143,515,o),
(176,515,cs),
(280,515,o),
(351,424,o),
(351,290,cs),
(351,152,o),
(297,65,o),
(215,65,cs),
(169,65,o),
(134,97,o),
(134,140,cs),
(134,183,o),
(169,215,o),
(215,215,cs),
(265,215,o),
(316,183,o),
(332,118,c),
(396,166,l),
(347,250,o),
(292,290,o),
(215,290,cs),
(121,290,o),
(50,225,o),
(50,140,cs),
(50,55,o),
(121,-10,o),
(215,-10,cs)
);
}
);
};
layerId = "7F35CB97-C1B9-46F4-A192-FAF07EB6294D";
name = "18 May 22, 08:13";
shapes = (
{
closed = 1;
nodes = (
(345,-10,o),
(435,112,o),
(435,290,cs),
(435,463,o),
(325,590,o),
(176,590,cs),
(127,590,o),
(80,577,o),
(50,555,c),
(82,488,l),
(105,504,o),
(143,515,o),
(176,515,cs),
(280,515,o),
(351,424,o),
(351,290,cs),
(351,152,o),
(297,65,o),
(215,65,cs),
(169,65,o),
(134,97,o),
(134,140,cs),
(134,183,o),
(169,215,o),
(215,215,cs),
(382,215,o),
(405,-10,o),
(602,-10,cs),
(750,-10,o),
(853,112,o),
(853,290,cs),
(853,463,o),
(743,590,o),
(594,590,cs),
(545,590,o),
(498,577,o),
(468,555,c),
(500,488,l),
(523,504,o),
(561,515,o),
(594,515,cs),
(698,515,o),
(769,424,o),
(769,290,cs),
(769,152,o),
(703,65,o),
(602,65,cs),
(451,65,o),
(401,290,o),
(215,290,cs),
(121,290,o),
(50,225,o),
(50,140,cs),
(50,55,o),
(121,-10,o),
(215,-10,cs)
);
}
);
width = 918;
},
{
anchors = (
{
name = bottomright;
pos = (595,0);
},
{
name = medialRa;
pos = (853,0);
},
{
name = top;
pos = (595,600);
}
);
associatedMasterId = m01;
background = {
shapes = (
{
closed = 0;
nodes = (
(118,-10,l),
(299,-10,o),
(435,119,o),
(435,290,cs),
(435,461,o),
(305,590,o),
(133,590,cs)
);
},
{
closed = 0;
nodes = (
(105,227,l),
(316,227,o),
(345,-10,o),
(595,-10,cs),
(747,-10,o),
(853,112,o),
(853,290,cs),
(853,463,o),
(743,590,o),
(594,590,cs),
(545,590,o),
(498,577,o),
(468,555,c),
(500,488,l),
(523,504,o),
(561,515,o),
(594,515,cs),
(698,515,o),
(769,424,o),
(769,290,cs),
(769,152,o),
(700,65,o),
(595,65,cs),
(404,65,o),
(340,302,o),
(105,302,cs)
);
},
{
closed = 0;
nodes = (
(133,515,l),
(261,515,o),
(353,421,o),
(353,290,cs),
(353,159,o),
(255,65,o),
(118,65,cs)
);
},
{
closed = 1;
nodes = (
(345,-10,o),
(435,112,o),
(435,290,cs),
(435,463,o),
(325,590,o),
(176,590,cs),
(127,590,o),
(80,577,o),
(50,555,c),
(82,488,l),
(105,504,o),
(143,515,o),
(176,515,cs),
(280,515,o),
(351,424,o),
(351,290,cs),
(351,152,o),
(297,65,o),
(215,65,cs),
(169,65,o),
(134,97,o),
(134,140,cs),
(134,183,o),
(169,215,o),
(215,215,cs),
(265,215,o),
(316,183,o),
(332,118,c),
(396,166,l),
(347,250,o),
(292,290,o),
(215,290,cs),
(121,290,o),
(50,225,o),
(50,140,cs),
(50,55,o),
(121,-10,o),
(215,-10,cs)
);
}
);
};
layerId = "90E105A1-C82B-4BD5-9E98-0582D83CF28E";
name = "18 May 22, 10:22";
shapes = (
{
closed = 1;
nodes = (
(345,-10,o),
(435,112,o),
(435,290,cs),
(435,463,o),
(343,590,o),
(218,590,cs),
(142,590,o),
(79,554,o),
(50,479,c),
(120,448,l),
(136,488,o),
(170,515,o),
(221,515,cs),
(300,515,o),
(351,424,o),
(351,290,cs),
(351,152,o),
(297,65,o),
(215,65,cs),
(169,65,o),
(134,97,o),
(134,140,cs),
(134,183,o),
(169,215,o),
(215,215,cs),
(382,215,o),
(405,-10,o),
(602,-10,cs),
(750,-10,o),
(853,112,o),
(853,290,cs),
(853,463,o),
(743,590,o),
(594,590,cs),
(545,590,o),
(498,577,o),
(468,555,c),
(500,488,l),
(523,504,o),
(561,515,o),
(594,515,cs),
(698,515,o),
(769,424,o),
(769,290,cs),
(769,152,o),
(703,65,o),
(602,65,cs),
(451,65,o),
(401,290,o),
(215,290,cs),
(121,290,o),
(50,225,o),
(50,140,cs),
(50,55,o),
(121,-10,o),
(215,-10,cs)
);
}
);
width = 918;
}
);
metricRight = "=wa-chak";
script = chak;
subCategory = Spacing;
unicode = 57383;
},
{
category = Letter;
glyphname = "sha-chak";
lastChange = "2023-04-23 07:31:56 +0000";
layers = (
{
anchors = (
{
name = bottom;
pos = (405,0);
},
{
name = bottomright;
pos = (555,0);
},
{
name = medialRa;
pos = (809,0);
},
{
name = top;
pos = (555,600);
}
);
background = {
shapes = (
{
closed = 1;
nodes = (
(336,-10,o),
(446,117,o),
(446,290,cs),
(446,468,o),
(340,590,o),
(189,590,cs),
(103,590,o),
(30,549,o),
(-15,482,c),
(34,401,l),
(60,472,o),
(119,515,o),
(190,515,cs),
(295,515,o),
(364,428,o),
(364,290,cs),
(364,156,o),
(293,65,o),
(189,65,cs),
(156,65,o),
(118,76,o),
(95,92,c),
(63,25,l),
(93,3,o),
(139,-10,o),
(188,-10,cs)
);
},
{
closed = 1;
nodes = (
(673,-10,o),
(719,3,o),
(749,25,c),
(717,92,l),
(694,76,o),
(656,65,o),
(623,65,cs),
(519,65,o),
(448,156,o),
(448,290,cs),
(448,428,o),
(517,515,o),
(622,515,cs),
(693,515,o),
(752,472,o),
(778,401,c),
(827,482,l),
(782,549,o),
(709,590,o),
(623,590,cs),
(472,590,o),
(366,468,o),
(366,290,cs),
(366,117,o),
(476,-10,o),
(624,-10,cs)
);
}
);
};
layerId = m01;
shapes = (
{
closed = 1;
nodes = (
(315,-10,o),
(446,141,o),
(446,331,cs),
(446,488,o),
(355,590,o),
(234,590,cs),
(136,590,o),
(62,521,o),
(62,427,cs),
(62,293,o),
(196,191,o),
(377,191,cs),
(431,191,ls),
(612,191,o),
(746,293,o),
(746,427,cs),
(746,521,o),
(672,590,o),
(575,590,cs),
(455,590,o),
(366,487,o),
(366,332,cs),
(366,141,o),
(497,-10,o),
(676,-10,cs),
(731,-10,o),
(779,4,o),
(809,30,c),
(777,97,l),
(756,77,o),
(718,65,o),
(674,65,cs),
(539,65,o),
(448,178,o),
(448,334,cs),
(448,449,o),
(500,520,o),
(574,520,cs),
(624,520,o),
(666,484,o),
(666,424,cs),
(666,328,o),
(572,261,o),
(431,261,cs),
(377,261,ls),
(237,261,o),
(142,329,o),
(142,424,cs),
(142,482,o),
(182,520,o),
(235,520,cs),
(310,520,o),
(364,449,o),
(364,333,cs),
(364,179,o),
(273,65,o),
(139,65,cs),
(95,65,o),
(56,77,o),
(35,97,c),
(3,30,l),
(33,4,o),
(81,-10,o),
(136,-10,cs)
);
}
);
width = 812;
},
{
associatedMasterId = m01;
background = {
shapes = (
{
closed = 1;
nodes = (
(314,-10,o),
(424,117,o),
(424,290,cs),
(424,468,o),
(318,590,o),
(167,590,cs),
(81,590,o),
(8,549,o),
(-37,482,c),
(12,401,l),
(38,472,o),
(97,515,o),
(168,515,cs),
(273,515,o),
(342,428,o),
(342,290,cs),
(342,156,o),
(271,65,o),
(167,65,cs),
(134,65,o),
(96,76,o),
(73,92,c),
(41,25,l),
(71,3,o),
(117,-10,o),
(166,-10,cs)
);
},
{
closed = 1;
nodes = (
(651,-10,o),
(697,3,o),
(727,25,c),
(695,92,l),
(672,76,o),
(634,65,o),
(601,65,cs),
(497,65,o),
(426,156,o),
(426,290,cs),
(426,428,o),
(495,515,o),
(600,515,cs),
(671,515,o),
(730,472,o),
(756,401,c),
(805,482,l),
(760,549,o),
(687,590,o),
(601,590,cs),
(450,590,o),
(344,468,o),
(344,290,cs),
(344,117,o),
(454,-10,o),
(602,-10,cs)
);
}
);
};
layerId = "A89B4569-6E1D-4B1B-9474-3EA52188469B";
name = "13 Apr 22, 11:03";
shapes = (
{
closed = 0;
nodes = (
(330,331,l),
(210,331,o),
(140,370,o),
(140,437,cs),
(140,485,o),
(182,520,o),
(241,520,cs),
(300,520,o),
(342,479,o),
(342,422,c)
);
},
{
closed = 0;
nodes = (
(434,261,l),
(595,261,o),
(704,332,o),
(704,437,cs),
(704,524,o),
(626,590,o),
(524,590,cs),
(422,590,o),
(344,518,o),
(344,422,c)
);
},
{
closed = 0;
nodes = (
(422,422,l),
(422,479,o),
(464,520,o),
(523,520,cs),
(582,520,o),
(624,485,o),
(624,437,cs),
(624,370,o),
(554,331,o),
(434,331,cs)
);
},
{
closed = 0;
nodes = (
(420,422,l),
(420,518,o),
(342,590,o),
(240,590,cs),
(138,590,o),
(60,524,o),
(60,437,cs),
(60,332,o),
(169,261,o),
(330,261,c)
);
},
{
closed = 0;
nodes = (
(342,290,ls),
(342,156,o),
(271,65,o),
(167,65,cs),
(134,65,o),
(96,76,o),
(73,92,c),
(41,25,l),
(71,3,o),
(117,-10,o),
(166,-10,cs),
(314,-10,o),
(424,117,o),
(424,290,cs)
);
},
{
closed = 0;
nodes = (
(344,290,ls),
(344,117,o),
(454,-10,o),
(602,-10,cs),
(651,-10,o),
(697,3,o),
(727,25,c),
(695,92,l),
(672,76,o),
(634,65,o),
(601,65,cs),
(497,65,o),
(426,156,o),
(426,290,cs)
);
}
);
width = 764;
},
{
anchors = (
{
name = bottomright;
pos = (555,0);
},
{
name = medialRa;
pos = (759,0);
},
{
name = top;
pos = (555,600);
}
);
associatedMasterId = m01;
background = {
shapes = (
{
closed = 1;
nodes = (
(336,-10,o),
(446,117,o),
(446,290,cs),
(446,468,o),
(340,590,o),
(189,590,cs),
(103,590,o),
(30,549,o),
(-15,482,c),
(34,401,l),
(60,472,o),
(119,515,o),
(190,515,cs),
(295,515,o),
(364,428,o),
(364,290,cs),
(364,156,o),
(293,65,o),
(189,65,cs),
(156,65,o),
(118,76,o),
(95,92,c),
(63,25,l),
(93,3,o),
(139,-10,o),
(188,-10,cs)
);
},
{
closed = 1;
nodes = (
(673,-10,o),
(719,3,o),
(749,25,c),
(717,92,l),
(694,76,o),
(656,65,o),
(623,65,cs),
(519,65,o),
(448,156,o),
(448,290,cs),
(448,428,o),
(517,515,o),
(622,515,cs),
(693,515,o),
(752,472,o),
(778,401,c),
(827,482,l),
(782,549,o),
(709,590,o),
(623,590,cs),
(472,590,o),
(366,468,o),
(366,290,cs),
(366,117,o),
(476,-10,o),
(624,-10,cs)
);
}
);
};
layerId = "3174ECFB-755A-43B2-BAB5-D121C4DD89FB";
name = "18 May 22, 08:42";
shapes = (
{
closed = 1;
nodes = (
(336,-10,o),
(446,138,o),
(446,340,cs),
(446,483,o),
(355,590,o),
(234,590,cs),
(136,590,o),
(62,520,o),
(62,427,cs),
(62,304,o),
(189,221,o),
(377,221,cs),
(431,221,ls),
(619,221,o),
(746,304,o),
(746,427,cs),
(746,520,o),
(672,590,o),
(574,590,cs),
(456,590,o),
(366,483,o),
(366,340,cs),
(366,138,o),
(476,-10,o),
(624,-10,cs),
(673,-10,o),
(719,3,o),
(749,25,c),
(717,92,l),
(694,76,o),
(656,65,o),
(623,65,cs),
(519,65,o),
(448,176,o),
(448,340,cs),
(448,445,o),
(500,520,o),
(573,520,cs),
(627,520,o),
(666,481,o),
(666,427,cs),
(666,341,o),
(580,291,o),
(431,291,cs),
(377,291,ls),
(229,291,o),
(142,341,o),
(142,427,cs),
(142,481,o),
(181,520,o),
(235,520,cs),
(310,520,o),
(364,445,o),
(364,340,cs),
(364,176,o),
(293,65,o),
(189,65,cs),
(156,65,o),
(118,76,o),
(95,92,c),
(63,25,l),
(93,3,o),
(139,-10,o),
(188,-10,cs)
);
}
);
width = 811;
}
);
metricRight = "=|";
script = chak;
subCategory = Spacing;
unicode = 57384;
},
{
category = Letter;
glyphname = "ha-chak";
lastChange = "2023-04-23 07:32:04 +0000";
layers = (
{
anchors = (
{
name = bottom;
pos = (329,0);
},
{
name = bottomright;
pos = (248,0);
},
{
name = medialRa;
pos = (602,0);
},
{
name = top;
pos = (248,600);
}
);
background = {
anchors = (
{
name = bottomright;
pos = (248,0);
},
{
name = medialRa;
pos = (628,0);
},
{
name = top;
pos = (248,600);
}
);
shapes = (
{
closed = 1;
nodes = (
(350,-10,o),
(440,112,o),
(440,290,cs),
(440,463,o),
(330,590,o),
(181,590,cs),
(132,590,o),
(85,577,o),
(55,555,c),
(87,488,l),
(110,504,o),
(148,515,o),
(181,515,cs),
(285,515,o),
(356,424,o),
(356,290,cs),
(356,152,o),
(302,65,o),
(220,65,cs),
(174,65,o),
(139,97,o),
(139,137,cs),
(139,199,o),
(218,244,o),
(326,244,cs),
(436,244,o),
(542,203,o),
(542,33,cs),
(542,0,l),
(618,0,l),
(618,33,ls),
(618,247,o),
(476,319,o),
(326,319,cs),
(169,319,o),
(55,241,o),
(55,137,cs),
(55,55,o),
(126,-10,o),
(220,-10,cs)
);
}
);
};
layerId = m01;
shapes = (
{
closed = 1;
nodes = (
(350,-10,o),
(440,112,o),
(440,290,cs),
(440,464,o),
(347,590,o),
(220,590,cs),
(145,590,o),
(82,547,o),
(55,479,c),
(124,445,l),
(143,490,o),
(178,515,o),
(220,515,cs),
(301,515,o),
(356,425,o),
(356,290,cs),
(356,153,o),
(303,65,o),
(220,65,cs),
(174,65,o),
(139,97,o),
(139,140,cs),
(139,192,o),
(186,230,o),
(292,230,cs),
(413,230,o),
(497,182,o),
(535,102,c),
(602,141,l),
(560,242,o),
(438,305,o),
(291,305,cs),
(113,305,o),
(55,212,o),
(55,140,cs),
(55,55,o),
(126,-10,o),
(220,-10,cs)
);
}
);
width = 617;
},
{
anchors = (
{
name = bottomright;
pos = (342,0);
},
{
name = top;
pos = (342,600);
}
);
associatedMasterId = m01;
layerId = "4AC6436A-694D-47DE-ADDE-C05C00B647A7";
name = "13 Apr 22, 12:07";
shapes = (
{
closed = 1;
nodes = (
(344,-10,o),
(422,62,o),
(422,158,cs),
(422,422,ls),
(422,518,o),
(350,590,o),
(255,590,cs),
(166,590,o),
(103,548,o),
(80,472,c),
(155,442,l),
(168,493,o),
(202,520,o),
(255,520,cs),
(305,520,o),
(342,478,o),
(342,422,cs),
(342,158,ls),
(342,101,o),
(300,60,o),
(241,60,cs),
(182,60,o),
(140,95,o),
(140,143,cs),
(140,210,o),
(210,249,o),
(330,249,cs),
(448,249,o),
(520,204,o),
(520,129,cs),
(520,93,o),
(510,58,o),
(492,33,c),
(553,-10,l),
(579,17,o),
(600,69,o),
(600,129,cs),
(600,243,o),
(491,319,o),
(330,319,cs),
(169,319,o),
(60,248,o),
(60,143,cs),
(60,56,o),
(138,-10,o),
(241,-10,cs)
);
}
);
width = 660;
},
{
anchors = (
{
name = bottomright;
pos = (243,0);
},
{
name = medialRa;
pos = (610,0);
},
{
name = top;
pos = (243,600);
}
);
associatedMasterId = m01;
background = {
anchors = (
{
name = bottomright;
pos = (342,0);
},
{
name = top;
pos = (342,600);
}
);
shapes = (
{
closed = 1;
nodes = (
(344,-10,o),
(422,62,o),
(422,158,cs),
(422,422,ls),
(422,518,o),
(350,590,o),
(255,590,cs),
(166,590,o),
(103,548,o),
(80,472,c),
(155,442,l),
(168,493,o),
(202,520,o),
(255,520,cs),
(305,520,o),
(342,478,o),
(342,422,cs),
(342,158,ls),
(342,101,o),
(300,60,o),
(241,60,cs),
(182,60,o),
(140,95,o),
(140,143,cs),
(140,210,o),
(210,249,o),
(330,249,cs),
(448,249,o),
(520,204,o),
(520,129,cs),
(520,93,o),
(510,58,o),
(492,33,c),
(553,-10,l),
(579,17,o),
(600,69,o),
(600,129,cs),
(600,243,o),
(491,319,o),
(330,319,cs),
(169,319,o),
(60,248,o),
(60,143,cs),
(60,56,o),
(138,-10,o),
(241,-10,cs)
);
}
);
};
layerId = "B69E69F4-8F9B-45E2-869D-0B574AA44BD4";
name = "13 Apr 22, 19:12";
shapes = (
{
closed = 1;
nodes = (
(345,-10,o),
(435,112,o),
(435,290,cs),
(435,463,o),
(325,590,o),
(176,590,cs),
(127,590,o),
(80,577,o),
(50,555,c),
(82,488,l),
(105,504,o),
(143,515,o),
(176,515,cs),
(280,515,o),
(351,424,o),
(351,290,cs),
(351,152,o),
(297,65,o),
(215,65,cs),
(169,65,o),
(134,97,o),
(134,137,cs),
(134,199,o),
(213,244,o),
(321,244,cs),
(442,244,o),
(520,195,o),
(520,112,cs),
(520,82,o),
(510,54,o),
(492,33,c),
(553,-10,l),
(579,14,o),
(600,59,o),
(600,112,cs),
(600,236,o),
(485,319,o),
(321,319,cs),
(164,319,o),
(50,241,o),
(50,137,cs),
(50,55,o),
(121,-10,o),
(215,-10,cs)
);
}
);
width = 630;
}
);
metricLeft = "=sa-chak";
script = chak;
subCategory = Spacing;
unicode = 57385;
},
{
category = Letter;
glyphname = "ddda-chak";
lastChange = "2023-04-23 07:32:07 +0000";
layers = (
{
anchors = (
{
name = bottom;
pos = (275,0);
},
{
name = bottomright;
pos = (275,0);
},
{
name = medialRa;
pos = (478,0);
},
{
name = top;
pos = (275,600);
}
);
layerId = m01;
shapes = (
{
closed = 1;
nodes = (
(396,172,o),
(488,262,o),
(488,381,cs),
(488,500,o),
(396,590,o),
(275,590,cs),
(153,590,o),
(60,500,o),
(60,381,cs),
(60,262,o),
(153,172,o),
(275,172,cs)
);
},
{
closed = 1;
nodes = (
(162,0,l),
(296,203,l),
(210,203,l),
(72,0,l)
);
},
{
closed = 1;
nodes = (
(478,0,l),
(340,203,l),
(254,203,l),
(388,0,l)
);
},
{
closed = 1;
nodes = (
(196,238,o),
(140,298,o),
(140,381,cs),
(140,464,o),
(196,524,o),
(275,524,cs),
(354,524,o),
(410,464,o),
(410,381,cs),
(410,298,o),
(354,238,o),
(275,238,cs)
);
}
);
width = 548;
}
);
metricLeft = "=i-myanmar";
metricRight = "=|";
script = chak;
subCategory = Spacing;
unicode = 57386;
},
{
category = Letter;
glyphname = "bba-chak";
lastChange = "2023-04-23 07:32:18 +0000";
layers = (
{
anchors = (
{
name = bottom;
pos = (527,0);
},
{
name = bottomright;
pos = (789,0);
},
{
name = medialRa;
pos = (1029,0);
},
{
name = top;
pos = (789,600);
}
);
layerId = m01;
shapes = (
{
closed = 1;
nodes = (
(437,-10,o),
(567,119,o),
(567,290,cs),
(567,461,o),
(437,590,o),
(265,590,cs),
(165,590,o),
(79,547,o),
(25,478,c),
(88,429,l),
(126,482,o),
(189,515,o),
(265,515,cs),
(393,515,o),
(485,421,o),
(485,290,cs),
(485,159,o),
(393,65,o),
(265,65,cs),
(189,65,o),
(126,98,o),
(88,151,c),
(25,102,l),
(79,33,o),
(165,-10,o),
(265,-10,cs)
);
},
{
closed = 1;
nodes = (
(889,-10,o),
(975,33,o),
(1029,102,c),
(966,151,l),
(928,98,o),
(865,65,o),
(789,65,cs),
(661,65,o),
(569,159,o),
(569,290,cs),
(569,421,o),
(661,515,o),
(789,515,cs),
(865,515,o),
(928,482,o),
(966,429,c),
(1029,478,l),
(975,547,o),
(889,590,o),
(789,590,cs),
(617,590,o),
(487,461,o),
(487,290,cs),
(487,119,o),
(617,-10,o),
(789,-10,cs)
);
}
);
width = 1054;
}
);
metricRight = "=|";
script = chak;
subCategory = Spacing;
unicode = 57387;
},
{
category = Letter;
glyphname = "aaSign-chak";
lastChange = "2023-04-23 06:54:17 +0000";
layers = (
{
anchors = (
{
name = bottomright;
pos = (59,0);
},
{
name = top;
pos = (59,600);
}
);
background = {
shapes = (
{
closed = 1;
nodes = (
(147,515,o),
(217,471,o),
(253,401,c),
(302,474,l),
(248,545,o),
(161,590,o),
(59,590,cs),
(-93,590,o),
(-199,468,o),
(-199,290,cs),
(-199,117,o),
(-89,-10,o),
(60,-10,cs),
(109,-10,o),
(156,3,o),
(186,25,c),
(154,92,l),
(131,76,o),
(93,65,o),
(60,65,cs),
(-44,65,o),
(-115,156,o),
(-115,290,cs),
(-115,428,o),
(-46,515,o),
(59,515,cs)
);
}
);
};
layerId = m01;
shapes = (
{
closed = 1;
nodes = (
(207,-10,o),
(317,117,o),
(317,290,cs),
(317,468,o),
(211,590,o),
(59,590,cs),
(-27,590,o),
(-101,549,o),
(-146,482,c),
(-97,401,l),
(-71,472,o),
(-12,515,o),
(59,515,cs),
(164,515,o),
(233,428,o),
(233,290,cs),
(233,156,o),
(162,65,o),
(58,65,c),
(58,-10,l)
);
}
);
width = 382;
},
{
associatedMasterId = m01;
layerId = "9C2B4FF7-B0E3-45D3-9F33-91BCBFB2C5D7";
name = "12 Apr 22, 18:01";
shapes = (
{
closed = 1;
nodes = (
(232,-10,o),
(363,119,o),
(363,290,cs),
(363,461,o),
(232,590,o),
(59,590,cs),
(-43,590,o),
(-130,545,o),
(-184,474,c),
(-135,401,l),
(-99,471,o),
(-29,515,o),
(59,515,cs),
(187,515,o),
(279,421,o),
(279,290,cs),
(279,159,o),
(187,65,o),
(59,65,c),
(59,-10,l)
);
}
);
width = 428;
},
{
anchors = (
{
name = bottomright;
pos = (59,0);
},
{
name = top;
pos = (59,600);
}
);
associatedMasterId = m01;
background = {
shapes = (
{
closed = 1;
nodes = (
(147,515,o),
(217,471,o),
(253,401,c),
(302,474,l),
(248,545,o),
(161,590,o),
(59,590,cs),
(-93,590,o),
(-199,468,o),
(-199,290,cs),
(-199,117,o),
(-89,-10,o),
(60,-10,cs),
(109,-10,o),
(156,3,o),
(186,25,c),
(154,92,l),
(131,76,o),
(93,65,o),
(60,65,cs),
(-44,65,o),
(-115,156,o),
(-115,290,cs),
(-115,428,o),
(-46,515,o),
(59,515,cs)
);
}
);
};
layerId = "78949756-D54A-4B60-A59C-4721036616AF";
name = "13 Apr 22, 22:07";
shapes = (
{
closed = 1;
nodes = (
(207,-10,o),
(317,117,o),
(317,290,cs),
(317,468,o),
(211,590,o),
(59,590,cs),
(-27,590,o),
(-101,549,o),
(-146,482,c),
(-97,401,l),
(-71,472,o),
(-12,515,o),
(59,515,cs),
(164,515,o),
(233,428,o),
(233,290,cs),
(233,156,o),
(162,65,o),
(58,65,cs),
(25,65,o),
(-13,76,o),
(-36,92,c),
(-68,25,l),
(-38,3,o),
(9,-10,o),
(58,-10,cs)
);
}
);
width = 382;
}
);
metricRight = "=wa-myanmar";
script = chak;
subCategory = Spacing;
unicode = 57388;
},
{
category = Mark;
glyphname = "iMark-chak";
lastChange = "2023-04-23 06:54:20 +0000";
layers = (
{
anchors = (
{
name = _top;
pos = (231,600);
},
{
name = top;
pos = (231,977);
}
);
layerId = m01;
shapes = (
{
closed = 1;
nodes = (
(334,655,o),
(412,731,o),
(412,831,cs),
(412,932,o),
(334,1007,o),
(231,1007,cs),
(128,1007,o),
(50,932,o),
(50,831,cs),
(50,731,o),
(128,655,o),
(231,655,cs)
);
},
{
closed = 1;
nodes = (
(170,721,o),
(126,767,o),
(126,831,cs),
(126,894,o),
(170,941,o),
(231,941,cs),
(293,941,o),
(336,894,o),
(336,831,cs),
(336,767,o),
(293,721,o),
(231,721,cs)
);
}
);
width = 462;
}
);
metricLeft = "=50";
metricRight = "=50";
script = chak;
subCategory = Nonspacing;
unicode = 57389;
},
{
category = Mark;
glyphname = "iiMark-chak";
lastChange = "2023-04-23 06:54:23 +0000";
layers = (
{
anchors = (
{
name = _top;
pos = (231,600);
},
{
name = top;
pos = (231,977);
}
);
background = {
anchors = (
{
name = _top;
pos = (231,600);
}
);
shapes = (
{
closed = 1;
nodes = (
(329,655,o),
(403,728,o),
(403,824,cs),
(403,921,o),
(329,993,o),
(231,993,cs),
(133,993,o),
(59,921,o),
(59,824,cs),
(59,728,o),
(133,655,o),
(231,655,cs)
);
},
{
closed = 1;
nodes = (
(167,769,o),
(200,779,o),
(231,779,cs),
(262,779,o),
(295,769,o),
(327,739,c),
(359,768,l),
(335,808,o),
(277,833,o),
(231,833,cs),
(185,833,o),
(127,808,o),
(103,768,c),
(135,739,l)
);
},
{
closed = 1;
nodes = (
(169,714,o),
(124,760,o),
(124,824,cs),
(124,888,o),
(169,935,o),
(231,935,cs),
(294,935,o),
(338,888,o),
(338,824,cs),
(338,760,o),
(294,714,o),
(231,714,cs)
);
}
);
};
layerId = m01;
shapes = (
{
closed = 1;
nodes = (
(334,655,o),
(412,731,o),
(412,831,cs),
(412,932,o),
(334,1007,o),
(231,1007,cs),
(128,1007,o),
(50,932,o),
(50,831,cs),
(50,731,o),
(128,655,o),
(231,655,cs)
);
},
{
closed = 1;
nodes = (
(166,719,o),
(119,766,o),
(119,831,cs),
(119,896,o),
(166,943,o),
(231,943,cs),
(297,943,o),
(343,896,o),
(343,831,cs),
(343,766,o),
(297,719,o),
(231,719,cs)
);
},
{
closed = 1;
nodes = (
(167,801,o),
(200,811,o),
(231,811,cs),
(262,811,o),
(295,801,o),
(327,771,c),
(359,800,l),
(335,840,o),
(277,865,o),
(231,865,cs),
(185,865,o),
(127,840,o),
(103,800,c),
(135,771,l)
);
}
);
width = 462;
}
);
metricLeft = "=50";
metricRight = "=50";
script = chak;
subCategory = Nonspacing;
unicode = 57390;
},
{
category = Letter;
glyphname = "uMark-chak";
lastChange = "2023-04-23 06:54:29 +0000";
layers = (
{
anchors = (
{
name = bottomright;
pos = (192,-155);
},
{
name = top;
pos = (115,600);
}
);
layerId = m01;
shapes = (
{
closed = 1;
nodes = (
(75,-155,l),
(155,-120,l),
(155,580,l),
(75,580,l)
);
},
{
closed = 1;
nodes = (
(75,-155,l),
(309,-155,l),
(309,-85,l),
(114,-85,l)
);
}
);
width = 230;
}
);
metricLeft = "=littlesection-chak";
metricRight = "=|@290";
script = chak;
subCategory = Spacing;
unicode = 57391;
},
{
category = Letter;
glyphname = "uuMark-chak";
lastChange = "2023-04-23 06:54:33 +0000";
layers = (
{
anchors = (
{
name = bottomright;
pos = (218,-155);
},
{
name = top;
pos = (218,600);
}
);
layerId = m01;
shapes = (
{
closed = 1;
nodes = (
(155,-155,l),
(155,580,l),
(75,580,l),
(75,-155,l)
);
},
{
pos = (206,0);
ref = "uMark-chak";
}
);
width = 436;
}
);
metricLeft = "uMark-chak";
metricRight = "uMark-chak";
script = chak;
subCategory = Spacing;
unicode = 57392;
},
{
category = Letter;
glyphname = "eSign-chak";
lastChange = "2023-04-23 06:54:46 +0000";
layers = (
{
background = {
shapes = (
{
closed = 1;
nodes = (
(155,290,o),
(65,168,o),
(65,-10,cs),
(65,-183,o),
(175,-310,o),
(324,-310,cs),
(373,-310,o),
(420,-297,o),
(450,-275,c),
(418,-208,l),
(395,-224,o),
(357,-235,o),
(324,-235,cs),
(220,-235,o),
(149,-144,o),
(149,-10,cs),
(149,128,o),
(203,215,o),
(285,215,cs),
(331,215,o),
(366,183,o),
(366,140,cs),
(366,97,o),
(331,65,o),
(285,65,cs),
(233,65,o),
(172,110,o),
(142,163,c),
(109,104,l),
(157,27,o),
(211,-10,o),
(285,-10,cs),
(379,-10,o),
(450,55,o),
(450,140,cs),
(450,225,o),
(379,290,o),
(285,290,cs)
);
}
);
};
layerId = m01;
shapes = (
{
closed = 1;
nodes = (
(379,-10,o),
(450,55,o),
(450,140,cs),
(450,225,o),
(379,290,o),
(285,290,cs),
(208,290,o),
(153,250,o),
(104,166,c),
(168,118,l),
(184,183,o),
(235,215,o),
(285,215,cs),
(331,215,o),
(366,183,o),
(366,140,cs),
(366,97,o),
(331,65,o),
(285,65,cs),
(203,65,o),
(149,152,o),
(149,290,cs),
(149,424,o),
(220,515,o),
(324,515,cs),
(357,515,o),
(395,504,o),
(418,488,c),
(450,555,l),
(420,577,o),
(373,590,o),
(324,590,cs),
(175,590,o),
(65,463,o),
(65,290,cs),
(65,112,o),
(155,-10,o),
(285,-10,cs)
);
}
);
width = 500;
}
);
metricLeft = "=wa-myanmar";
script = chak;
subCategory = Spacing;
unicode = 57393;
},
{
category = Mark;
glyphname = "rr-chak";
lastChange = "2023-04-23 06:55:00 +0000";
layers = (
{
anchors = (
{
name = _top;
pos = (264,600);
},
{
name = top;
pos = (291,827);
}
);
layerId = m01;
shapes = (
{
closed = 1;
nodes = (
(285,655,l),
(478,892,l),
(421,939,l),
(264,741,l),
(107,939,l),
(50,892,l),
(243,655,l)
);
}
);
width = 528;
}
);
metricLeft = "=50";
metricRight = "=50";
script = chak;
subCategory = Nonspacing;
unicode = 57394;
},
{
category = Mark;
glyphname = "oeMark-chak";
lastChange = "2022-05-19 07:25:56 +0000";
layers = (
{
anchors = (
{
name = _top;
pos = (292,600);
},
{
name = top;
pos = (312,791);
}
);
layerId = m01;
shapes = (
{
closed = 1;
nodes = (
(219,655,o),
(264,699,o),
(264,758,cs),
(264,817,o),
(219,861,o),
(157,861,cs),
(95,861,o),
(50,817,o),
(50,758,cs),
(50,699,o),
(95,655,o),
(157,655,cs)
);
},
{
closed = 1;
nodes = (
(131,710,o),
(110,730,o),
(110,758,cs),
(110,786,o),
(131,806,o),
(157,806,cs),
(183,806,o),
(204,786,o),
(204,758,cs),
(204,730,o),
(183,710,o),
(157,710,cs)
);
},
{
closed = 1;
nodes = (
(489,655,o),
(534,699,o),
(534,758,cs),
(534,817,o),
(489,861,o),
(427,861,cs),
(365,861,o),
(320,817,o),
(320,758,cs),
(320,699,o),
(365,655,o),
(427,655,cs)
);
},
{
closed = 1;
nodes = (
(401,710,o),
(380,730,o),
(380,758,cs),
(380,786,o),
(401,806,o),
(427,806,cs),
(453,806,o),
(474,786,o),
(474,758,cs),
(474,730,o),
(453,710,o),
(427,710,cs)
);
}
);
width = 584;
}
);
metricLeft = "=50";
metricRight = "=50";
script = chak;
subCategory = Nonspacing;
unicode = 57395;
},
{
category = Mark;
glyphname = "vVocalic-chak";
lastChange = "2023-04-23 06:55:16 +0000";
layers = (
{
anchors = (
{
name = _bottomright;
pos = (291,0);
}
);
layerId = m01;
shapes = (
{
closed = 1;
nodes = (
(375,-220,o),
(460,-195,o),
(532,-132,c),
(480,-75,l),
(437,-123,o),
(367,-150,o),
(291,-150,cs),
(215,-150,o),
(145,-123,o),
(102,-75,c),
(50,-132,l),
(122,-195,o),
(207,-220,o),
(291,-220,cs)
);
}
);
width = 582;
},
{
anchors = (
{
name = _bottomright;
pos = (291,0);
}
);
associatedMasterId = m01;
layerId = "46CC3696-3D04-41F4-98F5-572810956F2B";
name = "14 Apr 22, 12:02";
shapes = (
{
closed = 1;
nodes = (
(375,-215,o),
(460,-193,o),
(532,-137,c),
(492,-80,l),
(435,-122,o),
(367,-145,o),
(291,-145,cs),
(215,-145,o),
(147,-122,o),
(90,-80,c),
(50,-137,l),
(122,-193,o),
(207,-215,o),
(291,-215,cs)
);
}
);
width = 582;
}
);
metricLeft = "=50";
metricRight = "=50";
script = chak;
subCategory = Nonspacing;
unicode = 57396;
},
{
category = Letter;
glyphname = "yaMedial-chak";
lastChange = "2023-04-23 06:55:20 +0000";
layers = (
{
anchors = (
{
name = bottomright;
pos = (-30,-23);
},
{
name = medialRa;
pos = (145,0);
},
{
name = top;
pos = (115,600);
}
);
layerId = m01;
shapes = (
{
closed = 1;
nodes = (
(74,-165,o),
(155,-88,o),
(155,17,cs),
(155,580,l),
(75,580,l),
(75,24,ls),
(75,-51,o),
(33,-95,o),
(-30,-95,cs),
(-93,-95,o),
(-135,-51,o),
(-135,24,cs),
(-135,126,l),
(-213,66,l),
(-213,17,ls),
(-213,-88,o),
(-132,-165,o),
(-29,-165,cs)
);
}
);
width = 230;
},
{
anchors = (
{
name = bottomright;
pos = (-10,-10);
},
{
name = medialRa;
pos = (145,0);
},
{
name = top;
pos = (115,600);
}
);
associatedMasterId = m01;
layerId = "D9AAA2D0-4B9D-4A27-9ED0-ABE4EAAF65DD";
name = "18 May 22, 12:37";
shapes = (
{
closed = 1;
nodes = (
(85,-10,o),
(155,51,o),
(155,135,cs),
(155,580,l),
(75,580,l),
(75,143,ls),
(75,93,o),
(41,60,o),
(-10,60,cs),
(-61,60,o),
(-95,93,o),
(-95,143,cs),
(-95,166,l),
(-175,126,l),
(-175,135,l),
(-175,51,o),
(-105,-10,o),
(-10,-10,cs)
);
}
);
width = 235;
}
);
metricLeft = "=uMark-chak@290";
metricRight = "=jha-chak";
script = chak;
subCategory = Spacing;
unicode = 57397;
},
{
category = Mark;
glyphname = "raMedial-chak";
lastChange = "2023-04-23 06:55:26 +0000";
layers = (
{
anchors = (
{
name = _medialRa;
pos = (648,0);
},
{
name = medialWa;
pos = (648,-205);
}
);
layerId = m01;
shapes = (
{
closed = 1;
nodes = (
(562,-140,l),
(50,-140,l),
(50,-215,l),
(638,-215,l),
(638,220,l),
(562,140,l)
);
}
);
width = 688;
},
{
anchors = (
{
name = _medialRa;
pos = (648,0);
},
{
name = medialWa;
pos = (648,-205);
}
);
associatedMasterId = m01;
layerId = "11C8BC50-AEBE-4AAD-872B-5DA1F2CC2757";
name = "18 May 22, 19:53";
shapes = (
{
closed = 1;
nodes = (
(562,-205,l),
(638,-205,l),
(638,220,l),
(562,140,l)
);
},
{
closed = 1;
nodes = (
(50,-130,l),
(50,-205,l),
(638,-205,l),
(598,-130,l)
);
}
);
width = 688;
}
);
metricLeft = "=50";
metricRight = "=50";
script = chak;
subCategory = Nonspacing;
unicode = 57398;
},
{
category = Mark;
glyphname = "waMedial-chak";
lastChange = "2023-04-23 06:55:30 +0000";
layers = (
{
anchors = (
{
name = _bottomright;
pos = (231,0);
},
{
name = bottomright;
pos = (231,-362);
}
);
layerId = m01;
shapes = (
{
closed = 1;
nodes = (
(334,-427,o),
(412,-351,o),
(412,-251,cs),
(412,-150,o),
(334,-75,o),
(231,-75,cs),
(128,-75,o),
(50,-150,o),
(50,-251,cs),
(50,-351,o),
(128,-427,o),
(231,-427,cs)
);
},
{
closed = 1;
nodes = (
(171,-360,o),
(127,-314,o),
(127,-251,cs),
(127,-188,o),
(171,-142,o),
(231,-142,cs),
(292,-142,o),
(335,-188,o),
(335,-251,cs),
(335,-314,o),
(292,-360,o),
(231,-360,cs)
);
}
);
width = 462;
},
{
anchors = (
{
name = _bottomright;
pos = (222,0);
}
);
associatedMasterId = m01;
layerId = "2C0EB767-8257-4125-B1D5-A47ACB53544B";
name = "14 Apr 22, 08:22";
shapes = (
{
closed = 1;
nodes = (
(320,-413,o),
(394,-340,o),
(394,-244,cs),
(394,-147,o),
(320,-75,o),
(222,-75,cs),
(124,-75,o),
(50,-147,o),
(50,-244,cs),
(50,-340,o),
(124,-413,o),
(222,-413,cs)
);
},
{
closed = 1;
nodes = (
(160,-354,o),
(115,-308,o),
(115,-244,cs),
(115,-180,o),
(160,-133,o),
(222,-133,cs),
(285,-133,o),
(329,-180,o),
(329,-244,cs),
(329,-308,o),
(285,-354,o),
(222,-354,cs)
);
}
);
width = 444;
}
);
metricLeft = "=50";
metricRight = "=50";
script = chak;
subCategory = Nonspacing;
unicode = 57399;
},
{
category = Mark;
glyphname = "asat-chak";
lastChange = "2023-04-23 06:55:35 +0000";
layers = (
{
anchors = (
{
name = _top;
pos = (269,600);
}
);
layerId = m01;
shapes = (
{
closed = 1;
nodes = (
(50,795,l),
(50,720,l),
(488,720,l),
(488,795,l)
);
}
);
width = 538;
}
);
metricLeft = "=50";
metricRight = "=50";
script = chak;
subCategory = Nonspacing;
unicode = 57400;
},
{
category = Mark;
glyphname = "dotbelow-chak";
lastChange = "2023-04-23 06:55:40 +0000";
layers = (
{
anchors = (
{
name = _bottomright;
pos = (269,0);
}
);
layerId = m01;
shapes = (
{
closed = 1;
nodes = (
(50,-140,l),
(50,-215,l),
(488,-215,l),
(488,-140,l)
);
}
);
width = 538;
}
);
metricLeft = "=50";
metricRight = "=50";
script = chak;
subCategory = Nonspacing;
unicode = 57401;
},
{
category = Mark;
glyphname = "anusvara-chak";
lastChange = "2023-04-23 06:55:46 +0000";
layers = (
{
anchors = (
{
name = _top;
pos = (126,600);
}
);
guides = (
{
pos = (123,615);
},
{
pos = (123,953);
},
{
angle = 234.9226;
pos = (129,774);
}
);
layerId = m01;
shapes = (
{
closed = 1;
nodes = (
(50,697,l),
(111,655,l),
(316,947,l),
(255,989,l)
);
}
);
width = 366;
}
);
metricLeft = "=50";
metricRight = "=50";
script = chak;
subCategory = Nonspacing;
unicode = 57402;
},
{
glyphname = "visarga-chak";
lastChange = "2023-04-23 06:55:53 +0000";
layers = (
{
layerId = m01;
shapes = (
{
closed = 1;
nodes = (
(209,24,o),
(254,68,o),
(254,127,cs),
(254,186,o),
(209,230,o),
(147,230,cs),
(85,230,o),
(40,186,o),
(40,127,cs),
(40,68,o),
(85,24,o),
(147,24,cs)
);
},
{
closed = 1;
nodes = (
(121,79,o),
(100,99,o),
(100,127,cs),
(100,155,o),
(121,175,o),
(147,175,cs),
(173,175,o),
(194,155,o),
(194,127,cs),
(194,99,o),
(173,79,o),
(147,79,cs)
);
},
{
closed = 1;
nodes = (
(209,350,o),
(254,394,o),
(254,453,cs),
(254,512,o),
(209,556,o),
(147,556,cs),
(85,556,o),
(40,512,o),
(40,453,cs),
(40,394,o),
(85,350,o),
(147,350,cs)
);
},
{
closed = 1;
nodes = (
(121,405,o),
(100,425,o),
(100,453,cs),
(100,481,o),
(121,501,o),
(147,501,cs),
(173,501,o),
(194,481,o),
(194,453,cs),
(194,425,o),
(173,405,o),
(147,405,cs)
);
}
);
width = 294;
}
);
metricRight = "=|";
script = chak;
unicode = 57403;
},
{
category = Mark;
glyphname = "stacker-chak";
lastChange = "2023-04-23 09:03:43 +0000";
layers = (
{
anchors = (
{
name = _bottomright;
pos = (262,0);
}
);
layerId = m01;
shapes = (
{
closed = 1;
nodes = (
(223,-525,l),
(301,-525,l),
(301,-105,l),
(223,-105,l)
);
},
{
closed = 1;
nodes = (
(50,-350,l),
(474,-350,l),
(474,-280,l),
(50,-280,l)
);
}
);
width = 524;
}
);
metricLeft = "=50";
metricRight = "=50";
script = chak;
subCategory = Nonspacing;
unicode = 57404;
},
{
category = Mark;
glyphname = "ka-chak.below";
lastChange = "2023-04-23 09:03:43 +0000";
layers = (
{
anchors = (
{
name = _bottom;
pos = (452,0);
}
);
layerId = m01;
shapes = (
{
closed = 1;
nodes = (
(506,-419,o),
(546,-384,o),
(553,-325,cs),
(562,-244,ls),
(569,-177,o),
(604,-143,o),
(661,-143,cs),
(729,-143,o),
(778,-215,o),
(778,-315,cs),
(778,-424,o),
(725,-487,o),
(650,-487,cs),
(639,-487,o),
(628,-485,o),
(620,-482,c),
(599,-544,l),
(611,-551,o),
(634,-555,o),
(657,-555,cs),
(769,-555,o),
(854,-460,o),
(854,-315,cs),
(854,-179,o),
(772,-75,o),
(661,-75,cs),
(564,-75,o),
(504,-133,o),
(494,-236,cs),
(486,-315,ls),
(483,-343,o),
(469,-357,o),
(452,-357,cs),
(435,-357,o),
(421,-343,o),
(418,-315,cs),
(410,-236,ls),
(400,-133,o),
(340,-75,o),
(243,-75,cs),
(132,-75,o),
(50,-179,o),
(50,-315,cs),
(50,-460,o),
(135,-555,o),
(247,-555,cs),
(270,-555,o),
(293,-551,o),
(305,-544,c),
(284,-482,l),
(276,-485,o),
(265,-487,o),
(254,-487,cs),
(179,-487,o),
(126,-424,o),
(126,-315,cs),
(126,-215,o),
(175,-143,o),
(243,-143,cs),
(300,-143,o),
(335,-177,o),
(342,-244,cs),
(351,-325,ls),
(358,-384,o),
(398,-419,o),
(452,-419,cs)
);
}
);
width = 904;
},
{
anchors = (
{
name = bottomright;
pos = (764,0);
},
{
name = medialRa;
pos = (1023,0);
},
{
name = top;
pos = (764,600);
}
);
associatedMasterId = m01;
background = {
shapes = (
{
ref = "ma-chak";
},
{
closed = 1;
nodes = (
(913,-10,o),
(1023,117,o),
(1023,290,cs),
(1023,468,o),
(917,590,o),
(765,590,cs),
(679,590,o),
(605,549,o),
(560,482,c),
(609,401,l),
(635,472,o),
(694,515,o),
(765,515,cs),
(870,515,o),
(939,428,o),
(939,290,cs),
(939,156,o),
(868,65,o),
(764,65,cs),
(731,65,o),
(693,76,o),
(670,92,c),
(638,25,l),
(668,3,o),
(715,-10,o),
(764,-10,cs)
);
},
{
closed = 1;
nodes = (
(373,-10,o),
(420,3,o),
(450,25,c),
(418,92,l),
(395,76,o),
(357,65,o),
(324,65,cs),
(220,65,o),
(149,156,o),
(149,290,cs),
(149,428,o),
(218,515,o),
(323,515,cs),
(394,515,o),
(453,472,o),
(479,401,c),
(528,482,l),
(483,549,o),
(409,590,o),
(323,590,cs),
(171,590,o),
(65,468,o),
(65,290,cs),
(65,117,o),
(175,-10,o),
(324,-10,cs)
);
}
);
};
layerId = "C66BC7E5-0AF7-416F-BDB5-85E58B138144";
name = "18 May 22, 07:57";
shapes = (
{
closed = 1;
nodes = (
(373,-10,o),
(420,3,o),
(450,25,c),
(418,92,l),
(395,76,o),
(357,65,o),
(324,65,cs),
(220,65,o),
(149,156,o),
(149,290,cs),
(149,428,o),
(218,515,o),
(323,515,cs),
(431,515,o),
(502,428,o),
(502,290,cs),
(502,270,l),
(586,270,l),
(586,290,ls),
(586,428,o),
(657,515,o),
(765,515,cs),
(870,515,o),
(939,428,o),
(939,290,cs),
(939,156,o),
(868,65,o),
(764,65,cs),
(731,65,o),
(693,76,o),
(670,92,c),
(638,25,l),
(668,3,o),
(715,-10,o),
(764,-10,cs),
(913,-10,o),
(1023,117,o),
(1023,290,cs),
(1023,468,o),
(917,590,o),
(766,590,cs),
(615,590,o),
(510,468,o),
(510,290,c),
(578,290,l),
(578,468,o),
(473,590,o),
(322,590,cs),
(171,590,o),
(65,468,o),
(65,290,cs),
(65,117,o),
(175,-10,o),
(324,-10,cs)
);
}
);
width = 1088;
},
{
associatedMasterId = m01;
background = {
anchors = (
{
name = bottomright;
pos = (794,0);
},
{
name = medialRa;
pos = (1053,0);
},
{
name = top;
pos = (794,600);
}
);
};
layerId = "60AE8AD3-EFCF-4FD8-904D-84066FA2C50D";
name = "18 May 22, 19:33";
width = 1148;
}
);
metricLeft = "=50";
metricRight = "=50";
script = chak;
subCategory = Nonspacing;
},
{
category = Mark;
glyphname = "kha-chak.below";
lastChange = "2023-04-23 09:03:43 +0000";
layers = (
{
anchors = (
{
name = _bottomright;
pos = (295,0);
}
);
guides = (
{
angle = 133.727;
pos = (473,-449);
},
{
angle = 140.0425;
pos = (477,-316);
}
);
layerId = m01;
shapes = (
{
closed = 1;
nodes = (
(374,-555,o),
(449,-524,o),
(495,-472,c),
(447,-422,l),
(412,-463,o),
(357,-487,o),
(296,-487,cs),
(195,-487,o),
(126,-415,o),
(126,-316,cs),
(126,-215,o),
(196,-143,o),
(291,-143,cs),
(345,-143,o),
(379,-157,o),
(411,-186,c),
(487,-170,l),
(465,-151,o),
(438,-138,o),
(406,-138,cs),
(329,-138,o),
(275,-189,o),
(275,-258,cs),
(275,-330,o),
(327,-383,o),
(400,-383,cs),
(432,-383,o),
(475,-369,o),
(495,-337,c),
(452,-301,l),
(441,-314,o),
(425,-322,o),
(406,-322,cs),
(370,-322,o),
(344,-296,o),
(344,-258,cs),
(344,-220,o),
(370,-195,o),
(406,-195,cs),
(425,-195,o),
(441,-202,o),
(452,-216,c),
(495,-180,l),
(468,-119,o),
(387,-75,o),
(295,-75,cs),
(154,-75,o),
(50,-178,o),
(50,-315,cs),
(50,-452,o),
(154,-555,o),
(295,-555,cs)
);
}
);
width = 545;
},
{
anchors = (
{
name = bottomright;
pos = (366,0);
},
{
name = medialRa;
pos = (673,0);
},
{
name = top;
pos = (366,600);
}
);
associatedMasterId = m01;
background = {
shapes = (
{
closed = 1;
nodes = (
(432,176,o),
(369,237,o),
(369,321,cs),
(369,405,o),
(432,466,o),
(522,466,cs),
(612,466,o),
(675,405,o),
(675,321,cs),
(675,237,o),
(612,176,o),
(522,176,cs)
);
},
{
closed = 1;
nodes = (
(566,243,o),
(599,275,o),
(599,321,cs),
(599,367,o),
(566,399,o),
(522,399,cs),
(478,399,o),
(445,367,o),
(445,321,cs),
(445,275,o),
(478,243,o),
(522,243,cs)
);
},
{
ref = "wa-chak";
}
);
};
layerId = "2079D20E-7E53-44BA-9458-6C1D079E5AE4";
name = "18 May 22, 07:46";
shapes = (
{
closed = 1;
nodes = (
(470,-10,o),
(564,29,o),
(622,94,c),
(566,151,l),
(522,96,o),
(450,65,o),
(373,65,cs),
(240,65,o),
(149,159,o),
(149,289,cs),
(149,421,o),
(242,515,o),
(366,515,cs),
(456,515,o),
(513,475,o),
(565,413,c),
(663,316,l),
(663,404,o),
(601,466,o),
(515,466,cs),
(429,466,o),
(367,404,o),
(367,316,cs),
(367,255,o),
(399,205,o),
(454,174,c),
(494,229,l),
(461,249,o),
(443,279,o),
(443,316,cs),
(443,364,o),
(475,399,o),
(520,399,cs),
(565,399,o),
(597,364,o),
(597,316,cs),
(597,279,o),
(579,249,o),
(546,229,c),
(586,174,l),
(644,208,o),
(673,258,o),
(673,328,cs),
(673,468,o),
(542,590,o),
(371,590,cs),
(195,590,o),
(65,461,o),
(65,290,cs),
(65,119,o),
(195,-10,o),
(372,-10,cs)
);
}
);
width = 738;
}
);
metricLeft = "=50";
metricRight = "=50";
script = chak;
subCategory = Nonspacing;
},
{
category = Mark;
color = 10;
glyphname = "ga-chak.below";
lastChange = "2023-04-23 09:03:43 +0000";
layers = (
{
associatedMasterId = m01;
background = {
shapes = (
{
closed = 1;
nodes = (
(542,-10,o),
(673,119,o),
(673,290,cs),
(673,461,o),
(542,590,o),
(369,590,cs),
(220,590,o),
(105,492,o),
(74,367,c),
(145,340,l),
(154,372,o),
(182,393,o),
(218,393,cs),
(262,393,o),
(295,361,o),
(295,315,cs),
(295,269,o),
(262,237,o),
(218,237,cs),
(190,237,o),
(159,253,o),
(145,274,c),
(97,226,l),
(126,190,o),
(169,170,o),
(220,170,cs),
(307,170,o),
(369,231,o),
(369,315,cs),
(369,399,o),
(307,460,o),
(220,460,cs),
(170,460,o),
(128,439,o),
(102,406,c),
(143,350,l),
(166,444,o),
(253,515,o),
(369,515,cs),
(497,515,o),
(589,421,o),
(589,290,cs),
(589,159,o),
(497,65,o),
(369,65,cs),
(286,65,o),
(215,97,o),
(172,151,c),
(116,94,l),
(172,31,o),
(264,-10,o),
(369,-10,cs)
);
}
);
};
layerId = "B30CF83F-D290-471B-A470-0656C8A572D7";
name = "12 Apr 22, 13:21";
shapes = (
{
closed = 1;
nodes = (
(307,170,o),
(369,231,o),
(369,315,cs),
(369,399,o),
(307,460,o),
(220,460,cs),
(158,460,o),
(97,424,o),
(74,367,c),
(145,340,l),
(154,372,o),
(182,393,o),
(218,393,cs),
(262,393,o),
(295,361,o),
(295,315,cs),
(295,269,o),
(262,237,o),
(218,237,cs),
(190,237,o),
(159,253,o),
(145,274,c),
(97,226,l),
(126,190,o),
(169,170,o),
(220,170,cs)
);
}
);
width = 738;
},
{
associatedMasterId = m01;
background = {
shapes = (
{
closed = 1;
nodes = (
(306,170,o),
(369,231,o),
(369,315,cs),
(369,399,o),
(306,460,o),
(218,460,cs),
(130,460,o),
(67,399,o),
(67,315,cs),
(67,231,o),
(130,170,o),
(218,170,cs)
);
},
{
closed = 1;
nodes = (
(174,237,o),
(141,269,o),
(141,315,cs),
(141,361,o),
(174,393,o),
(218,393,cs),
(262,393,o),
(295,361,o),
(295,315,cs),
(295,269,o),
(262,237,o),
(218,237,cs)
);
}
);
};
layerId = "7579E935-2730-465F-9479-2E748B89F1AD";
name = "12 Apr 22, 13:22";
shapes = (
{
closed = 1;
nodes = (
(307,170,o),
(369,231,o),
(369,315,cs),
(369,399,o),
(307,460,o),
(220,460,cs),
(161,460,o),
(112,434,o),
(86,386,c),
(145,348,l),
(157,375,o),
(186,393,o),
(218,393,cs),
(262,393,o),
(295,361,o),
(295,315,cs),
(295,269,o),
(262,237,o),
(218,237,cs),
(186,237,o),
(157,255,o),
(145,282,c),
(86,244,l),
(112,196,o),
(161,170,o),
(220,170,cs)
);
}
);
width = 434;
},
{
anchors = (
{
name = _bottomright;
pos = (250,0);
}
);
layerId = m01;
name = Regular;
shapes = (
{
pos = (545,0);
ref = "kha-chak.below";
scale = (-1,1);
}
);
width = 545;
},
{
anchors = (
{
name = bottomright;
pos = (369,0);
},
{
name = medialRa;
pos = (673,0);
},
{
name = top;
pos = (369,600);
}
);
associatedMasterId = m01;
background = {
shapes = (
{
closed = 1;
nodes = (
(542,-10,o),
(673,119,o),
(673,290,cs),
(673,461,o),
(542,590,o),
(369,590,cs),
(196,590,o),
(65,461,o),
(65,290,cs),
(65,119,o),
(196,-10,o),
(369,-10,cs)
);
},
{
closed = 1;
nodes = (
(241,65,o),
(149,159,o),
(149,290,cs),
(149,421,o),
(241,515,o),
(369,515,cs),
(497,515,o),
(589,421,o),
(589,290,cs),
(589,159,o),
(497,65,o),
(369,65,cs)
);
},
{
closed = 1;
nodes = (
(301,176,o),
(364,237,o),
(364,321,cs),
(364,405,o),
(301,466,o),
(211,466,cs),
(121,466,o),
(58,405,o),
(58,321,cs),
(58,237,o),
(121,176,o),
(211,176,cs)
);
},
{
closed = 1;
nodes = (
(167,243,o),
(134,275,o),
(134,321,cs),
(134,367,o),
(167,399,o),
(211,399,cs),
(255,399,o),
(288,367,o),
(288,321,cs),
(288,275,o),
(255,243,o),
(211,243,cs)
);
}
);
};
layerId = "F0828294-40EE-42D4-9BF8-B2F9F189634F";
name = "14 Apr 22, 11:15";
shapes = (
{
closed = 1;
nodes = (
(542,-10,o),
(673,119,o),
(673,290,cs),
(673,461,o),
(542,590,o),
(369,590,cs),
(228,590,o),
(117,508,o),
(79,392,c),
(138,354,l),
(150,381,o),
(179,399,o),
(211,399,cs),
(255,399,o),
(288,367,o),
(288,321,cs),
(288,275,o),
(255,243,o),
(211,243,cs),
(179,243,o),
(150,261,o),
(138,288,c),
(79,250,l),
(105,202,o),
(159,176,o),
(215,176,cs),
(302,176,o),
(364,237,o),
(364,321,cs),
(364,405,o),
(302,466,o),
(215,466,cs),
(163,466,o),
(113,440,o),
(89,392,c),
(162,406,l),
(199,474,o),
(275,515,o),
(369,515,cs),
(497,515,o),
(589,421,o),
(589,290,cs),
(589,159,o),
(497,65,o),
(369,65,cs),
(286,65,o),
(215,97,o),
(172,151,c),
(116,94,l),
(172,31,o),
(264,-10,o),
(369,-10,cs)
);
}
);
width = 738;
}
);
metricLeft = "=50";
metricRight = "=50";
script = chak;
subCategory = Nonspacing;
},
{
category = Mark;
glyphname = "gha-chak.below";
lastChange = "2023-04-23 09:03:43 +0000";
layers = (
{
anchors = (
{
name = _bottomright;
pos = (275,0);
}
);
background = {
shapes = (
{
closed = 1;
nodes = (
(435,-555,o),
(539,-452,o),
(539,-315,cs),
(539,-178,o),
(435,-75,o),
(294,-75,cs),
(153,-75,o),
(49,-178,o),
(49,-315,cs),
(49,-452,o),
(153,-555,o),
(294,-555,cs)
);
},
{
closed = 1;
nodes = (
(194,-487,o),
(125,-415,o),
(125,-316,cs),
(125,-215,o),
(197,-143,o),
(294,-143,cs),
(391,-143,o),
(463,-215,o),
(463,-316,cs),
(463,-415,o),
(394,-487,o),
(294,-487,cs)
);
}
);
};
layerId = m01;
shapes = (
{
closed = 1;
nodes = (
(411,-555,o),
(539,-435,o),
(539,-275,cs),
(539,-158,o),
(479,-75,o),
(396,-75,cs),
(332,-75,o),
(287,-118,o),
(287,-176,cs),
(287,-252,o),
(367,-342,o),
(507,-342,cs),
(535,-342,o),
(573,-338,o),
(600,-328,c),
(586,-265,l),
(559,-274,o),
(531,-277,o),
(507,-277,cs),
(407,-277,o),
(354,-227,o),
(354,-178,cs),
(354,-153,o),
(371,-137,o),
(398,-137,cs),
(446,-137,o),
(471,-198,o),
(471,-273,cs),
(471,-403,o),
(379,-487,o),
(257,-487,cs),
(169,-487,o),
(120,-447,o),
(120,-383,cs),
(120,-324,o),
(156,-283,o),
(206,-283,cs),
(235,-283,o),
(252,-296,o),
(252,-315,cs),
(252,-334,o),
(235,-347,o),
(206,-347,cs),
(156,-347,o),
(120,-303,o),
(120,-239,cs),
(120,-177,o),
(153,-140,o),
(207,-140,cs),
(223,-140,o),
(235,-142,o),
(248,-148,c),
(267,-89,l),
(255,-82,o),
(230,-75,o),
(201,-75,cs),
(109,-75,o),
(50,-137,o),
(50,-230,cs),
(50,-326,o),
(121,-403,o),
(209,-403,cs),
(272,-403,o),
(316,-367,o),
(316,-315,cs),
(316,-263,o),
(272,-227,o),
(209,-227,cs),
(121,-227,o),
(50,-302,o),
(50,-392,cs),
(50,-492,o),
(128,-555,o),
(257,-555,cs)
);
}
);
width = 650;
},
{
associatedMasterId = m01;
layerId = "438E3D88-6A2E-4053-9636-DB17D2FCC79B";
name = "12 Apr 22, 17:28";
shapes = (
{
closed = 1;
nodes = (
(502,-10,o),
(640,96,o),
(640,337,cs),
(640,476,o),
(589,590,o),
(474,590,cs),
(406,590,o),
(356,542,o),
(356,473,cs),
(356,364,o),
(479,293,o),
(716,273,c),
(716,348,l),
(520,365,o),
(431,403,o),
(431,472,cs),
(431,505,o),
(452,520,o),
(474,520,cs),
(533,520,o),
(558,430,o),
(558,339,cs),
(558,137,o),
(459,65,o),
(325,65,cs),
(207,65,o),
(146,133,o),
(146,203,cs),
(146,270,o),
(204,326,o),
(271,326,cs),
(305,326,o),
(327,312,o),
(327,290,cs),
(327,268,o),
(305,254,o),
(271,254,cs),
(204,254,o),
(146,308,o),
(146,381,cs),
(146,443,o),
(189,515,o),
(276,515,cs),
(290,515,o),
(308,513,o),
(322,509,c),
(346,577,l),
(327,585,o),
(299,590,o),
(271,590,cs),
(151,590,o),
(65,501,o),
(65,393,cs),
(65,277,o),
(164,184,o),
(271,184,cs),
(345,184,o),
(399,229,o),
(399,290,cs),
(399,351,o),
(345,396,o),
(271,396,cs),
(164,396,o),
(65,301,o),
(65,191,cs),
(65,75,o),
(170,-10,o),
(321,-10,cs)
);
}
);
width = 731;
},
{
anchors = (
{
name = bottomright;
pos = (360,0);
},
{
name = medialRa;
pos = (655,0);
},
{
name = top;
pos = (360,600);
}
);
associatedMasterId = m01;
guides = (
{
angle = -4.8237;
pos = (731,348);
}
);
layerId = "8327455E-C7DE-4A83-AE04-ED7C29F2E739";
name = "18 May 22, 10:49";
shapes = (
{
closed = 1;
nodes = (
(530,-10,o),
(655,118,o),
(655,340,cs),
(655,494,o),
(592,590,o),
(494,590,cs),
(422,590,o),
(371,542,o),
(371,473,cs),
(371,362,o),
(489,292,o),
(731,271,c),
(731,346,l),
(529,353,o),
(443,402,o),
(443,471,cs),
(443,503,o),
(463,523,o),
(491,523,cs),
(547,523,o),
(577,450,o),
(577,342,cs),
(577,160,o),
(487,65,o),
(323,65,cs),
(208,65,o),
(143,113,o),
(143,193,cs),
(143,274,o),
(197,330,o),
(271,330,cs),
(307,330,o),
(329,314,o),
(329,290,cs),
(329,266,o),
(307,250,o),
(271,250,cs),
(197,250,o),
(143,309,o),
(143,394,cs),
(143,472,o),
(189,519,o),
(266,519,cs),
(285,519,o),
(301,516,o),
(317,509,c),
(341,572,l),
(325,581,o),
(294,590,o),
(258,590,cs),
(141,590,o),
(65,517,o),
(65,405,cs),
(65,283,o),
(158,185,o),
(272,185,cs),
(347,185,o),
(397,228,o),
(397,290,cs),
(397,352,o),
(347,395,o),
(272,395,cs),
(158,395,o),
(65,298,o),
(65,180,cs),
(65,64,o),
(162,-10,o),
(321,-10,cs)
);
}
);
width = 751;
}
);
metricLeft = "=50";
metricRight = "=50";
script = chak;
subCategory = Nonspacing;
},
{
category = Mark;
glyphname = "nga-chak.below";
lastChange = "2023-04-23 09:03:43 +0000";
layers = (
{
anchors = (
{
name = _bottomright;
pos = (295,0);
}
);
layerId = m01;
shapes = (
{
closed = 1;
nodes = (
(374,-555,o),
(449,-524,o),
(495,-472,c),
(447,-422,l),
(413,-462,o),
(357,-487,o),
(296,-487,cs),
(196,-487,o),
(126,-416,o),
(126,-316,cs),
(126,-215,o),
(196,-143,o),
(293,-143,cs),
(373,-143,o),
(435,-190,o),
(435,-248,cs),
(435,-297,o),
(393,-333,o),
(345,-333,cs),
(316,-333,o),
(295,-318,o),
(295,-296,cs),
(295,-265,o),
(329,-245,o),
(394,-245,cs),
(442,-245,o),
(514,-263,o),
(568,-289,c),
(583,-231,l),
(523,-205,o),
(435,-188,o),
(391,-188,cs),
(293,-188,o),
(229,-234,o),
(229,-296,cs),
(229,-356,o),
(280,-391,o),
(347,-391,cs),
(432,-391,o),
(503,-328,o),
(503,-243,cs),
(503,-149,o),
(412,-75,o),
(293,-75,cs),
(154,-75,o),
(50,-177,o),
(50,-315,cs),
(50,-453,o),
(155,-555,o),
(295,-555,cs)
);
}
);
width = 633;
},
{
anchors = (
{
name = bottomright;
pos = (366,0);
},
{
name = medialRa;
pos = (673,0);
},
{
name = top;
pos = (366,600);
}
);
associatedMasterId = m01;
background = {
shapes = (
{
closed = 1;
nodes = (
(432,176,o),
(369,237,o),
(369,321,cs),
(369,405,o),
(432,466,o),
(522,466,cs),
(612,466,o),
(675,405,o),
(675,321,cs),
(675,237,o),
(612,176,o),
(522,176,cs)
);
},
{
closed = 1;
nodes = (
(566,243,o),
(599,275,o),
(599,321,cs),
(599,367,o),
(566,399,o),
(522,399,cs),
(478,399,o),
(445,367,o),
(445,321,cs),
(445,275,o),
(478,243,o),
(522,243,cs)
);
},
{
ref = "wa-chak";
}
);
};
layerId = "BB28E6C5-AC5A-4774-8541-FC678C33858D";
name = "13 Apr 22, 22:11";
shapes = (
{
closed = 1;
nodes = (
(470,-10,o),
(564,29,o),
(622,94,c),
(566,151,l),
(523,97,o),
(451,65,o),
(373,65,cs),
(242,65,o),
(149,158,o),
(149,289,cs),
(149,420,o),
(241,515,o),
(366,515,cs),
(494,515,o),
(597,460,o),
(597,391,cs),
(597,349,o),
(569,318,o),
(530,318,cs),
(491,318,o),
(463,347,o),
(463,386,cs),
(463,428,o),
(499,458,o),
(549,458,cs),
(630,458,o),
(684,450,o),
(729,431,c),
(745,498,l),
(685,518,o),
(624,527,o),
(549,527,cs),
(455,527,o),
(387,468,o),
(387,386,cs),
(387,307,o),
(447,251,o),
(530,251,cs),
(615,251,o),
(673,310,o),
(673,394,cs),
(673,510,o),
(552,590,o),
(371,590,cs),
(196,590,o),
(65,462,o),
(65,290,cs),
(65,118,o),
(196,-10,o),
(372,-10,cs)
);
}
);
width = 760;
},
{
anchors = (
{
name = bottomright;
pos = (366,0);
},
{
name = medialRa;
pos = (673,0);
},
{
name = top;
pos = (366,600);
}
);
associatedMasterId = m01;
background = {
shapes = (
{
closed = 1;
nodes = (
(432,176,o),
(369,237,o),
(369,321,cs),
(369,405,o),
(432,466,o),
(522,466,cs),
(612,466,o),
(675,405,o),
(675,321,cs),
(675,237,o),
(612,176,o),
(522,176,cs)
);
},
{
closed = 1;
nodes = (
(566,243,o),
(599,275,o),
(599,321,cs),
(599,367,o),
(566,399,o),
(522,399,cs),
(478,399,o),
(445,367,o),
(445,321,cs),
(445,275,o),
(478,243,o),
(522,243,cs)
);
},
{
ref = "wa-chak";
}
);
};
layerId = "FD39B610-D1E9-42DD-AD9F-02BC2023F6A2";
name = "18 May 22, 08:27";
shapes = (
{
closed = 1;
nodes = (
(470,-10,o),
(564,29,o),
(622,94,c),
(566,151,l),
(523,97,o),
(451,65,o),
(373,65,cs),
(242,65,o),
(149,158,o),
(149,289,cs),
(149,420,o),
(241,515,o),
(371,515,cs),
(494,515,o),
(597,480,o),
(597,392,cs),
(597,349,o),
(569,318,o),
(530,318,cs),
(491,318,o),
(463,347,o),
(463,386,cs),
(463,427,o),
(494,458,o),
(574,458,cs),
(628,458,o),
(704,444,o),
(754,418,c),
(778,484,l),
(712,513,o),
(630,527,o),
(572,527,cs),
(453,527,o),
(387,468,o),
(387,386,cs),
(387,307,o),
(447,251,o),
(530,251,cs),
(615,251,o),
(673,310,o),
(673,395,cs),
(673,510,o),
(552,590,o),
(371,590,cs),
(196,590,o),
(65,462,o),
(65,290,cs),
(65,118,o),
(196,-10,o),
(372,-10,cs)
);
}
);
width = 783;
},
{
anchors = (
{
name = bottomright;
pos = (366,0);
},
{
name = medialRa;
pos = (673,0);
},
{
name = top;
pos = (366,600);
}
);
associatedMasterId = m01;
background = {
shapes = (
{
closed = 1;
nodes = (
(432,176,o),
(369,237,o),
(369,321,cs),
(369,405,o),
(432,466,o),
(522,466,cs),
(612,466,o),
(675,405,o),
(675,321,cs),
(675,237,o),
(612,176,o),
(522,176,cs)
);
},
{
closed = 1;
nodes = (
(566,243,o),
(599,275,o),
(599,321,cs),
(599,367,o),
(566,399,o),
(522,399,cs),
(478,399,o),
(445,367,o),
(445,321,cs),
(445,275,o),
(478,243,o),
(522,243,cs)
);
},
{
ref = "wa-chak";
}
);
};
layerId = "50C9DE68-2D0A-482D-BBAF-8EA6352FADE6";
name = "18 May 22, 10:32";
shapes = (
{
closed = 1;
nodes = (
(470,-10,o),
(564,29,o),
(622,94,c),
(566,151,l),
(523,97,o),
(451,65,o),
(373,65,cs),
(242,65,o),
(149,158,o),
(149,289,cs),
(149,420,o),
(241,515,o),
(371,515,cs),
(494,515,o),
(597,480,o),
(597,392,cs),
(597,349,o),
(569,318,o),
(530,318,cs),
(491,318,o),
(463,347,o),
(463,386,cs),
(463,427,o),
(494,458,o),
(574,458,cs),
(628,458,o),
(704,444,o),
(754,418,c),
(778,484,l),
(712,513,o),
(630,527,o),
(572,527,cs),
(453,527,o),
(387,468,o),
(387,386,cs),
(387,307,o),
(447,251,o),
(530,251,cs),
(615,251,o),
(673,310,o),
(673,395,cs),
(673,510,o),
(552,590,o),
(371,590,cs),
(196,590,o),
(65,462,o),
(65,290,cs),
(65,118,o),
(196,-10,o),
(372,-10,cs)
);
}
);
width = 783;
},
{
anchors = (
{
name = bottomright;
pos = (366,0);
},
{
name = medialRa;
pos = (673,0);
},
{
name = top;
pos = (366,600);
}
);
associatedMasterId = m01;
background = {
shapes = (
{
ref = "wa-chak";
}
);
};
layerId = "04120C88-F86C-47C1-9B8B-AF688255CDBE";
name = "18 May 22, 10:38";
shapes = (
{
closed = 1;
nodes = (
(470,-10,o),
(564,29,o),
(622,94,c),
(566,151,l),
(523,97,o),
(451,65,o),
(373,65,cs),
(242,65,o),
(149,158,o),
(149,289,cs),
(149,421,o),
(241,515,o),
(369,515,cs),
(479,515,o),
(555,458,o),
(555,375,cs),
(555,318,o),
(513,278,o),
(458,278,cs),
(424,278,o),
(401,296,o),
(401,324,cs),
(401,354,o),
(430,374,o),
(473,374,cs),
(732,374,l),
(732,443,l),
(471,443,ls),
(385,443,o),
(325,391,o),
(325,320,cs),
(325,259,o),
(383,211,o),
(458,211,cs),
(555,211,o),
(631,282,o),
(631,378,cs),
(631,498,o),
(518,590,o),
(369,590,cs),
(195,590,o),
(65,462,o),
(65,290,cs),
(65,118,o),
(196,-10,o),
(372,-10,cs)
);
}
);
width = 783;
}
);
metricLeft = "=50";
metricRight = "=50";
script = chak;
subCategory = Nonspacing;
},
{
category = Mark;
glyphname = "ca-chak.below";
lastChange = "2023-04-23 09:03:43 +0000";
layers = (
{
anchors = (
{
name = _bottomright;
pos = (408,0);
}
);
background = {
shapes = (
{
pos = (95,0);
ref = "wa-chak.below";
}
);
};
guides = (
{
angle = 8.3929;
pos = (86,-85);
}
);
layerId = m01;
shapes = (
{
closed = 1;
nodes = (
(121,-550,l),
(162,-314,o),
(262,-143,o),
(408,-143,cs),
(497,-143,o),
(558,-210,o),
(558,-315,cs),
(558,-420,o),
(497,-487,o),
(408,-487,cs),
(262,-487,o),
(162,-316,o),
(121,-80,c),
(50,-91,l),
(97,-357,o),
(220,-555,o),
(408,-555,cs),
(535,-555,o),
(635,-453,o),
(635,-315,cs),
(635,-177,o),
(535,-75,o),
(408,-75,cs),
(224,-75,o),
(97,-273,o),
(50,-539,c)
);
}
);
width = 685;
},
{
associatedMasterId = m01;
layerId = "53A07CA9-8DBD-4E14-8111-995225C1E720";
name = "12 Apr 22, 16:42";
shapes = (
{
closed = 1;
nodes = (
(195,16,l),
(168,51,o),
(152,104,o),
(152,158,cs),
(152,362,o),
(292,515,o),
(477,515,cs),
(610,515,o),
(695,427,o),
(695,290,cs),
(695,153,o),
(609,65,o),
(477,65,cs),
(286,65,o),
(152,214,o),
(152,426,cs),
(152,479,o),
(168,531,o),
(195,568,c),
(134,623,l),
(96,574,o),
(75,506,o),
(75,434,cs),
(75,177,o),
(244,-9,o),
(477,-9,cs),
(651,-9,o),
(779,117,o),
(779,290,cs),
(779,463,o),
(652,590,o),
(477,590,cs),
(248,590,o),
(75,401,o),
(75,150,cs),
(75,77,o),
(96,9,o),
(134,-39,c)
);
}
);
width = 844;
}
);
metricLeft = "=50";
metricRight = "=50";
script = chak;
subCategory = Nonspacing;
},
{
category = Mark;
glyphname = "cha-chak.below";
lastChange = "2023-04-23 09:03:43 +0000";
layers = (
{
anchors = (
{
name = bottom;
pos = (542,0);
}
);
background = {
shapes = (
{
pos = (489,0);
ref = "wa-chak.below";
}
);
};
layerId = m01;
shapes = (
{
closed = 1;
nodes = (
(121,-550,l),
(160,-314,o),
(256,-143,o),
(396,-143,cs),
(483,-143,o),
(543,-210,o),
(543,-315,cs),
(543,-420,o),
(483,-487,o),
(396,-487,cs),
(256,-487,o),
(160,-316,o),
(121,-80,c),
(50,-91,l),
(96,-357,o),
(213,-555,o),
(396,-555,cs),
(521,-555,o),
(618,-453,o),
(618,-315,cs),
(618,-177,o),
(521,-75,o),
(396,-75,cs),
(220,-75,o),
(96,-273,o),
(50,-539,c)
);
},
{
closed = 1;
nodes = (
(924,-555,o),
(1029,-452,o),
(1029,-315,cs),
(1029,-178,o),
(924,-75,o),
(787,-75,cs),
(649,-75,o),
(544,-178,o),
(544,-315,cs),
(544,-452,o),
(649,-555,o),
(787,-555,cs)
);
},
{
closed = 1;
nodes = (
(689,-487,o),
(619,-415,o),
(619,-315,cs),
(619,-215,o),
(689,-143,o),
(786,-143,cs),
(883,-143,o),
(953,-215,o),
(953,-315,cs),
(953,-415,o),
(883,-487,o),
(786,-487,cs)
);
}
);
width = 1079;
},
{
associatedMasterId = m01;
layerId = "B22A412D-85A4-43C0-BF04-7EF59B78BDB6";
name = "12 Apr 22, 16:43";
shapes = (
{
closed = 1;
nodes = (
(1172,-10,o),
(1303,119,o),
(1303,290,cs),
(1303,461,o),
(1172,590,o),
(1000,590,cs),
(828,590,o),
(697,461,o),
(697,290,cs),
(697,119,o),
(828,-10,o),
(1000,-10,cs)
);
},
{
closed = 1;
nodes = (
(871,65,o),
(779,159,o),
(779,290,cs),
(779,421,o),
(871,515,o),
(999,515,cs),
(1127,515,o),
(1219,421,o),
(1219,290,cs),
(1219,159,o),
(1127,65,o),
(999,65,cs)
);
},
{
closed = 1;
nodes = (
(195,16,l),
(168,51,o),
(152,104,o),
(152,158,cs),
(152,362,o),
(292,515,o),
(477,515,cs),
(610,515,o),
(695,427,o),
(695,290,cs),
(695,153,o),
(609,65,o),
(477,65,cs),
(286,65,o),
(152,214,o),
(152,426,cs),
(152,479,o),
(168,531,o),
(195,568,c),
(134,623,l),
(96,574,o),
(75,506,o),
(75,434,cs),
(75,177,o),
(244,-9,o),
(476,-9,cs),
(650,-9,o),
(777,117,o),
(777,290,cs),
(777,463,o),
(651,590,o),
(476,590,cs),
(248,590,o),
(75,401,o),
(75,150,cs),
(75,77,o),
(96,9,o),
(134,-39,c)
);
}
);
width = 1368;
}
);
metricLeft = "=50";
metricRight = "=50";
script = chak;
subCategory = Nonspacing;
},
{
category = Mark;
color = 0;
glyphname = "ja-chak.below";
lastChange = "2023-04-23 09:03:43 +0000";
layers = (
{
anchors = (
{
name = _bottomright;
pos = (290,2);
}
);
layerId = m01;
shapes = (
{
closed = 1;
nodes = (
(400,-555,o),
(473,-497,o),
(494,-421,c),
(471,-369,l),
(438,-449,o),
(376,-495,o),
(295,-495,cs),
(190,-495,o),
(116,-420,o),
(116,-315,cs),
(116,-210,o),
(189,-135,o),
(292,-135,cs),
(353,-135,o),
(403,-161,o),
(433,-204,c),
(484,-165,l),
(441,-109,o),
(372,-75,o),
(292,-75,cs),
(154,-75,o),
(50,-178,o),
(50,-315,cs),
(50,-452,o),
(153,-555,o),
(292,-555,cs)
);
},
{
closed = 1;
nodes = (
(572,-595,l),
(572,-538,l),
(505,-538,l),
(505,-285,l),
(295,-285,l),
(295,-342,l),
(441,-342,l),
(441,-595,l)
);
}
);
width = 622;
},
{
anchors = (
{
name = bottomright;
pos = (367,0);
},
{
name = top;
pos = (367,600);
}
);
associatedMasterId = m01;
layerId = "784BC6B1-3023-4609-B3EA-9B9B82B43F05";
name = "13 Apr 22, 10:39";
shapes = (
{
closed = 1;
nodes = (
(439,-10,o),
(520,62,o),
(520,158,cs),
(520,249,o),
(450,317,o),
(357,317,c),
(357,265,l),
(493,265,ls),
(567,265,o),
(579,229,o),
(617,0,c),
(697,0,l),
(653,259,o),
(639,327,o),
(493,327,cs),
(342,327,l),
(342,255,l),
(401,255,o),
(446,213,o),
(446,158,cs),
(446,105,o),
(399,65,o),
(338,65,cs),
(226,65,o),
(147,159,o),
(147,290,cs),
(147,421,o),
(239,515,o),
(367,515,cs),
(443,515,o),
(506,482,o),
(544,429,c),
(607,478,l),
(553,547,o),
(467,590,o),
(367,590,cs),
(195,590,o),
(65,461,o),
(65,290,cs),
(65,119,o),
(180,-10,o),
(334,-10,cs)
);
}
);
width = 722;
},
{
anchors = (
{
name = bottomright;
pos = (367,0);
},
{
name = medialRa;
pos = (643,0);
},
{
name = top;
pos = (367,600);
}
);
associatedMasterId = m01;
layerId = "DB6FB1F8-0E12-4205-905A-668018C218B9";
name = "18 May 22, 08:27";
shapes = (
{
closed = 1;
nodes = (
(416,-10,o),
(490,58,o),
(490,147,cs),
(490,238,o),
(420,307,o),
(327,307,c),
(327,260,l),
(557,260,l),
(557,0,l),
(633,0,l),
(633,327,l),
(312,327,l),
(312,255,l),
(372,255,o),
(416,214,o),
(416,158,cs),
(416,104,o),
(376,65,o),
(321,65,cs),
(219,65,o),
(147,159,o),
(147,290,cs),
(147,421,o),
(239,515,o),
(367,515,cs),
(443,515,o),
(506,482,o),
(544,429,c),
(607,478,l),
(553,547,o),
(467,590,o),
(367,590,cs),
(195,590,o),
(65,461,o),
(65,290,cs),
(65,119,o),
(173,-10,o),
(317,-10,cs)
);
}
);
width = 715;
}
);
metricLeft = "=50";
metricRight = "=50";
script = chak;
subCategory = Nonspacing;
},
{
category = Mark;
color = 0;
glyphname = "jha-chak.below";
lastChange = "2023-04-23 09:03:43 +0000";
layers = (
{
anchors = (
{
name = _bottom;
pos = (453,0);
}
);
layerId = m01;
shapes = (
{
closed = 1;
nodes = (
(224,-499,l),
(159,-469,o),
(117,-404,o),
(117,-320,cs),
(117,-213,o),
(191,-135,o),
(293,-135,cs),
(397,-135,o),
(469,-218,o),
(469,-339,cs),
(469,-420,o),
(436,-495,o),
(394,-495,cs),
(369,-495,o),
(355,-470,o),
(355,-429,cs),
(355,-329,o),
(443,-210,o),
(632,-127,c),
(513,-137,l),
(592,-137,l),
(592,-425,ls),
(592,-517,o),
(660,-555,o),
(724,-555,cs),
(788,-555,o),
(856,-517,o),
(856,-425,cs),
(856,-83,l),
(792,-83,l),
(792,-422,ls),
(792,-480,o),
(757,-499,o),
(724,-499,cs),
(691,-499,o),
(656,-480,o),
(656,-422,cs),
(656,-92,l),
(598,-79,l),
(399,-154,o),
(289,-309,o),
(289,-429,cs),
(289,-505,o),
(331,-555,o),
(387,-555,cs),
(473,-555,o),
(536,-456,o),
(536,-338,cs),
(536,-187,o),
(434,-75,o),
(293,-75,cs),
(155,-75,o),
(50,-181,o),
(50,-320,cs),
(50,-428,o),
(107,-517,o),
(194,-555,c)
);
}
);
width = 906;
},
{
anchors = (
{
name = bottomright;
pos = (783,0);
},
{
name = medialRa;
pos = (1073,0);
},
{
name = top;
pos = (783,600);
}
);
associatedMasterId = m01;
background = {
shapes = (
{
closed = 1;
nodes = (
(596,-10,o),
(673,114,o),
(673,261,cs),
(673,450,o),
(544,590,o),
(367,590,cs),
(195,590,o),
(65,461,o),
(65,290,cs),
(65,152,o),
(137,39,o),
(245,-10,c),
(277,59,l),
(199,97,o),
(149,182,o),
(149,290,cs),
(149,421,o),
(240,515,o),
(367,515,cs),
(498,515,o),
(589,411,o),
(589,260,cs),
(589,159,o),
(546,65,o),
(496,65,cs),
(470,65,o),
(455,94,o),
(455,132,cs),
(455,263,o),
(545,370,o),
(729,538,c),
(673,590,l),
(479,410,o),
(373,284,o),
(373,133,cs),
(373,49,o),
(423,-10,o),
(496,-10,cs)
);
},
{
closed = 1;
nodes = (
(827,580,l),
(743,580,l),
(743,117,ls),
(743,33,o),
(828,-10,o),
(910,-10,cs),
(992,-10,o),
(1077,33,o),
(1077,117,cs),
(1077,580,l),
(993,580,l),
(993,125,ls),
(993,78,o),
(950,60,o),
(910,60,cs),
(870,60,o),
(827,78,o),
(827,125,cs)
);
}
);
};
layerId = "4263C197-58A8-4AD6-8839-E2312976BEDB";
name = "18 May 22, 11:47";
shapes = (
{
closed = 1;
nodes = (
(283,60,l),
(201,97,o),
(149,179,o),
(149,284,cs),
(149,418,o),
(241,515,o),
(369,515,cs),
(499,515,o),
(589,411,o),
(589,260,cs),
(589,159,o),
(541,65,o),
(491,65,cs),
(465,65,o),
(450,94,o),
(450,137,cs),
(450,271,o),
(556,400,o),
(793,569,c),
(644,513,l),
(743,513,l),
(743,152,ls),
(743,38,o),
(828,-10,o),
(908,-10,cs),
(988,-10,o),
(1073,38,o),
(1073,152,cs),
(1073,580,l),
(993,580,l),
(993,156,ls),
(993,84,o),
(949,60,o),
(908,60,cs),
(867,60,o),
(823,84,o),
(823,156,cs),
(823,580,l),
(692,580,l),
(475,428,o),
(368,281,o),
(368,138,cs),
(368,49,o),
(418,-10,o),
(491,-10,cs),
(591,-10,o),
(673,114,o),
(673,261,cs),
(673,450,o),
(545,590,o),
(369,590,cs),
(196,590,o),
(65,458,o),
(65,284,cs),
(65,149,o),
(137,38,o),
(245,-10,c)
);
}
);
width = 1153;
}
);
metricLeft = "=50";
metricRight = "=50";
script = chak;
subCategory = Nonspacing;
},
{
category = Mark;
color = 0;
glyphname = "nnya-chak.below";
lastChange = "2023-04-23 09:03:43 +0000";
layers = (
{
anchors = (
{
name = _bottom;
pos = (411,0);
}
);
layerId = m01;
shapes = (
{
closed = 1;
nodes = (
(684,-555,o),
(771,-492,o),
(771,-398,cs),
(771,-306,o),
(687,-231,o),
(584,-231,cs),
(513,-231,o),
(464,-265,o),
(464,-315,cs),
(464,-365,o),
(513,-399,o),
(584,-399,cs),
(687,-399,o),
(771,-324,o),
(771,-232,cs),
(771,-138,o),
(684,-75,o),
(568,-75,cs),
(419,-75,o),
(311,-177,o),
(311,-315,cs),
(311,-453,o),
(419,-555,o),
(568,-555,cs)
);
},
{
closed = 1;
nodes = (
(294,-555,o),
(375,-457,o),
(375,-315,cs),
(375,-173,o),
(294,-75,o),
(179,-75,cs),
(129,-75,o),
(81,-93,o),
(50,-131,c),
(94,-170,l),
(117,-147,o),
(147,-135,o),
(182,-135,cs),
(259,-135,o),
(309,-205,o),
(309,-315,cs),
(309,-425,o),
(259,-495,o),
(182,-495,cs),
(148,-495,o),
(117,-483,o),
(94,-460,c),
(50,-499,l),
(81,-537,o),
(129,-555,o),
(179,-555,cs)
);
},
{
closed = 1;
nodes = (
(453,-495,o),
(377,-421,o),
(377,-315,cs),
(377,-209,o),
(453,-135,o),
(567,-135,cs),
(646,-135,o),
(707,-176,o),
(707,-236,cs),
(707,-300,o),
(656,-345,o),
(583,-345,cs),
(544,-345,o),
(518,-333,o),
(518,-315,cs),
(518,-297,o),
(544,-285,o),
(583,-285,cs),
(656,-285,o),
(707,-330,o),
(707,-394,cs),
(707,-454,o),
(646,-495,o),
(567,-495,cs)
);
}
);
width = 821;
},
{
anchors = (
{
name = bottomright;
pos = (775,0);
},
{
name = medialRa;
pos = (1062,0);
},
{
name = top;
pos = (775,600);
}
);
associatedMasterId = m01;
background = {
shapes = (
{
angle = 180;
pos = (634,580);
ref = "_part.cap-chak";
},
{
pos = (634,0);
ref = "_part.cap-chak";
scale = (-1,1);
},
{
closed = 1;
nodes = (
(953,-10,o),
(1062,69,o),
(1062,184,cs),
(1062,301,o),
(957,395,o),
(828,395,cs),
(740,395,o),
(678,352,o),
(678,290,cs),
(678,228,o),
(740,185,o),
(828,185,cs),
(957,185,o),
(1062,279,o),
(1062,396,cs),
(1062,511,o),
(953,590,o),
(802,590,cs),
(621,590,o),
(487,462,o),
(487,290,cs),
(487,118,o),
(621,-10,o),
(802,-10,cs)
);
},
{
closed = 1;
nodes = (
(664,65,o),
(569,158,o),
(569,290,cs),
(569,422,o),
(664,515,o),
(801,515,cs),
(906,515,o),
(982,462,o),
(982,384,cs),
(982,307,o),
(918,252,o),
(827,252,cs),
(778,252,o),
(746,267,o),
(746,290,cs),
(746,313,o),
(778,328,o),
(827,328,cs),
(918,328,o),
(982,273,o),
(982,196,cs),
(982,118,o),
(906,65,o),
(801,65,cs)
);
}
);
};
layerId = "6B735EBA-A25C-47A8-A31B-B12752A7A362";
name = "18 May 22, 11:57";
shapes = (
{
closed = 1;
nodes = (
(953,-10,o),
(1062,69,o),
(1062,184,cs),
(1062,301,o),
(957,395,o),
(828,395,cs),
(740,395,o),
(678,352,o),
(678,290,cs),
(678,228,o),
(740,185,o),
(828,185,cs),
(957,185,o),
(1062,279,o),
(1062,396,cs),
(1062,511,o),
(953,590,o),
(802,590,cs),
(621,590,o),
(487,462,o),
(487,290,cs),
(487,118,o),
(621,-10,o),
(802,-10,cs)
);
},
{
closed = 1;
nodes = (
(437,-10,o),
(567,119,o),
(567,290,cs),
(567,461,o),
(437,590,o),
(265,590,cs),
(168,590,o),
(81,549,o),
(25,478,c),
(88,429,l),
(127,484,o),
(191,515,o),
(265,515,cs),
(393,515,o),
(485,421,o),
(485,290,cs),
(485,159,o),
(393,65,o),
(265,65,cs),
(191,65,o),
(127,96,o),
(88,151,c),
(25,102,l),
(81,31,o),
(168,-10,o),
(265,-10,cs)
);
},
{
closed = 1;
nodes = (
(664,65,o),
(569,158,o),
(569,290,cs),
(569,422,o),
(664,515,o),
(801,515,cs),
(906,515,o),
(982,462,o),
(982,384,cs),
(982,307,o),
(918,252,o),
(827,252,cs),
(778,252,o),
(746,267,o),
(746,290,cs),
(746,313,o),
(778,328,o),
(827,328,cs),
(918,328,o),
(982,273,o),
(982,196,cs),
(982,118,o),
(906,65,o),
(801,65,cs)
);
}
);
width = 1127;
},
{
anchors = (
{
name = bottomright;
pos = (775,0);
},
{
name = medialRa;
pos = (1062,0);
},
{
name = top;
pos = (775,600);
}
);
associatedMasterId = m01;
background = {
shapes = (
{
closed = 1;
nodes = (
(67,468,o),
(170,590,o),
(318,590,cs),
(466,590,o),
(569,468,o),
(569,290,cs),
(569,112,o),
(466,-10,o),
(318,-10,cs),
(170,-10,o),
(67,112,o),
(67,290,cs)
);
},
{
closed = 1;
nodes = (
(485,428,o),
(419,515,o),
(318,515,cs),
(217,515,o),
(151,428,o),
(151,290,cs),
(151,152,o),
(217,65,o),
(318,65,cs),
(419,65,o),
(485,152,o),
(485,290,cs)
);
}
);
};
layerId = "9C7C9AB7-4DE7-45E9-B79F-5D3F3040D7F7";
name = "18 May 22, 11:58";
shapes = (
{
closed = 1;
nodes = (
(953,-10,o),
(1062,69,o),
(1062,184,cs),
(1062,301,o),
(957,395,o),
(828,395,cs),
(740,395,o),
(678,352,o),
(678,290,cs),
(678,228,o),
(740,185,o),
(828,185,cs),
(957,185,o),
(1062,279,o),
(1062,396,cs),
(1062,511,o),
(953,590,o),
(802,590,cs),
(621,590,o),
(487,462,o),
(487,290,cs),
(487,118,o),
(621,-10,o),
(802,-10,cs)
);
},
{
closed = 1;
nodes = (
(437,-10,o),
(567,119,o),
(567,290,cs),
(567,461,o),
(437,590,o),
(265,590,cs),
(168,590,o),
(81,549,o),
(25,478,c),
(88,429,l),
(127,484,o),
(191,515,o),
(265,515,cs),
(393,515,o),
(485,421,o),
(485,290,cs),
(485,159,o),
(393,65,o),
(265,65,cs),
(191,65,o),
(127,96,o),
(88,151,c),
(25,102,l),
(81,31,o),
(168,-10,o),
(265,-10,cs)
);
},
{
closed = 1;
nodes = (
(664,65,o),
(569,158,o),
(569,290,cs),
(569,422,o),
(664,515,o),
(801,515,cs),
(906,515,o),
(982,462,o),
(982,384,cs),
(982,307,o),
(918,252,o),
(827,252,cs),
(778,252,o),
(746,267,o),
(746,290,cs),
(746,313,o),
(778,328,o),
(827,328,cs),
(918,328,o),
(982,273,o),
(982,196,cs),
(982,118,o),
(906,65,o),
(801,65,cs)
);
}
);
width = 1127;
}
);
metricLeft = "=50";
metricRight = "=50";
script = chak;
subCategory = Nonspacing;
},
{
category = Mark;
color = 0;
glyphname = "tta-chak.below";
lastChange = "2023-04-23 09:03:43 +0000";
layers = (
{
anchors = (
{
name = _bottomright;
pos = (223,0);
}
);
layerId = m01;
shapes = (
{
closed = 1;
nodes = (
(283,-409,o),
(334,-383,o),
(365,-341,c),
(315,-306,l),
(296,-336,o),
(264,-353,o),
(224,-353,cs),
(160,-353,o),
(114,-307,o),
(114,-242,cs),
(114,-177,o),
(160,-131,o),
(224,-131,cs),
(264,-131,o),
(296,-149,o),
(315,-178,c),
(365,-143,l),
(334,-101,o),
(283,-75,o),
(224,-75,cs),
(126,-75,o),
(50,-147,o),
(50,-242,cs),
(50,-337,o),
(126,-409,o),
(224,-409,cs)
);
},
{
closed = 1;
nodes = (
(231,-547,l),
(231,-491,l),
(164,-491,l),
(164,-361,l),
(100,-281,l),
(100,-547,l)
);
}
);
width = 415;
},
{
anchors = (
{
name = bottomright;
pos = (272,0);
},
{
name = medialRa;
pos = (448,0);
},
{
name = top;
pos = (272,600);
}
);
associatedMasterId = m01;
background = {
anchors = (
{
name = bottomright;
pos = (272,0);
},
{
name = medialRa;
pos = (448,0);
},
{
name = top;
pos = (272,600);
}
);
shapes = (
{
closed = 1;
nodes = (
(347,172,o),
(410,206,o),
(448,261,c),
(390,302,l),
(366,263,o),
(324,238,o),
(272,238,cs),
(192,238,o),
(134,298,o),
(134,381,cs),
(134,464,o),
(192,524,o),
(272,524,cs),
(324,524,o),
(366,499,o),
(390,460,c),
(448,501,l),
(410,556,o),
(347,590,o),
(273,590,cs),
(152,590,o),
(60,500,o),
(60,381,cs),
(60,262,o),
(152,172,o),
(273,172,cs)
);
},
{
closed = 1;
nodes = (
(438,0,l),
(438,70,l),
(129,70,l),
(90,0,l)
);
},
{
closed = 1;
nodes = (
(170,35,l),
(170,233,l),
(90,333,l),
(90,0,l)
);
}
);
};
layerId = "D3271338-F624-4FF7-AB3D-6D2E3F8460E9";
name = "19 May 22, 07:51";
shapes = (
{
closed = 1;
nodes = (
(351,172,o),
(415,205,o),
(453,257,c),
(391,301,l),
(367,264,o),
(327,242,o),
(277,242,cs),
(197,242,o),
(140,300,o),
(140,381,cs),
(140,462,o),
(197,520,o),
(277,520,cs),
(327,520,o),
(367,498,o),
(391,461,c),
(453,505,l),
(415,557,o),
(351,590,o),
(277,590,cs),
(154,590,o),
(60,500,o),
(60,381,cs),
(60,262,o),
(154,172,o),
(277,172,cs)
);
},
{
closed = 1;
nodes = (
(438,0,l),
(438,70,l),
(129,70,l),
(90,0,l)
);
},
{
closed = 1;
nodes = (
(170,35,l),
(170,233,l),
(90,333,l),
(90,0,l)
);
}
);
width = 523;
}
);
metricLeft = "=50";
metricRight = "=50";
script = chak;
subCategory = Nonspacing;
},
{
category = Mark;
color = 0;
glyphname = "ttha-chak.below";
lastChange = "2023-04-23 09:03:43 +0000";
layers = (
{
anchors = (
{
name = _bottomright;
pos = (223,0);
}
);
layerId = m01;
shapes = (
{
closed = 1;
nodes = (
(283,-409,o),
(334,-383,o),
(365,-341,c),
(315,-306,l),
(296,-336,o),
(264,-353,o),
(224,-353,cs),
(160,-353,o),
(114,-307,o),
(114,-242,cs),
(114,-177,o),
(160,-131,o),
(224,-131,cs),
(264,-131,o),
(296,-149,o),
(315,-178,c),
(365,-143,l),
(334,-101,o),
(283,-75,o),
(224,-75,cs),
(126,-75,o),
(50,-147,o),
(50,-242,cs),
(50,-337,o),
(126,-409,o),
(224,-409,cs)
);
},
{
closed = 1;
nodes = (
(297,-555,o),
(365,-524,o),
(365,-447,cs),
(365,-341,l),
(301,-353,l),
(301,-443,ls),
(301,-485,o),
(260,-499,o),
(206,-499,cs),
(156,-499,o),
(119,-487,o),
(105,-452,c),
(50,-475,l),
(66,-532,o),
(128,-555,o),
(206,-555,cs)
);
}
);
width = 415;
}
);
metricLeft = "=50";
metricRight = "=50";
script = chak;
subCategory = Nonspacing;
},
{
category = Mark;
color = 0;
glyphname = "dda-chak.below";
lastChange = "2023-04-23 09:03:43 +0000";
layers = (
{
anchors = (
{
name = _bottomright;
pos = (205,0);
}
);
layerId = m01;
shapes = (
{
closed = 1;
nodes = (
(304,-679,o),
(360,-623,o),
(360,-531,cs),
(360,-433,l),
(198,-433,ls),
(146,-433,o),
(117,-415,o),
(117,-386,cs),
(117,-343,o),
(161,-328,o),
(227,-312,cs),
(294,-296,o),
(360,-272,o),
(360,-195,cs),
(360,-119,o),
(304,-75,o),
(213,-75,cs),
(127,-75,o),
(66,-114,o),
(50,-176,c),
(106,-200,l),
(120,-157,o),
(156,-135,o),
(213,-135,cs),
(266,-135,o),
(293,-159,o),
(293,-196,cs),
(293,-239,o),
(249,-254,o),
(183,-270,cs),
(116,-286,o),
(50,-310,o),
(50,-387,cs),
(50,-456,o),
(103,-493,o),
(194,-493,cs),
(296,-493,l),
(296,-530,ls),
(296,-589,o),
(267,-619,o),
(213,-619,cs),
(156,-619,o),
(120,-598,o),
(106,-555,c),
(50,-579,l),
(66,-641,o),
(127,-679,o),
(213,-679,cs)
);
}
);
width = 410;
},
{
anchors = (
{
name = bottomright;
pos = (251,0);
},
{
name = medialRa;
pos = (477,0);
},
{
name = top;
pos = (251,600);
}
);
associatedMasterId = m01;
layerId = "2092F6FD-B2B1-4109-8828-02D2001573EB";
name = "18 May 22, 08:16";
shapes = (
{
closed = 1;
nodes = (
(377,234,o),
(463,311,o),
(463,412,cs),
(463,513,o),
(377,590,o),
(265,590,cs),
(185,590,o),
(116,556,o),
(75,501,c),
(133,460,l),
(160,499,o),
(207,524,o),
(266,524,cs),
(337,524,o),
(389,477,o),
(389,412,cs),
(389,347,o),
(337,300,o),
(266,300,cs),
(207,300,o),
(160,325,o),
(133,364,c),
(75,323,l),
(116,268,o),
(185,234,o),
(265,234,cs)
);
},
{
closed = 1;
nodes = (
(371,112,o),
(448,145,o),
(467,206,c),
(399,235,l),
(381,191,o),
(336,176,o),
(273,176,cs),
(206,176,o),
(155,193,o),
(155,246,cs),
(155,305,l),
(75,323,l),
(75,247,ls),
(75,151,o),
(160,112,o),
(273,112,cs)
);
},
{
closed = 1;
nodes = (
(382,-10,o),
(467,29,o),
(467,125,cs),
(467,206,l),
(387,143,l),
(387,124,ls),
(387,71,o),
(336,54,o),
(269,54,cs),
(206,54,o),
(152,65,o),
(117,96,c),
(75,45,l),
(102,13,o),
(171,-10,o),
(269,-10,cs)
);
}
);
width = 527;
},
{
anchors = (
{
name = bottomright;
pos = (271,0);
},
{
name = medialRa;
pos = (467,0);
},
{
name = top;
pos = (271,600);
}
);
associatedMasterId = m01;
layerId = "F8B7D31D-F491-4F68-826E-B0916AE2F39D";
name = "18 May 22, 14:37";
shapes = (
{
closed = 1;
nodes = (
(377,152,o),
(448,200,o),
(467,258,c),
(397,279,l),
(381,245,o),
(341,218,o),
(262,218,cs),
(201,218,o),
(156,235,o),
(156,268,cs),
(156,380,o),
(467,304,o),
(467,474,cs),
(467,547,o),
(390,590,o),
(283,590,cs),
(169,590,o),
(98,537,o),
(79,464,c),
(149,443,l),
(165,492,o),
(205,524,o),
(284,524,cs),
(345,524,o),
(390,507,o),
(390,474,cs),
(390,362,o),
(79,438,o),
(79,268,cs),
(79,195,o),
(156,152,o),
(263,152,cs)
);
},
{
closed = 1;
nodes = (
(382,-10,o),
(467,39,o),
(467,159,cs),
(467,258,l),
(398,233,l),
(398,158,ls),
(398,79,o),
(342,54,o),
(269,54,cs),
(206,54,o),
(152,68,o),
(117,106,c),
(75,55,l),
(102,17,o),
(171,-10,o),
(269,-10,cs)
);
}
);
width = 527;
},
{
anchors = (
{
name = bottomright;
pos = (271,0);
},
{
name = medialRa;
pos = (467,0);
},
{
name = top;
pos = (271,600);
}
);
associatedMasterId = m01;
layerId = "13E03348-CFCA-442F-A03C-02445B91D902";
name = "18 May 22, 14:42";
shapes = (
{
closed = 1;
nodes = (
(390,-10,o),
(467,35,o),
(467,122,cs),
(467,303,o),
(156,210,o),
(156,290,cs),
(156,370,o),
(467,277,o),
(467,458,cs),
(467,545,o),
(390,590,o),
(283,590,cs),
(169,590,o),
(98,537,o),
(79,464,c),
(149,443,l),
(165,492,o),
(205,524,o),
(284,524,cs),
(345,524,o),
(390,506,o),
(390,458,cs),
(390,333,o),
(79,429,o),
(79,290,cs),
(79,151,o),
(390,247,o),
(390,122,cs),
(390,74,o),
(345,56,o),
(284,56,cs),
(205,56,o),
(165,88,o),
(149,137,c),
(79,116,l),
(98,43,o),
(169,-10,o),
(283,-10,cs)
);
}
);
width = 527;
},
{
anchors = (
{
name = bottomright;
pos = (271,0);
},
{
name = medialRa;
pos = (477,0);
},
{
name = top;
pos = (271,600);
}
);
associatedMasterId = m01;
layerId = "D46A46D7-30D1-45F1-ADA0-A4B6DC9A0814";
name = "19 May 22, 07:33";
shapes = (
{
closed = 1;
nodes = (
(390,-10,o),
(467,38,o),
(467,143,cs),
(467,240,l),
(246,240,ls),
(190,240,o),
(156,253,o),
(156,280,cs),
(156,370,o),
(467,288,o),
(467,458,cs),
(467,545,o),
(390,590,o),
(283,590,cs),
(169,590,o),
(98,537,o),
(79,464,c),
(149,443,l),
(165,492,o),
(205,524,o),
(284,524,cs),
(345,524,o),
(390,506,o),
(390,458,cs),
(390,348,o),
(79,438,o),
(79,272,cs),
(79,210,o),
(145,178,o),
(241,178,cs),
(390,178,l),
(390,148,ls),
(390,78,o),
(345,56,o),
(284,56,cs),
(205,56,o),
(165,88,o),
(149,137,c),
(79,116,l),
(98,43,o),
(169,-10,o),
(283,-10,cs)
);
}
);
width = 527;
},
{
anchors = (
{
name = bottomright;
pos = (264,-155);
},
{
name = medialRa;
pos = (468,-155);
},
{
name = top;
pos = (264,600);
}
);
associatedMasterId = m01;
layerId = "8FD9D696-A92A-46E0-8366-A79BAC3C327E";
name = "19 May 22, 07:54";
shapes = (
{
closed = 1;
nodes = (
(388,-165,o),
(458,-95,o),
(458,20,cs),
(458,143,l),
(259,143,ls),
(191,143,o),
(154,168,o),
(154,210,cs),
(154,264,o),
(209,282,o),
(292,302,cs),
(375,322,o),
(458,349,o),
(458,446,cs),
(458,535,o),
(388,590,o),
(274,590,cs),
(167,590,o),
(90,542,o),
(70,464,c),
(140,434,l),
(158,488,o),
(203,515,o),
(274,515,cs),
(340,515,o),
(374,489,o),
(374,447,cs),
(374,393,o),
(319,375,o),
(236,355,cs),
(153,335,o),
(70,308,o),
(70,211,cs),
(70,120,o),
(138,68,o),
(254,68,cs),
(378,68,l),
(378,22,ls),
(378,-52,o),
(342,-90,o),
(274,-90,cs),
(203,-90,o),
(158,-63,o),
(140,-9,c),
(70,-39,l),
(90,-117,o),
(167,-165,o),
(274,-165,cs)
);
}
);
width = 523;
}
);
metricLeft = "=50";
metricRight = "=50";
script = chak;
subCategory = Nonspacing;
},
